<svg id="Capa_1" enable-background="new 0 0 512 512" height="512" viewBox="0 0 512 512" width="512" xmlns="http://www.w3.org/2000/svg"><g><g><path d="m444.86 361.71h-45.72l-18.32 34.9-89.52-172.56h-70.6l-89.52 172.56-18.32-34.9h-45.72l-57.14 114.29h492z" fill="#a7e8a6"/><path d="m461.19 178c0 .03.01.05.01.08 2.52-.98 5.19-1.66 7.97-1.94.47-.04.94-.08 1.41-.1.47-.03.94-.04 1.42-.04 16.57 0 30 13.43 30 30s-13.43 30-30 30h-60c-27.61 0-50-22.39-50-50s22.39-50 50-50c24.87 0 45.34 18.21 49.19 42z" fill="#eefaff"/><path d="m444.86 361.71-22.86 34.29-22.86-34.29 22.86-45.71z" fill="#eefaff"/><path d="m356 76-100 40v-80z" fill="#ff7b79"/><g fill="#eefaff"><path d="m256 156 35.3 68.05-35.3 51.95-35.3-51.95z"/><path d="m135.19 138c0 .03.01.05.01.08 3.559-1.384 7.176-2.08 10.8-2.08 16.57 0 30 13.43 30 30s-13.43 30-30 30h-60c-27.61 0-50-22.39-50-50s22.39-50 50-50c24.87 0 45.34 18.21 49.19 42z"/><path d="m112.86 361.71-22.86 34.29-22.86-34.29 22.86-45.71z"/></g></g><g><path d="m1.494 481.257c1.822 2.948 5.04 4.743 8.506 4.743h201c5.523 0 10-4.477 10-10s-4.477-10-10-10h-104.548l115.614-222.869 25.613 38.417c1.854 2.782 4.977 4.453 8.32 4.453 3.344 0 6.466-1.671 8.32-4.453l25.613-38.417 115.616 222.869h-104.548c-5.522 0-10 4.477-10 10s4.478 10 10 10h201c3.466 0 6.685-1.794 8.507-4.743 1.821-2.948 1.987-6.629.438-9.729-7.811-15.622-72.047-144.096-80-160.001-1.695-3.388-5.158-5.527-8.945-5.527s-7.25 2.14-8.944 5.527c-5.693 11.386-23.111 46.222-31.956 63.913l-115.1-221.88v-30.79l93.714-37.486c3.797-1.518 6.286-5.195 6.286-9.284s-2.489-7.766-6.286-9.285l-100-40c-3.08-1.232-6.572-.856-9.32 1.004s-4.394 4.962-4.394 8.281v117.56l-115.1 221.879c-8.836-17.672-26.253-52.505-31.956-63.913-1.694-3.387-5.156-5.526-8.944-5.526s-7.25 2.14-8.944 5.527c-7.952 15.904-72.193 144.386-80 160.001-1.55 3.1-1.385 6.781.438 9.729zm254.506-223.284-23.415-35.12 23.415-45.136 23.415 45.137zm166 80.383 11.319 22.638-11.319 16.979-11.319-16.978zm-21.62 43.242 13.299 19.949c1.854 2.782 4.977 4.453 8.32 4.453s6.466-1.671 8.32-4.453l13.3-19.949 42.201 84.402h-57.742l-35.592-68.612zm-134.38-330.828 63.074 25.23-63.074 25.229zm-176 287.587 11.318 22.638-11.318 16.977-11.319-16.978zm-21.62 43.24 13.299 19.949c1.855 2.783 4.977 4.454 8.321 4.454s6.466-1.671 8.32-4.453l13.299-19.949 7.895 15.79-35.592 68.612h-57.742z"/><path d="m146 206c22.056 0 40-17.944 40-40s-17.944-40-40-40c-.659 0-1.305.015-1.949.054-.019.001-.037.003-.056.004-.503.025-1.005.062-1.51.105-8.237-23.792-30.563-40.163-56.485-40.163-33.084 0-60 26.916-60 60s26.916 60 60 60zm-100-60c0-22.056 17.944-40 40-40 17.284 0 32.162 10.956 37.625 26.861-6.365 4.316-11.456 10.418-14.476 17.567-2.149 5.087.232 10.954 5.32 13.103 5.066 2.142 10.946-.213 13.103-5.32 3.063-7.251 10.315-12.211 18.428-12.211 11.028 0 20 8.972 20 20s-8.972 20-20 20h-60c-22.056 0-40-17.944-40-40z"/><path d="m472 166c-.659 0-1.304.015-1.948.054-.002 0-.004 0-.007 0-.52.024-1.04.064-1.56.108-8.238-23.791-30.563-40.162-56.485-40.162-33.084 0-60 26.916-60 60s26.916 60 60 60h60c22.056 0 40-17.944 40-40s-17.944-40-40-40zm0 60h-60c-22.056 0-40-17.944-40-40s17.944-40 40-40c17.284 0 32.162 10.956 37.625 26.86-6.366 4.316-11.457 10.419-14.477 17.569-2.149 5.087.233 10.954 5.321 13.103 5.076 2.144 10.949-.222 13.103-5.321 3.001-7.105 10.157-12.211 18.428-12.211 11.028 0 20 8.972 20 20s-8.972 20-20 20z"/><path d="m219.162 346.513c-5.239-1.746-10.903 1.085-12.649 6.325l-20 60c-1.747 5.239 1.085 10.902 6.325 12.649 5.251 1.75 10.906-1.095 12.649-6.325l20-60c1.746-5.239-1.085-10.902-6.325-12.649z"/><path d="m319.162 425.487c5.239-1.747 8.071-7.41 6.325-12.649l-20-60c-1.747-5.239-7.408-8.072-12.649-6.325-5.239 1.747-8.071 7.41-6.325 12.649l20 60c1.747 5.239 7.409 8.072 12.649 6.325z"/><circle cx="256" cy="476" r="10"/></g></g></svg>