<?xml version="1.0" encoding="iso-8859-1"?>
<!-- Generator: Adobe Illustrator 19.0.0, SVG Export Plug-In . SVG Version: 6.00 Build 0)  -->
<svg version="1.1" id="Capa_1" xmlns="http://www.w3.org/2000/svg" xmlns:xlink="http://www.w3.org/1999/xlink" x="0px" y="0px"
	 viewBox="0 0 512 512" style="enable-background:new 0 0 512 512;" xml:space="preserve">
<path style="fill:#FEA02C;" d="M465.997,256.004c0-115.981-94.016-209.997-209.997-209.997S46.003,140.023,46.003,256.004
	S140.019,466.001,256,466.001S465.997,371.985,465.997,256.004z"/>
<circle style="fill:#FFC66C;" cx="255.996" cy="256.006" r="152.028"/>
<path d="M397.697,114.862c1.954,1.964,4.521,2.946,7.088,2.946c2.551,0,5.103-0.97,7.054-2.911
	c3.915-3.896,3.931-10.228,0.035-14.143l-0.312-0.313c-3.905-3.904-10.237-3.904-14.143,0c-3.905,3.905-3.905,10.237,0,14.143
	L397.697,114.862z"/>
<path d="M436.716,130.48c-3.156-4.533-9.388-5.647-13.921-2.493c-4.533,3.156-5.648,9.389-2.493,13.921
	c55.329,79.468,45.705,186.927-22.884,255.515c-37.775,37.775-87.999,58.58-141.419,58.58s-103.643-20.805-141.419-58.58
	c-37.775-37.774-58.58-87.999-58.58-141.419s20.805-103.644,58.58-141.419c69.694-69.695,178.234-78.553,258.084-21.065
	c4.482,3.228,10.731,2.209,13.958-2.272c3.227-4.482,2.209-10.731-2.273-13.958c-41.889-30.159-93.454-44.593-145.194-40.643
	c-52.308,3.994-101.572,26.651-138.718,63.796c-41.553,41.553-64.437,96.799-64.437,155.561s22.885,114.008,64.437,155.561
	s96.798,64.437,155.561,64.437s114.008-22.885,155.561-64.437c36.718-36.718,59.328-85.395,63.663-137.063
	C479.508,223.446,465.832,172.298,436.716,130.48z"/>
<path d="M175.102,385.055c-2.62,4.861-0.802,10.927,4.06,13.547c23.527,12.677,50.249,19.295,77.051,19.295
	c7.408,0,14.825-0.506,22.179-1.529c35.112-4.886,66.955-20.753,92.088-45.884c30.59-30.591,47.437-71.263,47.437-114.523
	s-16.847-83.933-47.437-114.522c-30.59-30.59-71.261-47.436-114.521-47.436c-43.261,0-83.934,16.847-114.523,47.437
	c-25.132,25.132-40.998,56.975-45.884,92.086c-4.725,33.958,1.583,69.199,17.765,99.227c2.619,4.862,8.683,6.68,13.547,4.061
	c4.862-2.62,6.68-8.686,4.06-13.547c-29.488-54.727-19.35-123.682,24.656-167.685c26.813-26.813,62.462-41.579,100.381-41.579
	c37.918,0,73.568,14.767,100.38,41.578s41.579,62.462,41.579,100.38c0,37.919-14.767,73.568-41.579,100.381
	c-44.008,44.004-112.963,54.143-167.69,24.653C183.787,378.374,177.721,380.191,175.102,385.055z"/>
<path d="M141.423,356.344l-0.098,0.099c-3.896,3.915-3.88,10.247,0.035,14.143c1.952,1.941,4.502,2.911,7.054,2.911
	c2.567,0,5.135-0.982,7.088-2.946l0.098-0.099c3.896-3.915,3.88-10.247-0.035-14.143
	C151.649,352.414,145.318,352.43,141.423,356.344z"/>
<path d="M74.399,60.395h16.384c5.523,0,10-4.478,10-10s-4.477-10-10-10H74.399c-5.523,0-10,4.478-10,10S68.876,60.395,74.399,60.395
	z"/>
<path d="M50.78,34.451c5.523,0,10-4.478,10-10V10c0-5.522-4.477-10-10-10s-10,4.478-10,10v14.452
	C40.78,29.975,45.257,34.451,50.78,34.451z"/>
<path d="M25.257,40.395H10.004c-5.523,0-10,4.478-10,10s4.477,10,10,10h15.253c5.523,0,10-4.478,10-10S30.78,40.395,25.257,40.395z"
	/>
<path d="M50.78,99.012c5.523,0,10-4.478,10-10V77.374c0-5.522-4.477-10-10-10s-10,4.478-10,10v11.639
	C40.78,94.535,45.257,99.012,50.78,99.012z"/>
<path d="M501.996,453.384h-16.384c-5.523,0-10,4.478-10,10s4.477,10,10,10h16.384c5.523,0,10-4.478,10-10
	S507.519,453.384,501.996,453.384z"/>
<path d="M461.993,412.988c-5.523,0-10,4.478-10,10v14.452c0,5.522,4.477,10,10,10s10-4.478,10-10v-14.452
	C471.993,417.465,467.516,412.988,461.993,412.988z"/>
<path d="M436.47,453.384h-15.253c-5.523,0-10,4.478-10,10s4.477,10,10,10h15.253c5.523,0,10-4.478,10-10
	S441.993,453.384,436.47,453.384z"/>
<path d="M461.993,480.361c-5.523,0-10,4.478-10,10V502c0,5.522,4.477,10,10,10s10-4.478,10-10v-11.639
	C471.993,484.839,467.516,480.361,461.993,480.361z"/>
<path d="M202.001,328.13c0,5.522,4.477,10,10,10H246v16.874c0,5.522,4.477,10,10,10s10-4.478,10-10V338.13h9
	c25.364,0,45.999-20.636,45.999-45.999c0-14.604-6.849-27.631-17.495-36.062c10.646-8.433,17.495-21.459,17.495-36.062
	c0-25.364-20.636-45.999-45.999-45.999h-9v-17.001c0-5.522-4.477-10-10-10c-5.523,0-10,4.478-10,10v17.001h-33.999
	c-5.523,0-10,4.478-10,10v71.999c0,0.021,0.003,0.042,0.003,0.063s-0.003,0.042-0.003,0.063V328.13z M222.001,318.13v-51.999h24
	v51.999H222.001z M275,318.13h-9v-51.999h9c14.336,0,26,11.663,26,26C300.999,306.467,289.335,318.13,275,318.13z M275,194.005
	c14.336,0,26,11.663,26,26s-11.664,26-26,26h-9v-51.999H275z M222.001,194.005h24v51.999h-24V194.005z"/>
<g>
</g>
<g>
</g>
<g>
</g>
<g>
</g>
<g>
</g>
<g>
</g>
<g>
</g>
<g>
</g>
<g>
</g>
<g>
</g>
<g>
</g>
<g>
</g>
<g>
</g>
<g>
</g>
<g>
</g>
</svg>
