<svg id="Layer_1" enable-background="new 0 0 511.999 511.999" height="512" viewBox="0 0 511.999 511.999" width="512" xmlns="http://www.w3.org/2000/svg"><g><g clip-rule="evenodd" fill-rule="evenodd"><path d="m461.999 56v379.999h-60.002-60.001-59.999-60-60-60-71.997c-11.046 0-20 8.954-20 20s8.954 20 20 20h451.999c11.046 0 20-8.954 20-20v-399.999c0-11.046-8.954-20-20-20s-20 8.954-20 20z" fill="#fff"/><path d="m401.997 435.999v-282.25c0-5.5-4.5-10-10-10h-40c-5.5 0-10 4.5-10 10v282.25z" fill="#89df8f"/><path d="m281.997 435.999v-202c0-5.5-4.5-10-10-10h-40c-5.5 0-10 4.5-10 10v202z" fill="#ffc144"/><path d="m161.997 435.999v-165.25c0-5.5-4.5-10-10-10h-40c-5.5 0-10 4.5-10 10v165.25z" fill="#ff5d7d"/><path d="m192.061 192.627 88.744-88.744c3.328 6.816 10.326 11.512 18.422 11.512 11.316 0 20.489-9.173 20.489-20.489v-38.417c0-11.316-9.173-20.489-20.489-20.489h-38.417c-11.316 0-20.489 9.173-20.489 20.489 0 8.096 4.696 15.093 11.512 18.421l-74.258 74.258-24.443-24.443c-8.001-8.001-20.972-8.001-28.973 0l-107.861 107.861c-8.34 8.34-8.34 21.312-.34 29.313s20.972 8.001 28.973 0l93.715-93.715 24.443 24.443c8 8.001 20.972 8.001 28.972 0z" fill="#6d91ac"/></g><g><path d="m30.444 277.899c8.144 0 15.8-3.172 21.558-8.93l86.644-86.644 17.372 17.371c5.758 5.759 13.414 8.931 21.558 8.931s15.8-3.172 21.558-8.93l80.988-80.989c5.298 4.266 11.973 6.686 19.106 6.686 16.812 0 30.488-13.677 30.488-30.488v-38.417c0-16.812-13.677-30.489-30.488-30.489h-38.417c-16.812 0-30.489 13.678-30.489 30.489 0 7.134 2.42 13.808 6.686 19.105l-59.432 59.431-17.372-17.372c-11.888-11.886-31.228-11.886-43.115 0l-107.862 107.862v.001c-5.884 5.884-9.16 13.617-9.226 21.774-.065 8.185 3.091 15.884 8.887 21.679 5.758 5.759 13.414 8.93 21.556 8.93zm-7.075-38.243 107.86-107.86c4.09-4.088 10.743-4.088 14.831 0l24.443 24.443c3.906 3.904 10.236 3.904 14.143 0l74.258-74.258c2.284-2.285 3.324-5.532 2.792-8.72-.532-3.187-2.572-5.92-5.476-7.338-3.639-1.776-5.899-5.392-5.899-9.435 0-5.784 4.705-10.489 10.489-10.489h38.417c5.783 0 10.488 4.705 10.488 10.489v38.417c0 5.783-4.705 10.488-10.488 10.488-4.044 0-7.659-2.261-9.436-5.899-1.418-2.903-4.151-4.943-7.338-5.476-3.182-.53-6.435.507-8.72 2.792l-88.744 88.745c-1.98 1.98-4.614 3.071-7.415 3.071s-5.435-1.091-7.415-3.072l-24.443-24.442c-3.906-3.904-10.236-3.904-14.143 0l-93.715 93.715c-1.98 1.98-4.613 3.071-7.415 3.071-2.801 0-5.434-1.091-7.415-3.072-1.976-1.976-3.052-4.596-3.029-7.377.024-2.875 1.221-5.642 3.37-7.793z"/><path d="m481.999 26c-16.542 0-30 13.458-30 30v369.999h-40.002v-272.25c0-11.028-8.972-20-20-20h-40.001c-11.028 0-20 8.972-20 20v91.121c0 5.522 4.478 10 10 10s10-4.478 10-10v-91.121h40.001v272.25h-40.001v-91.129c0-5.522-4.478-10-10-10s-10 4.478-10 10v91.129h-39.999v-192c0-11.028-8.972-20-20-20h-40.001c-11.028 0-20 8.972-20 20v192h-39.999v-155.25c0-11.028-8.972-20-20-20h-40c-11.028 0-20.001 8.972-20.001 20v155.25h-61.996c-16.542 0-30 13.458-30 30s13.458 30 30 30h451.999c16.542 0 30-13.458 30-30v-399.999c0-16.542-13.458-30-30-30zm-250.003 207.999h40.001v192h-40.001zm-119.999 36.75h40v155.25h-40.001zm380.002 185.25c0 5.514-4.486 10-10 10h-451.999c-5.514 0-10-4.486-10-10s4.486-10 10-10h431.999c5.522 0 10-4.478 10-10v-379.999c0-5.514 4.486-10 10-10s10 4.486 10 10z"/><path d="m341.996 299.874c5.522 0 10-4.478 10-10v-.008c0-5.522-4.478-9.996-10-9.996s-10 4.481-10 10.004 4.478 10 10 10z"/></g></g></svg>