<svg viewBox="0 -20 512 511" xmlns="http://www.w3.org/2000/svg"><path d="m10 32.269531v408.398438c0 12.023437 9.746094 21.769531 21.769531 21.769531h448.460938c12.023437 0 21.769531-9.746094 21.769531-21.769531v-408.398438c0-12.023437-9.746094-21.769531-21.769531-21.769531h-448.460938c-12.023437 0-21.769531 9.746094-21.769531 21.769531zm0 0" fill="#fff"/><path d="m31.769531 10.5h448.460938c12.023437 0 21.769531 9.746094 21.769531 21.769531v74.019531h-492v-74.019531c0-12.023437 9.746094-21.769531 21.769531-21.769531zm0 0" fill="#72d8ff"/><path d="m67.179688 48.394531h-.101563c-5.523437 0-10 4.476563-10 10 0 5.523438 4.476563 10 10 10h.101563c5.523437 0 10-4.476562 10-10 0-5.523437-4.476563-10-10-10zm0 0"/><path d="m116.710938 48.394531h-.101563c-5.523437 0-10 4.476563-10 10 0 5.523438 4.476563 10 10 10h.101563c5.523437 0 10-4.476562 10-10 0-5.523437-4.476563-10-10-10zm0 0"/><path d="m166.242188 48.394531h-.101563c-5.523437 0-10 4.476563-10 10 0 5.523438 4.476563 10 10 10h.101563c5.523437 0 10-4.476562 10-10 0-5.523437-4.476563-10-10-10zm0 0"/><path d="m444.308594 48.394531h-192.929688c-5.523437 0-10 4.476563-10 10 0 5.519531 4.476563 10 10 10h192.929688c5.523437 0 10-4.480469 10-10 0-5.523437-4.476563-10-10-10zm0 0"/><path d="m262.890625 452.4375c-2.628906 0-5.199219 1.070312-7.070313 2.929688-1.859374 1.859374-2.929687 4.441406-2.929687 7.070312s1.070313 5.210938 2.929687 7.070312c1.871094 1.859376 4.441407 2.929688 7.070313 2.929688s5.210937-1.070312 7.070313-2.929688c1.867187-1.859374 2.929687-4.441406 2.929687-7.070312s-1.0625-5.210938-2.929687-7.070312c-1.859376-1.859376-4.441407-2.929688-7.070313-2.929688zm0 0"/><path d="m480.230469.5h-448.460938c-17.515625 0-31.769531 14.253906-31.769531 31.769531v408.398438c0 17.519531 14.253906 31.769531 31.769531 31.769531h189.230469c5.523438 0 10-4.476562 10-10s-4.476562-10-10-10h-189.230469c-6.488281 0-11.769531-5.277344-11.769531-11.769531v-324.378907h472v324.378907c0 6.488281-5.28125 11.769531-11.769531 11.769531h-176.5625c-5.523438 0-10 4.476562-10 10s4.476562 10 10 10h176.5625c17.515625 0 31.769531-14.25 31.769531-31.769531v-408.398438c0-17.515625-14.253906-31.769531-31.769531-31.769531zm-460.230469 95.785156v-64.015625c0-6.488281 5.28125-11.769531 11.769531-11.769531h448.460938c6.488281 0 11.769531 5.28125 11.769531 11.769531v64.019531h-472zm0 0"/><path d="m178.039062 230.5c0-19.851562-16.148437-36-36-36h-33.667968c-5.523438 0-10 4.476562-10 10v104c0 5.523438 4.476562 10 10 10h33.667968c19.851563 0 36-16.148438 36-36 0-10.214844-4.28125-19.441406-11.140624-26 6.859374-6.558594 11.140624-15.785156 11.140624-26zm-20 52c0 8.820312-7.179687 16-16 16h-23.667968v-32h23.667968c8.820313 0 16 7.175781 16 16zm-39.667968-36v-32h23.667968c8.824219 0 16 7.179688 16 16s-7.175781 16-16 16zm0 0"/><path d="m206.648438 194.5c-5.523438 0-10 4.476562-10 10v80.871094c0 18.269531 14.863281 33.128906 33.128906 33.128906 5.523437 0 10-4.476562 10-10s-4.476563-10-10-10c-7.238282 0-13.128906-5.890625-13.128906-13.128906v-80.871094c0-5.523438-4.476563-10-10-10zm0 0"/><path d="m324.867188 282.289062c0-19.96875-16.242188-36.214843-36.210938-36.214843s-36.210938 16.246093-36.210938 36.214843 16.246094 36.210938 36.210938 36.210938c19.96875 0 36.210938-16.242188 36.210938-36.210938zm-52.421876 0c0-8.941406 7.273438-16.214843 16.210938-16.214843s16.210938 7.273437 16.210938 16.214843c0 8.9375-7.269532 16.210938-16.210938 16.210938s-16.210938-7.273438-16.210938-16.210938zm0 0"/><path d="m377.414062 346.5c-8.9375 0-16.210937-7.273438-16.210937-16.210938 0-5.523437-4.476563-10-10-10s-10 4.476563-10 10c0 19.96875 16.246094 36.210938 36.210937 36.210938 19.96875 0 36.214844-16.242188 36.214844-36.210938v-48c0-19.96875-16.246094-36.214843-36.214844-36.214843-19.964843 0-36.210937 16.246093-36.210937 36.214843s16.246094 36.210938 36.210937 36.210938c5.828126 0 11.332032-1.390625 16.214844-3.847656v15.636718c0 8.9375-7.273437 16.210938-16.214844 16.210938zm0-48c-8.9375 0-16.210937-7.273438-16.210937-16.210938 0-8.941406 7.273437-16.214843 16.210937-16.214843 8.941407 0 16.214844 7.273437 16.214844 16.214843 0 8.9375-7.273437 16.210938-16.214844 16.210938zm0 0"/><path d="m108.371094 416.5h295.257812c5.523438 0 10-4.476562 10-10s-4.476562-10-10-10h-295.257812c-5.519532 0-10 4.476562-10 10s4.480468 10 10 10zm0 0"/></svg>