<?xml version="1.0" encoding="iso-8859-1"?>
<!-- Generator: Adobe Illustrator 19.0.0, SVG Export Plug-In . SVG Version: 6.00 Build 0)  -->
<svg version="1.1" id="Capa_1" xmlns="http://www.w3.org/2000/svg" xmlns:xlink="http://www.w3.org/1999/xlink" x="0px" y="0px"
	 viewBox="0 0 512 512" style="enable-background:new 0 0 512 512;" xml:space="preserve">
<g>
	<path style="fill:#C9F3FF;" d="M10,474.763c16.983-16.983,44.517-16.983,61.5,0l0,0c16.983,16.983,44.517,16.983,61.5,0l0,0
		c16.983-16.983,44.517-16.983,61.5,0l0,0c16.983,16.983,44.517,16.983,61.5,0l0,0c16.983-16.983,44.517-16.983,61.5,0l0,0
		c16.983,16.983,44.517,16.983,61.5,0l0,0c16.983-16.983,44.517-16.983,61.5,0l0,0c16.983,16.983,44.517,16.983,61.5,0l0,0v-53.737
		l0,0c-16.983,16.983-44.517,16.983-61.5,0l0,0c-16.983-16.983-44.517-16.983-61.5,0l0,0c-16.983,16.983-44.517,16.983-61.5,0l0,0
		c-16.983-16.983-44.517-16.983-61.5,0l0,0c-16.983,16.983-44.517,16.983-61.5,0l0,0c-16.983-16.983-44.517-16.983-61.5,0l0,0
		c-16.983,16.983-44.517,16.983-61.5,0l0,0c-16.983-16.983-44.517-16.983-61.5,0V474.763z"/>
	<path style="fill:#C9F3FF;" d="M10,421.645c16.983-16.983,44.517-16.983,61.5,0l0,0c16.983,16.983,44.517,16.983,61.5,0l0,0
		c16.983-16.983,44.517-16.983,61.5,0l0,0c16.983,16.983,44.517,16.983,61.5,0l0,0c16.983-16.983,44.517-16.983,61.5,0l0,0
		c16.983,16.983,44.517,16.983,61.5,0l0,0c16.983-16.983,44.517-16.983,61.5,0l0,0c16.983,16.983,44.517,16.983,61.5,0l0,0v-53.737
		l0,0c-16.983,16.983-44.517,16.983-61.5,0l0,0c-16.983-16.983-44.517-16.983-61.5,0l0,0c-16.983,16.983-44.517,16.983-61.5,0l0,0
		c-16.983-16.983-44.517-16.983-61.5,0l0,0c-16.983,16.983-44.517,16.983-61.5,0l0,0c-16.983-16.983-44.517-16.983-61.5,0l0,0
		c-16.983,16.983-44.517,16.983-61.5,0l0,0c-16.983-16.983-44.517-16.983-61.5,0V421.645z"/>
</g>
<rect x="256" y="24.5" style="fill:#72D8FF;" width="104" height="64"/>
<path style="fill:#B3B6C3;" d="M36,352.687l4.493,2.49c11.215-0.066,22.45,4.174,31.007,12.731l0,0
	c16.983,16.983,44.517,16.983,61.5,0l0,0c16.983-16.983,44.517-16.983,61.5,0l0,0c16.983,16.983,44.517,16.983,61.5,0l0,0
	c16.983-16.983,44.517-16.983,61.5,0l0,0c12.932,12.932,31.979,16.005,47.83,9.242l12.46-8.092c0.407-0.377,0.814-0.754,1.21-1.15
	l0,0c4.806-4.806,10.458-8.25,16.476-10.335l7.524-4.886l0,0c27.487-33.668,42.5-75.797,42.5-119.261V211.5
	c0,0-104.101,69-166.581,69H10v7.382C10,312.025,19.313,335.238,36,352.687L36,352.687z"/>
<path style="fill:#B28A67;" d="M403,352.687L403,352.687c29.544-55.271,45-116.974,45-179.645V162.5h54v10.541
	c0,62.671-15.456,124.375-45,179.645l-8.5,18.814L403,352.687z"/>
<path style="fill:#FFC66C;" d="M46.619,183.5h330.176c8.297,0,13.809-8.589,10.352-16.132l-15.228-33.226
	c-1.855-4.048-5.899-6.643-10.352-6.643H61.848c-4.452,0-8.496,2.595-10.352,6.643l-15.228,33.226
	C32.811,174.911,38.322,183.5,46.619,183.5z"/>
<path d="M494.929,413.954c-6.325,6.325-14.734,9.809-23.679,9.809s-17.354-3.483-23.679-9.809
	c-20.854-20.854-54.788-20.854-75.642,0c-6.325,6.325-14.734,9.809-23.679,9.809s-17.354-3.483-23.679-9.809
	c-20.854-20.854-54.788-20.854-75.642,0c-6.325,6.325-14.734,9.809-23.679,9.809s-17.354-3.483-23.679-9.809
	c-20.854-20.854-54.788-20.854-75.642,0c-6.325,6.325-14.734,9.809-23.679,9.809s-17.354-3.483-23.679-9.809
	c-20.854-20.854-54.787-20.854-75.642,0c-3.905,3.905-3.906,10.237,0,14.143c3.906,3.904,10.238,3.905,14.142,0
	c13.058-13.057,34.302-13.056,47.358,0c10.103,10.103,23.534,15.666,37.821,15.666s27.719-5.563,37.821-15.666
	c13.057-13.057,34.302-13.056,47.358,0c10.103,10.103,23.534,15.666,37.821,15.666s27.719-5.563,37.821-15.666
	c13.058-13.057,34.302-13.056,47.358,0c10.103,10.103,23.534,15.666,37.821,15.666s27.719-5.563,37.821-15.666
	c13.058-13.057,34.302-13.056,47.358,0c10.103,10.103,23.534,15.666,37.821,15.666s27.719-5.563,37.821-15.666
	c3.905-3.905,3.905-10.237,0-14.143C505.166,410.05,498.834,410.05,494.929,413.954z"/>
<path d="M494.929,467.691c-6.325,6.325-14.734,9.809-23.679,9.809s-17.354-3.483-23.679-9.809
	c-20.854-20.854-54.788-20.854-75.642,0c-6.325,6.325-14.734,9.809-23.679,9.809s-17.354-3.483-23.679-9.809
	c-20.854-20.854-54.788-20.854-75.642,0c-6.325,6.325-14.734,9.809-23.679,9.809s-17.354-3.483-23.679-9.809
	c-20.854-20.854-54.788-20.854-75.642,0c-6.325,6.325-14.734,9.809-23.679,9.809s-17.354-3.483-23.679-9.809
	c-20.854-20.854-54.787-20.854-75.642,0c-3.905,3.905-3.906,10.237,0,14.143c3.906,3.904,10.238,3.905,14.142,0
	c13.058-13.057,34.302-13.056,47.358,0C74.531,491.937,87.963,497.5,102.25,497.5s27.719-5.563,37.821-15.666
	c13.057-13.057,34.302-13.056,47.358,0c10.103,10.103,23.534,15.666,37.821,15.666s27.719-5.563,37.821-15.666
	c13.058-13.057,34.302-13.056,47.358,0c10.103,10.103,23.534,15.666,37.821,15.666s27.719-5.563,37.821-15.666
	c13.058-13.057,34.302-13.056,47.358,0c10.103,10.103,23.534,15.666,37.821,15.666s27.719-5.563,37.821-15.666
	c3.905-3.905,3.905-10.237,0-14.143C505.166,463.787,498.834,463.787,494.929,467.691z"/>
<path d="M494.929,360.837c-8.504,8.504-20.479,11.464-31.405,8.891l0.806-1.644C495.516,304.452,512,233.362,512,162.5
	c0-5.522-4.477-10-10-10h-54c-5.523,0-10,4.478-10,10v10.541c0,11.119-0.512,22.228-1.515,33.285
	c-19.61,19.155-42.095,34.33-66.485,45.097V193.5h6.795c7.318,0,14.047-3.677,18-9.837c3.953-6.159,4.492-13.809,1.443-20.462
	l-15.229-33.226c-2.244-4.895-6.227-8.66-11.009-10.721V88.5v-32v-32c0-5.522-4.477-10-10-10H256c-5.523,0-10,4.478-10,10v64
	c0,5.522,4.477,10,10,10h94v19H216c-5.523,0-10,4.478-10,10c0,5.522,4.477,10,10,10h145.567c0.541,0,1.036,0.317,1.261,0.81
	l15.229,33.225c0.078,0.171,0.316,0.689-0.093,1.328c-0.41,0.638-0.98,0.638-1.168,0.638H46.62c-0.188,0-0.758,0-1.167-0.638
	c-0.409-0.639-0.171-1.157-0.093-1.327l15.229-33.227c0.225-0.491,0.72-0.809,1.261-0.809H130c5.523,0,10-4.478,10-10
	c0-5.522-4.477-10-10-10H61.848c-8.337,0-15.969,4.897-19.442,12.476l-15.229,33.227c-3.049,6.653-2.51,14.302,1.443,20.462
	c3.952,6.159,10.681,9.836,18,9.836H54v77H10c-5.523,0-10,4.478-10,10v7.382c0,22.319,7.069,43.683,20.113,61.403
	c-6.345,2.652-12.175,6.542-17.184,11.552c-3.905,3.905-3.905,10.237,0,14.143c3.905,3.904,10.237,3.904,14.142,0
	c6.325-6.325,14.734-9.809,23.679-9.809s17.354,3.483,23.679,9.809c20.854,20.854,54.788,20.854,75.642,0
	c6.325-6.325,14.734-9.809,23.679-9.809s17.354,3.483,23.679,9.809c20.854,20.854,54.788,20.854,75.642,0
	c6.325-6.325,14.734-9.809,23.679-9.809s17.354,3.483,23.679,9.809c20.854,20.854,54.788,20.854,75.642,0
	c6.325-6.325,14.734-9.809,23.679-9.809s17.354,3.483,23.679,9.809c10.427,10.427,24.124,15.641,37.821,15.641
	s27.394-5.214,37.821-15.641c3.905-3.905,3.906-10.237,0-14.143C505.166,356.934,498.834,356.933,494.929,360.837z M266,78.5v-44h84
	v12h-40.25c-5.523,0-10,4.478-10,10s4.477,10,10,10H350v12H266z M350,193.5v65.627c-22.627,7.484-46.555,11.373-71.081,11.373
	h-65.172v-77H350z M74,193.5h119.747v77H74V193.5z M371.929,360.837c-13.057,13.058-34.302,13.057-47.358,0
	c-10.103-10.103-23.534-15.666-37.821-15.666s-27.719,5.563-37.821,15.666c-13.057,13.058-34.301,13.057-47.358,0
	c-10.103-10.103-23.534-15.666-37.821-15.666s-27.719,5.563-37.821,15.666c-13.057,13.058-34.301,13.057-47.358,0
	c-9.636-9.636-22.304-15.131-35.852-15.618c-2.598-2.765-4.992-5.676-7.168-8.719H99.05c5.523,0,10-4.478,10-10s-4.477-10-10-10
	H25.016c-3.001-8.266-4.7-17.023-4.976-26h258.879c32.414,0,64.033-6.289,93.979-18.694c21.59-8.942,41.538-20.763,59.584-35.244
	c-6.729,38.615-19.536,76.139-37.988,110.812C386.058,349.871,378.325,354.441,371.929,360.837z M417.779,345.768
	C444.123,292.204,458,232.771,458,173.041V172.5h33.886c-1.47,64.499-17.131,128.867-45.515,186.783l-0.137,0.28
	C438.269,352.118,428.417,347.36,417.779,345.768z"/>
<path d="M173,137.5c2.63,0,5.21-1.07,7.07-2.931c1.86-1.859,2.93-4.439,2.93-7.069c0-2.63-1.07-5.21-2.93-7.07s-4.44-2.93-7.07-2.93
	s-5.21,1.069-7.07,2.93c-1.86,1.86-2.93,4.44-2.93,7.07c0,2.63,1.07,5.21,2.93,7.069C167.79,136.43,170.37,137.5,173,137.5z"/>
<path d="M131.92,316.5h-0.133c-5.523,0-10,4.478-10,10s4.477,10,10,10h0.133c5.523,0,10-4.478,10-10S137.443,316.5,131.92,316.5z"/>
<g>
</g>
<g>
</g>
<g>
</g>
<g>
</g>
<g>
</g>
<g>
</g>
<g>
</g>
<g>
</g>
<g>
</g>
<g>
</g>
<g>
</g>
<g>
</g>
<g>
</g>
<g>
</g>
<g>
</g>
</svg>
