<?xml version="1.0" encoding="iso-8859-1"?>
<!-- Generator: Adobe Illustrator 19.0.0, SVG Export Plug-In . SVG Version: 6.00 Build 0)  -->
<svg version="1.1" id="Capa_1" xmlns="http://www.w3.org/2000/svg" xmlns:xlink="http://www.w3.org/1999/xlink" x="0px" y="0px"
	 viewBox="0 0 512.001 512.001" style="enable-background:new 0 0 512.001 512.001;" xml:space="preserve">
<path style="fill:#D8D8E4;" d="M176.182,176.122C114.551,237.754,79.37,319.033,57.441,400.283l54.44,54.44
	c42.727-11.532,85.463-26.728,125.345-47.509c0.15-0.078,0.301-0.157,0.451-0.235c35.787-18.695,69.266-41.898,98.365-70.997
	c61.631-61.631,96.613-143.11,118.541-224.361l-54.24-54.24C319.092,79.309,237.813,114.491,176.182,176.122z"/>
<g>
	<path style="fill:#B28A67;" d="M500.34,62.128l-50.519-50.519c-2.148-2.148-5.629-2.148-7.775,0l-43.738,43.738l58.295,58.295
		l43.738-43.738C502.486,67.756,502.486,64.274,500.34,62.128z"/>
	<path style="fill:#B28A67;" d="M113.915,456.757l-58.51-58.51l-43.738,43.738c-2.148,2.148-2.148,5.629,0,7.775l50.572,50.572
		c2.237,2.237,5.864,2.237,8.1,0L113.915,456.757z"/>
</g>
<circle style="fill:#FFC66C;" cx="342.048" cy="170.014" r="59.987"/>
<circle style="fill:#FF6E37;" cx="342.048" cy="170.014" r="19.996"/>
<circle style="fill:#A0E557;" cx="215.395" cy="215.455" r="28.854"/>
<circle style="fill:#D8FB93;" cx="255.996" cy="256.056" r="28.854"/>
<g>
	<circle style="fill:#A0E557;" cx="200.138" cy="271.463" r="28.854"/>
	<circle style="fill:#A0E557;" cx="296.588" cy="296.647" r="28.854"/>
</g>
<g>
	
		<ellipse transform="matrix(-0.7071 -0.7071 0.7071 -0.7071 -23.562 688.6343)" style="fill:#FFC66C;" cx="130.84" cy="349.197" rx="22.657" ry="36.912"/>
	
		<ellipse transform="matrix(-0.7071 -0.7071 0.7071 -0.7071 8.4458 765.913)" style="fill:#FFC66C;" cx="162.849" cy="381.207" rx="22.657" ry="36.912"/>
</g>
<path d="M233.021,398.129l-0.417,0.218c-4.897,2.552-6.798,8.59-4.245,13.487c1.783,3.42,5.267,5.379,8.874,5.379
	c1.557,0,3.136-0.364,4.612-1.134l0.484-0.253c4.887-2.57,6.765-8.616,4.194-13.503
	C243.953,397.437,237.908,395.559,233.021,398.129z"/>
<path d="M507.409,55.057L507.409,55.057L456.891,4.54C453.964,1.612,450.073,0,445.932,0s-8.032,1.613-10.957,4.539l-43.738,43.737
	c-0.492,0.492-0.924,1.032-1.299,1.607c-95.033,26.653-167.334,65.676-220.827,119.17c-53.493,53.495-92.515,125.795-119.17,220.827
	c-0.574,0.375-1.114,0.806-1.606,1.298L4.598,434.915c-6.041,6.041-6.041,15.871,0,21.915l50.572,50.571
	c3.066,3.065,7.093,4.599,11.12,4.599c4.026,0,8.054-1.534,11.12-4.599l43.575-43.575c0.492-0.492,0.923-1.031,1.297-1.604
	c29.361-8.239,56.835-17.76,81.764-28.348c5.082-2.159,7.452-8.028,5.294-13.11c-2.159-5.082-8.028-7.453-13.11-5.294
	c-24.721,10.499-52.076,19.934-81.386,28.074L68.618,397.32c25.72-92.658,63.249-162.742,114.634-214.128
	c51.385-51.385,121.469-88.914,214.128-114.634l46.025,46.025c-25.811,93.017-63.275,163.169-114.434,214.327
	c-19.082,19.083-41.193,36.551-65.719,51.92c-4.679,2.932-6.096,9.102-3.163,13.78c2.931,4.679,9.101,6.097,13.78,3.163
	c25.801-16.167,49.097-34.579,69.241-54.723c53.276-53.276,92.235-125.65,118.978-221.051c0.56-0.368,1.091-0.798,1.583-1.29
	l43.739-43.737C513.451,70.931,513.451,61.099,507.409,55.057z M66.29,490.243l-44.371-44.37l33.487-33.486l44.371,44.371
	L66.29,490.243z M456.602,99.501l-44.156-44.156l33.486-33.485l44.156,44.155L456.602,99.501z"/>
<path d="M455.716,435.782c-3.881,3.882-9.041,6.02-14.531,6.02s-10.65-2.138-14.531-6.02c-1.875-1.875-4.418-2.928-7.07-2.928
	s-5.195,1.054-7.07,2.928c-3.881,3.882-9.042,6.02-14.531,6.02s-10.65-2.138-14.531-6.02c-1.875-1.875-4.418-2.928-7.07-2.928
	c-2.651,0-5.195,1.054-7.07,2.928c-3.881,3.882-9.041,6.02-14.531,6.02c-5.489,0-10.649-2.138-14.531-6.02
	c-3.905-3.902-10.235-3.902-14.139,0c-3.904,3.904-3.905,10.235,0,14.14c7.658,7.657,17.84,11.875,28.67,11.875
	c7.764,0,15.195-2.167,21.6-6.216c6.407,4.048,13.837,6.216,21.6,6.216c7.763,0,15.194-2.168,21.6-6.216
	c6.407,4.049,13.837,6.216,21.6,6.216c10.831,0,21.013-4.218,28.67-11.875c3.904-3.904,3.904-10.235,0-14.14
	C465.95,431.879,459.621,431.879,455.716,435.782z"/>
<path d="M478.908,382.23c-3.881,3.882-9.041,6.02-14.531,6.02c-5.49,0-10.65-2.138-14.531-6.02c-1.875-1.875-4.418-2.928-7.07-2.928
	c-2.651,0-5.195,1.054-7.07,2.928c-8.012,8.014-21.051,8.014-29.062,0c-3.904-3.903-10.235-3.903-14.14,0
	c-3.904,3.904-3.904,10.235,0,14.14c13.622,13.622,34.605,15.507,50.262,5.654c6.409,4.053,13.842,6.222,21.61,6.222
	c10.831,0,21.013-4.218,28.67-11.875c3.904-3.904,3.904-10.235,0-14.14C489.143,378.326,482.813,378.326,478.908,382.23z"/>
<path d="M57.014,98.113c7.764,0,15.195-2.167,21.6-6.216c6.407,4.048,13.837,6.216,21.6,6.216c7.764,0,15.195-2.167,21.6-6.216
	c6.407,4.049,13.837,6.216,21.6,6.216c10.831,0,21.013-4.217,28.671-11.875c3.904-3.904,3.904-10.235,0-14.14
	c-3.904-3.903-10.235-3.903-14.14,0c-3.881,3.882-9.042,6.02-14.531,6.02c-5.49,0-10.65-2.138-14.531-6.02
	c-1.875-1.875-4.418-2.928-7.07-2.928s-5.195,1.054-7.07,2.928c-3.881,3.882-9.042,6.02-14.531,6.02s-10.65-2.138-14.531-6.02
	c-1.875-1.875-4.418-2.928-7.07-2.928s-5.195,1.054-7.07,2.928c-3.881,3.882-9.041,6.02-14.531,6.02
	c-5.489,0-10.649-2.138-14.531-6.02c-3.905-3.903-10.235-3.903-14.139,0c-3.904,3.904-3.905,10.235,0,14.14
	C36.003,93.895,46.185,98.113,57.014,98.113z"/>
<path d="M31.659,147.549c7.764,0,15.195-2.167,21.6-6.216c6.407,4.048,13.837,6.216,21.6,6.216s15.194-2.168,21.6-6.216
	c6.407,4.049,13.837,6.216,21.6,6.216c10.831,0,21.013-4.218,28.67-11.876c3.904-3.904,3.904-10.235,0-14.14
	c-3.904-3.903-10.235-3.903-14.139,0c-3.881,3.882-9.041,6.02-14.531,6.02s-10.65-2.138-14.531-6.02
	c-1.875-1.875-4.418-2.928-7.07-2.928s-5.195,1.054-7.07,2.928c-3.881,3.882-9.042,6.02-14.531,6.02s-10.65-2.138-14.531-6.02
	c-1.875-1.875-4.418-2.928-7.07-2.928s-5.195,1.054-7.07,2.928c-3.881,3.882-9.041,6.02-14.531,6.02
	c-5.489,0-10.649-2.138-14.531-6.02c-3.905-3.902-10.235-3.903-14.139,0c-3.904,3.904-3.905,10.235,0,14.14
	C10.646,143.331,20.829,147.549,31.659,147.549z"/>
<path d="M384.729,137.861c2.54,0,5.082-0.963,7.031-2.89c3.926-3.883,3.96-10.213,0.077-14.139l-0.286-0.288
	c-3.894-3.915-10.225-3.933-14.139-0.038c-3.915,3.894-3.932,10.224-0.039,14.139l0.248,0.249
	C379.575,136.87,382.152,137.861,384.729,137.861z"/>
<path d="M353.861,101.027c-22.364-3.813-45.28,3.476-61.304,19.498c-27.286,27.287-27.286,71.687,0,98.974
	c13.219,13.218,30.793,20.498,49.488,20.498c18.693,0,36.268-7.279,49.487-20.498c15.257-15.257,22.551-36.308,20.011-57.758
	c-0.65-5.484-5.622-9.4-11.105-8.753c-5.483,0.649-9.402,5.621-8.752,11.104c1.816,15.328-3.394,30.369-14.292,41.266
	C367.951,214.8,355.397,220,342.045,220c-13.353,0-25.907-5.199-35.348-14.642c-19.491-19.491-19.491-51.204,0-70.695
	c11.446-11.446,27.817-16.65,43.804-13.927c5.446,0.936,10.609-2.731,11.537-8.175C362.964,107.12,359.304,101.954,353.861,101.027z
	"/>
<path d="M312.051,170.012c0,16.538,13.455,29.994,29.994,29.994s29.994-13.455,29.994-29.994s-13.455-29.994-29.994-29.994
	S312.051,153.474,312.051,170.012z M352.042,170.012c0,5.513-4.485,9.998-9.998,9.998s-9.998-4.485-9.998-9.998
	c0-5.513,4.485-9.998,9.998-9.998S352.042,164.499,352.042,170.012z"/>
<path d="M234.95,288.686c6.069,3.927,13.291,6.218,21.043,6.218c0.599,0,1.195-0.018,1.788-0.045
	c-0.027,0.593-0.045,1.188-0.045,1.788c0,21.423,17.429,38.852,38.852,38.852s38.852-17.429,38.852-38.852
	s-17.429-38.852-38.852-38.852c-0.599,0-1.195,0.018-1.788,0.045c0.027-0.593,0.045-1.188,0.045-1.788
	c0-21.423-17.429-38.852-38.852-38.852c-0.599,0-1.194,0.018-1.787,0.045c0.027-0.593,0.045-1.188,0.045-1.788
	c0-21.423-17.429-38.852-38.852-38.852s-38.852,17.429-38.852,38.852c0,7.823,2.333,15.109,6.327,21.213
	c-12.781,6.369-21.587,19.568-21.587,34.792c0,21.423,17.429,38.852,38.852,38.852C215.377,310.314,228.588,301.489,234.95,288.686z
	 M296.586,277.789c10.397,0,18.856,8.459,18.856,18.856s-8.459,18.856-18.856,18.856s-18.856-8.459-18.856-18.856
	c0-4.303,1.465-8.261,3.9-11.438c1.247-1.097,2.422-2.272,3.518-3.518C288.325,279.254,292.283,277.789,296.586,277.789z
	 M255.991,237.195c10.397,0,18.856,8.459,18.856,18.856c0,4.303-1.465,8.261-3.9,11.438c-1.247,1.097-2.421,2.272-3.518,3.518
	c-3.176,2.436-7.135,3.9-11.438,3.9c-10.397,0-18.856-8.459-18.856-18.856c0-4.303,1.465-8.26,3.899-11.438
	c1.247-1.098,2.421-2.273,3.519-3.519C247.731,238.66,251.689,237.195,255.991,237.195z M215.398,196.602
	c10.397,0,18.856,8.459,18.856,18.856c0,4.303-1.465,8.261-3.9,11.438c-1.247,1.098-2.421,2.273-3.518,3.518
	c-3.176,2.435-7.135,3.9-11.438,3.9c-10.397,0-18.856-8.459-18.856-18.856C196.542,205.061,205.001,196.602,215.398,196.602z
	 M200.137,290.318c-10.397,0-18.856-8.459-18.856-18.856s8.459-18.856,18.856-18.856c10.397,0,18.856,8.459,18.856,18.856
	S210.535,290.318,200.137,290.318z"/>
<path d="M129.681,414.376c5.002,5.002,11.761,7.41,19.244,7.41c11.887,0,25.603-6.077,37.016-17.49
	c8.259-8.26,14.089-18.165,16.417-27.891c2.704-11.299,0.394-21.639-6.338-28.37c-6.264-6.263-15.282-8.448-25.028-6.943
	c1.552-9.991-0.909-18.995-6.977-25.063l0,0c-12.947-12.945-37.66-8.519-56.261,10.08c-8.259,8.26-14.089,18.165-16.417,27.891
	c-2.703,11.298-0.394,21.638,6.338,28.369c4.887,4.887,11.675,7.442,19.351,7.442c1.855,0,3.766-0.167,5.711-0.468
	C121.232,399.091,123.417,408.111,129.681,414.376z M181.883,362.174c1.679,1.679,2.063,5.259,1.03,9.577
	c-1.459,6.096-5.508,12.804-11.11,18.405c-11.618,11.618-24.333,13.728-27.982,10.08c-3.56-3.559-1.613-15.74,9.262-27.116
	c0.285-0.276,0.573-0.547,0.855-0.829c0.346-0.346,0.682-0.699,1.019-1.051c7.942-7.515,16.25-10.697,21.724-10.697
	C179.01,360.543,180.826,361.117,181.883,362.174z M121.392,369.261c-4.318,1.033-7.898,0.647-9.577-1.031
	c-1.679-1.679-2.063-5.258-1.03-9.576c1.459-6.096,5.508-12.804,11.11-18.405c8.254-8.254,17.062-11.711,22.78-11.711
	c2.33,0,4.145,0.574,5.202,1.631c3.563,3.563,1.609,15.766-9.297,27.153c-0.273,0.264-0.549,0.521-0.819,0.792
	c-0.37,0.37-0.725,0.747-1.084,1.122C133.315,364.274,127.087,367.898,121.392,369.261z"/>
<path d="M238.948,335.454c1.86-1.86,2.929-4.439,2.929-7.069c0-2.639-1.07-5.209-2.929-7.078c-1.86-1.859-4.439-2.919-7.069-2.919
	c-2.639,0-5.209,1.061-7.079,2.919c-1.86,1.87-2.919,4.449-2.919,7.078s1.06,5.199,2.919,7.069c1.87,1.86,4.449,2.929,7.079,2.929
	S237.077,337.315,238.948,335.454z"/>
<path d="M268.741,350.772c1.86-1.86,2.929-4.439,2.929-7.069c0-2.639-1.07-5.209-2.929-7.078c-1.86-1.86-4.439-2.919-7.069-2.919
	c-2.639,0-5.209,1.06-7.079,2.919c-1.86,1.87-2.919,4.439-2.919,7.078c0,2.629,1.06,5.209,2.919,7.069
	c1.87,1.859,4.449,2.929,7.079,2.929S266.871,352.631,268.741,350.772z"/>
<path d="M237.678,349.121c-2.639,0-5.209,1.06-7.069,2.929c-1.87,1.86-2.929,4.43-2.929,7.069c0,2.629,1.06,5.209,2.929,7.069
	c1.86,1.859,4.429,2.929,7.069,2.929c2.629,0,5.199-1.07,7.069-2.929c1.86-1.87,2.929-4.439,2.929-7.069
	c0-2.639-1.07-5.209-2.929-7.069C242.887,350.181,240.307,349.121,237.678,349.121z"/>
<g>
</g>
<g>
</g>
<g>
</g>
<g>
</g>
<g>
</g>
<g>
</g>
<g>
</g>
<g>
</g>
<g>
</g>
<g>
</g>
<g>
</g>
<g>
</g>
<g>
</g>
<g>
</g>
<g>
</g>
</svg>
