<?xml version="1.0" encoding="iso-8859-1"?>
<!-- Generator: Adobe Illustrator 19.0.0, SVG Export Plug-In . SVG Version: 6.00 Build 0)  -->
<svg version="1.1" id="Capa_1" xmlns="http://www.w3.org/2000/svg" xmlns:xlink="http://www.w3.org/1999/xlink" x="0px" y="0px"
	 viewBox="0 0 512 512" style="enable-background:new 0 0 512 512;" xml:space="preserve">
<path style="fill:#F26B5C;" d="M483.825,247.67c27.447,26.567,21.879,70.266-6.497,91.985
	c-30.645,23.459-65.408,34.173-101.741,36.512l-0.02-0.36c-25.877-73.724-25.877-154.055,0-227.769l0.24-1.189
	c19.71,4.058,38.751,11.075,56.443,21.689c22.509,13.503,13.493,42.269,50.356,77.942L483.825,247.67z"/>
<path style="fill:#FFFFFF;" d="M375.807,146.849l-0.24,1.189c-25.877,73.714-25.877,154.045,0,227.769l0.02,0.36
	c-13.214,0.85-26.627,0.59-40.14-0.57c-25.777-75.533-25.727-157.493,0.14-233.007v-0.12
	C349.16,142.741,362.634,144.13,375.807,146.849z"/>
<path style="fill:#F26B5C;" d="M335.587,142.471c-0.23-0.01-0.47-0.01-0.71-0.01c-6.457-94.594-99.242-93.884-99.242-36.322
	c0,24.598,16.682,26.807,19.561,41.17c-0.7,1.959-1.389,3.928-2.049,5.897c-22.559,66.837-22.519,139.242,0.11,206.06
	c0.62,1.839,1.269,3.688,1.929,5.517c-2.949,14.283-19.55,16.532-19.55,41.07c0,56.233,89.806,58.212,99.931-29.895
	c-0.04-0.12-0.08-0.24-0.12-0.36c-25.777-75.533-25.727-157.493,0.14-233.007L335.587,142.471L335.587,142.471z"/>
<path style="fill:#FFFFFF;" d="M253.147,153.206c-22.559,66.837-22.519,139.242,0.11,206.06
	c-12.684-3.728-25.228-7.886-37.512-12.294c-0.13-0.04-0.26-0.08-0.39-0.14l0.29-0.81c-25.458-57.272-25.458-122.64,0-179.912
	l-0.22-0.56c0.15-0.06,0.31-0.12,0.47-0.19C227.869,160.732,240.353,156.614,253.147,153.206z"/>
<path style="fill:#F26B5C;" d="M215.645,346.022c-25.458-57.272-25.458-122.64,0-179.912l-0.22-0.56c0.15-0.06,0.31-0.12,0.47-0.19
	l-0.27-0.67c-0.75-21.43-18.361-38.561-39.961-38.561c-22.079,0-39.981,7.906-39.981,29.985c0,12.904,10.485,31.495,19.99,38.771
	c-0.12,0.19-0.24,0.38-0.35,0.57c-24.098,39.191-24.008,88.657,0.26,127.778c0.03,0.05,0.06,0.09,0.09,0.14
	c-37.782,41.47-14.473,62.49,19.99,62.49c21.599,0,39.211-17.132,39.961-38.551l0.12-0.34c-0.13-0.04-0.26-0.08-0.39-0.14
	L215.645,346.022z"/>
<path style="fill:#FFFFFF;" d="M155.324,195.455c-24.098,39.191-24.008,88.657,0.26,127.778
	c-14.043-5.947-27.407-11.804-39.891-17.192c-22.079-22.079-22.079-57.882,0-79.961
	C125.799,215.975,139.322,205.471,155.324,195.455z"/>
<path style="fill:#F26B5C;" d="M78.442,194.826l37.252,31.255c-22.079,22.079-22.079,57.882,0,79.961l-39.261,33.264
	c-4.258,4.268-10.085,6.697-16.112,6.717c-18.621,0.04-35.553-10.775-43.359-27.677c-1.486-3.954-7.216-12.339-7.216-26.097v-58.512
	C9.745,193.942,56.64,173.023,78.442,194.826z"/>
<path d="M421.795,236.076c-5.517,0-9.995,4.478-9.995,9.995c0,5.517,4.478,9.995,9.995,9.995s9.995-4.478,9.995-9.995
	C431.79,240.554,427.312,236.076,421.795,236.076z"/>
<path d="M280.863,196.095c-5.517,0-9.995,4.478-9.995,9.995s4.478,9.995,9.995,9.995s9.995-4.478,9.995-9.995
	S286.381,196.095,280.863,196.095z"/>
<path d="M286.736,246.387c0.18-5.517-4.147-10.136-9.664-10.315c-5.519-0.186-10.136,4.147-10.316,9.664
	c-0.655,20.113,0.158,40.382,2.419,60.247c0.62,5.451,5.537,9.425,11.061,8.802c5.484-0.625,9.425-5.576,8.801-11.061
	C286.884,284.821,286.111,265.531,286.736,246.387z"/>
<path d="M489.806,239.298c-18.179-17.592-24.076-32.972-29.279-46.541c-4.882-12.73-9.491-24.755-22.885-32.789
	c-17.921-10.753-37.963-18.46-59.564-22.907c-10.824-2.234-22.191-3.656-33.882-4.272c-3-22.949-11.29-42.104-24.24-55.763
	c-12.924-13.633-30.097-21.114-47.215-20.537c-27.586,0.94-46.851,21.357-46.851,49.65c0,23.809,13.294,31.925,18.108,39.309
	c-6.712,1.932-13.441,4.08-20.142,6.429c-6.098-20.801-25.21-35.743-47.942-35.743c-31.294,0-49.976,14.946-49.976,39.981
	c0,12.184,6.678,26.786,14.673,37.172c-9.328,6.348-17.794,12.908-25.059,19.419L85.428,187.43
	c-6.945-6.795-15.765-10.787-24.898-11.254C26.924,174.498,0,201.383,0,233.737v58.512c0,16.428,6.722,26.479,8.138,30.288
	c9.398,20.351,29.927,33.483,52.343,33.481c0.04,0,0.084,0,0.124,0c8.472-0.028,16.765-3.423,22.83-9.331l34.236-29.007
	c6.241,2.703,13.732,5.961,22.13,9.574c-15.702,21.388-14.774,36.508-10.652,45.839c6.392,14.469,23.437,22.767,46.765,22.767
	c22.67,0,41.737-14.859,47.888-35.567c6.826,2.329,13.522,4.502,20.045,6.504c-4.97,7.315-17.957,15.532-17.957,39.057
	c0,27.647,18.947,48.041,46.077,49.595c30.898,1.78,63.584-21.651,72.412-69.238c5.285,0.288,10.51,0.45,15.638,0.45
	c45.554,0,87.895-11.706,123.636-39.067c16.71-12.79,26.998-32.265,28.224-53.433c1.186-20.447-6.22-39.508-20.823-53.643
	L489.806,239.298z M162.738,315.297c-20.417-34.996-20.363-77.661,0.182-112.629c11.03-6.782,23.034-13.178,35.499-18.933
	c-15.589,47.45-15.408,98.865,0.529,146.227C187.826,325.672,175.94,320.855,162.738,315.297z M223.82,339.144
	c-22.604-52.917-22.63-113.038-0.078-165.972c4.871-1.816,9.767-3.524,14.669-5.115c-7.911,28.715-11.916,58.297-11.899,88.192
	c0.016,29.784,4.02,59.253,11.9,87.853C233.62,342.533,228.75,340.878,223.82,339.144z M261.362,351.131
	c-19.617-61.335-19.675-128.246-0.159-189.625c20.916-5.251,41.344-8.235,60.932-8.924c-10.414,34.556-15.708,70.314-15.73,106.498
	c-0.021,35.641,5.065,70.872,15.114,104.907C302.725,361.491,282.878,357.248,261.362,351.131z M273.423,76.467
	c20.883-0.692,44.448,16.671,50.546,56.061c-19.385,0.501-39.468,3.104-59.978,7.768c-0.148-0.207-0.308-0.406-0.472-0.602
	c-6.005-14.355-17.639-15.185-17.639-33.556C245.88,84.931,260.717,76.9,273.423,76.467z M175.914,136.124
	c14.168,0,25.994,9.669,29.158,22.905c-16.575,6.813-32.753,14.822-47.502,23.522c-5.914-7.091-11.641-18.608-11.641-26.436
	C145.929,151.17,145.929,136.124,175.914,136.124z M70.222,331.679c-0.978,0.828-4.035,4.329-9.672,4.348c-0.027,0-0.054,0-0.081,0
	c-14.632,0-28.043-8.578-34.179-21.865c-1.598-4.168-6.299-10.712-6.299-21.913v-58.512c0-21.129,17.568-38.677,39.531-37.595
	c8.551,0.437,9.965,4.859,42.329,31.162c-16.568,23.09-16.559,54.473,0.028,77.554L70.222,331.679z M121.776,297.674
	c-16.893-18.231-16.488-46.803,1.235-64.526c2.929-2.929,6.02-5.739,9.146-8.405c-3.043,11.238-4.608,22.88-4.585,34.647
	c0.03,15.126,2.666,30.041,7.719,44.139C128.727,300.683,125.777,299.403,121.776,297.674z M175.914,375.868
	c-14.388,0-25.568-4.261-28.48-10.854c-2.907-6.58,1.225-17.217,11.374-29.686c17.097,7.151,32.05,13.072,46.105,18.252
	C201.537,366.495,189.864,375.868,175.914,375.868z M273.109,435.49c-12.561-0.72-27.229-8.913-27.229-29.637
	c0-18.129,11.542-19.358,17.533-33.28c0.032-0.036,0.059-0.076,0.09-0.113c21.605,5.814,41.688,9.785,60.837,12.026
	C316.876,421.027,293.303,436.653,273.109,435.49z M343.096,366.116c-22.101-69.061-22.133-144.289-0.09-213.374
	c6.838,0.356,13.539,1.016,20.061,1.976c-21.816,68.704-22.079,143.086-0.781,211.933
	C356.037,366.707,349.626,366.528,343.096,366.116z M491.921,293.002c-0.891,15.354-8.333,29.466-20.42,38.716
	c-24.89,19.055-54.67,30.409-88.603,33.829c-21.852-66.992-21.889-139.873-0.117-206.878c16.06,4.129,31.022,10.309,44.576,18.441
	c7.149,4.289,9.89,10.768,14.504,22.804c5.352,13.96,12.684,33.08,34.013,53.722l1.247,1.216
	C487.509,264.906,492.764,278.454,491.921,293.002z"/>
<g>
</g>
<g>
</g>
<g>
</g>
<g>
</g>
<g>
</g>
<g>
</g>
<g>
</g>
<g>
</g>
<g>
</g>
<g>
</g>
<g>
</g>
<g>
</g>
<g>
</g>
<g>
</g>
<g>
</g>
</svg>
