<svg height="511pt" viewBox="1 1 511.9995 511" width="511pt" xmlns="http://www.w3.org/2000/svg"><path d="m219.664062 58.5c0 26.507812-21.488281 48-48 48-26.507812 0-48-21.492188-48-48 0-26.511719 21.492188-48 48-48 26.511719 0 48 21.488281 48 48zm0 0" fill="#ffb954"/><path d="m502 502.5c-69.574219-46.058594-154.421875-73.113281-246-73.113281s-176.425781 27.054687-246 73.113281zm0 0" fill="#36d28f"/><path d="m492.621094 90.800781-16.917969-7.273437c-6.183594-2.65625-12.839844-4.027344-19.570313-4.027344-16.90625 0-32.644531 8.617188-41.75 22.859375l-1.039062 1.621094c-10.238281 16.011719-15.675781 34.617187-15.675781 53.621093 0 17.433594 4.332031 34.597657 12.617187 49.941407l16.769532 31.078125c9.277343 17.1875 5.15625 38.527344-9.851563 51.027344-14.117187 11.757812-34.332031 12.699218-49.480469 2.300781l-63.449218-43.539063c-24.277344-16.660156-53.035157-25.578125-82.480469-25.578125-42.40625 0-82.714844 18.46875-110.40625 50.589844l-18.003907 20.890625c-14.46875 16.777344-28.03125 34.316406-40.636718 52.535156l-30.824219 44.546875c-7.761719 11.21875-11.921875 24.539063-11.921875 38.183594 0 24.953125 13.847656 47.847656 35.945312 59.433594 16.894532 8.859375 35.6875 13.488281 54.761719 13.488281h187.292969c-17.566406-18.105469-40.171875-30.503906-64.875-35.585938l-1.023438-.210937c-13.589843-2.796875-27.425781-4.203125-41.296874-4.203125h-61.464844c-16.355469 0-30.90625-10.386719-36.222656-25.855469-4.851563-14.125-1.097657-29.777343 9.632812-40.164062l39.5-38.230469 1.585938-13.417969v9.589844c0 20.988281 14.398437 39.234375 34.808593 44.121094v32.203125h37.019531v-28.582032h58.738282v27.21875h38.824218v-27.21875h44.53125c38.597657 0 75.210938-17.121093 99.953126-46.742187 19.570312-23.425781 30.289062-52.976563 30.289062-83.496094v-9.140625c0-19.523437-4.160156-38.820312-12.195312-56.613281l-14.992188-33.175781c-1.636719-3.625-2.480469-7.554688-2.480469-11.53125v-4.96875c0-15.460938 12.535157-28 28-28h10.167969c8.558594 0 15.5-6.9375 15.5-15.5v-7.957032c0-6.191406-3.6875-11.792968-9.378906-14.238281zm0 0" fill="#b3b6c3"/><path d="m171.667969 116.5c31.980469 0 58-26.019531 58-58s-26.019531-58-58-58-58 26.019531-58 58 26.015625 58 58 58zm0-96c20.953125 0 38 17.046875 38 38s-17.046875 38-38 38-38-17.046875-38-38 17.046875-38 38-38zm0 0"/><path d="m166.074219 223.140625-.121094.042969c-5.152344 1.992187-7.679687 7.769531-5.6875 12.917968 1.53125 3.964844 5.332031 6.390626 9.351563 6.390626 1.203124 0 2.429687-.21875 3.617187-.679688l.121094-.046875c5.152343-1.988281 7.675781-7.765625 5.6875-12.917969-1.992188-5.148437-7.816407-7.699218-12.96875-5.707031zm0 0"/><path d="m476.332031 138.5h10.167969c14.058594 0 25.5-11.441406 25.5-25.5v-7.957031c0-10.203125-6.058594-19.398438-15.429688-23.429688l-16.917968-7.273437c-7.472656-3.210938-15.386719-4.839844-23.519532-4.839844-20.417968 0-39.175781 10.269531-50.175781 27.472656l-1.039062 1.621094c-11.285157 17.652344-17.25 38.058594-17.25 59.007812 0 19.03125 4.777343 37.945313 13.816406 54.691407l16.769531 31.078125c6.988282 12.949218 3.855469 29.179687-7.453125 38.59375-10.628906 8.851562-26.019531 9.566406-37.421875 1.742187l-63.449218-43.542969c-26.054688-17.878906-56.53125-27.332031-88.136719-27.332031-6.023438 0-12.105469.355469-18.074219 1.050781-5.484375.640626-9.414062 5.609376-8.773438 11.09375.640626 5.484376 5.628907 9.410157 11.09375 8.773438 5.203126-.609375 10.503907-.917969 15.753907-.917969 27.546875 0 54.109375 8.238281 76.820312 23.820313l63.449219 43.542968c8.6875 5.960938 18.777344 8.910157 28.847656 8.90625 11.671875 0 23.308594-3.957031 32.691406-11.769531 18.589844-15.480469 23.742188-42.167969 12.253907-63.457031l-16.773438-31.082031c-7.46875-13.835938-11.414062-29.464844-11.414062-45.191407 0-17.125 4.875-33.804687 14.101562-48.234374l1.039063-1.621094c7.304687-11.425782 19.765625-18.246094 33.324218-18.246094 5.402344 0 10.660157 1.082031 15.621094 3.214844l16.917969 7.273437c2.019531.871094 3.328125 2.851563 3.328125 5.054688v7.957031c0 3.03125-2.46875 5.5-5.5 5.5h-14.167969c-1.449219 0-2.824219.316406-4.066406.871094-17.089844 3.707031-29.933594 18.945312-29.933594 37.128906v4.96875c0 5.429688 1.132813 10.695312 3.371094 15.644531l14.988281 33.175781c7.503906 16.609376 11.308594 34.273438 11.308594 52.496094v9.140625c0 28.125-9.929688 55.5-27.960938 77.085938-22.910156 27.425781-56.542968 43.15625-92.28125 43.15625h-34.53125v-47.335938c0-5.519531-4.480468-10-10-10-5.523437 0-10 4.480469-10 10v74.554688h-18.824218v-74.554688c0-5.519531-4.476563-10-10-10-5.523438 0-10 4.480469-10 10v47.335938h-38.734375v-47.335938c0-5.519531-4.476563-10-10-10-5.523438 0-10 4.480469-10 10v75.917969h-17.023438v-22.207031c0-4.625-3.171875-8.648438-7.671875-9.726563-15.976562-3.820312-27.132812-17.964844-27.132812-34.394531v-9.589844c0-5.523437-4.480469-10-10-10-5.523438 0-10 4.476563-10 10v7.644531l-38.042969 36.816407c-13.457031 13.027343-18.21875 32.886719-12.136719 50.597656 6.699219 19.503906 25.058594 32.609375 45.679688 32.609375h61.464844c13.171874 0 26.386718 1.34375 39.277343 3.996094l1.027344.210937c13.972656 2.875 27.128906 8.234375 38.953125 15.792969h-159.355469c-17.386719 0-34.71875-4.269531-50.117187-12.34375-18.867188-9.894531-30.589844-29.273438-30.589844-50.578125 0-11.664063 3.507812-22.902344 10.144531-32.496094l30.824219-44.546875c12.355469-17.859375 25.808594-35.25 39.984375-51.695312l18.007813-20.886719c6.445312-7.476563 13.722656-14.261719 21.628906-20.160156 4.425781-3.300781 5.335937-9.570313 2.03125-13.996094-3.304688-4.425781-9.566406-5.335937-13.996094-2.03125-9.070312 6.769531-17.417969 14.550781-24.8125 23.128906l-18.007812 20.886719c-14.632813 16.980469-28.523438 34.9375-41.285157 53.375l-30.820312 44.546875c-8.960938 12.953125-13.699219 28.125-13.699219 43.875 0 20.445313 8 39.570313 21.773438 53.726563-5.855469 3.496093-11.644532 7.117187-17.292969 10.855468-3.679688 2.4375-5.328125 6.996094-4.054688 11.21875 1.269531 4.226563 5.160157 7.121094 9.574219 7.121094h492c4.414062 0 8.304688-2.894531 9.574219-7.117188 1.273437-4.226562-.375-8.785156-4.054688-11.222656-58.183593-38.519531-124.480469-62.726562-194.292969-71.285156v-10.710938h34.53125c41.679688 0 80.910157-18.34375 107.628907-50.332031 21.03125-25.175781 32.613281-57.105469 32.613281-89.90625v-9.140625c0-21.082031-4.402344-41.515625-13.082031-60.730468l-14.988281-33.175782c-1.0625-2.34375-1.597657-4.839844-1.597657-7.410156v-4.96875c0-9.925781 8.074219-18 18-18zm-221.929687 273.664062v7.238282c-12.992188.042968-25.914063.601562-38.734375 1.703125v-8.9375h38.734375zm-154.695313-8.5 28.507813-27.589843c5.675781 13.417969 16.515625 24.238281 30.429687 29.765625v23.78125c-19.480469 4.167968-38.65625 9.605468-57.445312 16.296875-3.875-3.234375-6.902344-7.519531-8.625-12.523438-3.574219-10.40625-.773438-22.078125 7.132812-29.730469zm192.410157 88.835938c-18.542969-17.953125-41.609376-30.160156-66.976563-35.378906l-1.023437-.214844c-14.222657-2.925781-28.792969-4.40625-43.3125-4.40625h-32.289063c34.871094-8.699219 70.863281-13.113281 107.484375-13.113281 74.566406 0 146.503906 18.269531 210.09375 53.113281zm0 0"/></svg>