<?xml version="1.0" encoding="iso-8859-1"?>
<!-- Generator: Adobe Illustrator 19.0.0, SVG Export Plug-In . SVG Version: 6.00 Build 0)  -->
<svg version="1.1" id="Capa_1" xmlns="http://www.w3.org/2000/svg" xmlns:xlink="http://www.w3.org/1999/xlink" x="0px" y="0px"
	 viewBox="0 0 512 512" style="enable-background:new 0 0 512 512;" xml:space="preserve">
<g>
	<polygon style="fill:#36D28F;" points="169.838,177.879 105.351,273.642 169.838,300.833 	"/>
	<polygon style="fill:#36D28F;" points="334.708,177.879 399.194,273.642 334.708,300.833 	"/>
</g>
<path style="fill:#FF5D5D;" d="M334.708,188.732c17.605-18.984,28.374-44.397,28.374-72.33C363.082,57.638,315.444,10,256.679,10
	S150.277,57.638,150.277,116.402c0,27.933,10.769,53.346,28.374,72.33H334.708z"/>
<path style="fill:#FFB9B7;" d="M348.994,154.333c0-50.984-41.331-92.314-92.314-92.314s-92.314,41.331-92.314,92.314H348.994z"/>
<path style="fill:#36D28F;" d="M448,502v-69.907c0-28.595-18.646-53.847-45.975-62.262L336,349.5H176l-66.025,20.331
	C82.646,378.246,64,403.498,64,432.093V502H448z"/>
<polygon style="fill:#FFEFD5;" points="336,349.5 256,459 176,349.5 "/>
<path style="fill:#FFB954;" d="M324,309.5H188c-11.046,0-20,8.954-20,20l0,0c0,11.046,8.954,20,20,20h136c11.046,0,20-8.954,20-20
	l0,0C344,318.454,335.046,309.5,324,309.5z"/>
<path style="fill:#FFC66C;" d="M316,269.5H196c-11.046,0-20,8.954-20,20l0,0c0,11.046,8.954,20,20,20h120c11.046,0,20-8.954,20-20
	l0,0C336,278.454,327.046,269.5,316,269.5z"/>
<path style="fill:#FFEFD5;" d="M256.679,269.504L256.679,269.504c-43.094,0-78.029-34.934-78.029-78.028v-13.992
	c0-28.078,19.187-52.521,46.462-59.189l35.971-8.794l28.779,7.877c26.482,7.249,44.845,31.314,44.845,58.77v15.327
	C334.708,234.569,299.773,269.504,256.679,269.504z"/>
<path d="M304.56,409.28c1.87-1.87,2.93-4.44,2.93-7.07c0-2.641-1.06-5.21-2.93-7.08c-1.86-1.86-4.43-2.92-7.07-2.92
	c-2.63,0-5.21,1.06-7.07,2.92c-1.86,1.87-2.93,4.45-2.93,7.08s1.07,5.2,2.93,7.07c1.86,1.859,4.44,2.93,7.07,2.93
	C300.13,412.21,302.7,411.14,304.56,409.28z"/>
<path d="M477,492h-19v-59.907c0-33.189-21.312-62.052-53.032-71.819l-54.45-16.767c2.219-4.184,3.482-8.95,3.482-14.007
	c0-8.645-3.68-16.443-9.551-21.922l58.631-24.722c2.754-1.161,4.845-3.494,5.698-6.358c0.854-2.865,0.381-5.962-1.289-8.441
	l-56.335-83.656c14.22-19.714,21.928-43.386,21.928-67.997C373.082,52.218,320.864,0,256.679,0S140.277,52.218,140.277,116.402
	c0,21.94,6.125,43.134,17.528,61.443l-60.748,90.21c-1.67,2.479-2.143,5.576-1.289,8.441c0.854,2.864,2.944,5.197,5.698,6.358
	l63.927,26.956c-4.598,5.275-7.393,12.16-7.393,19.69c0,5.057,1.263,9.823,3.482,14.007l-54.45,16.767
	C75.312,370.041,54,398.903,54,432.093V492H35c-5.523,0-10,4.478-10,10s4.477,10,10,10h87.667c5.523,0,10-4.478,10-10
	s-4.477-10-10-10H74v-59.907c0-24.356,15.64-45.537,38.917-52.704l59.213-18.233L247.925,464.9c1.883,2.577,4.883,4.101,8.075,4.101
	c3.192,0,6.192-1.523,8.075-4.101l21.186-28.999c3.258-4.46,2.284-10.716-2.176-13.974c-4.459-3.261-10.717-2.284-13.974,2.175
	L256,442.049L195.691,359.5H316.31l-6.273,8.586c-3.258,4.46-2.284,10.716,2.175,13.974c1.779,1.301,3.845,1.927,5.891,1.927
	c3.083,0,6.125-1.422,8.083-4.102l13.683-18.729l59.213,18.233C422.36,386.556,438,407.736,438,432.093V492H204
	c-5.523,0-10,4.478-10,10s4.477,10,10,10h273c5.523,0,10-4.478,10-10S482.523,492,477,492z M186,289.5c0-5.514,4.486-10,10-10
	h60.372c0.103,0,0.205,0.004,0.308,0.004s0.205-0.003,0.308-0.004H316c3.733,0,6.99,2.06,8.708,5.1v9.801
	c-1.718,3.04-4.974,5.1-8.708,5.1H196C190.486,299.5,186,295.014,186,289.5z M188.651,191.476v-13.992
	c0-23.54,15.97-43.885,38.837-49.475l33.455-8.179l26.28,7.193c22.07,6.041,37.485,26.242,37.485,49.125v1.731v13.596
	c0,37.459-30.435,67.941-67.874,68.024h-0.308C219.085,259.416,188.651,228.935,188.651,191.476z M324.708,260.793
	c-2.757-0.838-5.68-1.293-8.708-1.293h-3.511c4.46-3.666,8.553-7.76,12.219-12.219V260.793z M292.503,107.732l-28.779-7.877
	c-1.639-0.448-3.364-0.472-5.015-0.068l-35.971,8.794c-22.098,5.402-39.562,20.703-48.189,40.515
	c2.713-42.956,38.503-77.077,82.13-77.077c43.139,0,78.608,33.363,82.021,75.638C330.266,128.52,313.562,113.497,292.503,107.732z
	 M200.869,259.5H196c-5.949,0-11.494,1.748-16.162,4.746v-29.868C185.237,244.01,192.391,252.531,200.869,259.5z M178,329.5
	c0-5.514,4.486-10,10-10h8h120h8c5.514,0,10,4.486,10,10s-4.486,10-10,10H188C182.486,339.5,178,335.014,178,329.5z
	 M345.705,285.343c-0.217-1.557-0.551-3.077-0.998-4.548v-70.162l39.405,58.516L345.705,285.343z M256.679,20
	c53.156,0,96.402,43.246,96.402,96.402c0,1.146-0.04,2.288-0.08,3.429c-14.188-39.491-52.008-67.813-96.322-67.813
	s-82.134,28.322-96.322,67.813c-0.04-1.141-0.08-2.282-0.08-3.429C160.277,63.246,203.523,20,256.679,20z M159.838,285.764
	l-39.405-16.615l39.405-58.516V285.764z"/>
<path d="M164.37,492c-2.64,0-5.21,1.069-7.07,2.93c-1.87,1.86-2.94,4.44-2.94,7.07s1.07,5.21,2.94,7.069
	c1.86,1.86,4.43,2.931,7.07,2.931c2.63,0,5.21-1.07,7.07-2.931c1.86-1.859,2.93-4.439,2.93-7.069s-1.07-5.21-2.93-7.07
	C169.57,493.069,167,492,164.37,492z"/>
<g>
</g>
<g>
</g>
<g>
</g>
<g>
</g>
<g>
</g>
<g>
</g>
<g>
</g>
<g>
</g>
<g>
</g>
<g>
</g>
<g>
</g>
<g>
</g>
<g>
</g>
<g>
</g>
<g>
</g>
</svg>
