<svg height="512pt" viewBox="0 -28 512 512" width="512pt" xmlns="http://www.w3.org/2000/svg"><path d="m114.59375 445h-78.09375c-14.636719 0-26.5-11.863281-26.5-26.5v-241c0-14.636719 11.863281-26.5 26.5-26.5h78.09375c14.636719 0 26.5 11.863281 26.5 26.5v241c0 14.636719-11.867188 26.5-26.5 26.5zm0 0" fill="#91def5"/><path d="m466.957031 234.75h-28.785156c19.125 0 34.671875-15.320312 35.035156-34.359375.375-19.644531-16.078125-35.722656-35.726562-35.722656h-90.871094c-16.917969 0-31.039063 11.992187-34.320313 27.941406l.003907-.011719v-117.117187c0-36.164063-29.316407-65.480469-65.480469-65.480469-5.523438 0-10 4.476562-10 10v49.007812c0 55.488282-39.46875 103.132813-93.988281 113.453126l-2.445313.464843.714844 216.054688 31.4375 22.765625c20.867188 15.117187 45.976562 23.253906 71.746094 23.253906h103.449218l-.683593-.054688c.355469.011719.703125.054688 1.0625.054688h72.941406c19.351563 0 35.042969-15.6875 35.042969-35.042969 0-19.351562-15.691406-35.042969-35.042969-35.042969h16.433594c19.648437 0 36.101562-16.078124 35.726562-35.722656-.363281-19.039062-15.910156-34.359375-35.035156-34.359375h28.789063c19.351562 0 35.039062-15.6875 35.039062-35.042969 0-19.351562-15.6875-35.039062-35.042969-35.039062zm0 0" fill="#ffddcf"/><path d="m97.546875 369c0 12.148438-9.851563 22-22 22-12.152344 0-22-9.851562-22-22s9.847656-22 22-22c12.148437 0 22 9.851562 22 22zm0 0" fill="#fff"/><path d="m512 269.792969c0-22.066407-15.953125-40.464844-36.933594-44.296875 5.125-7.3125 8.148438-16.199219 8.148438-25.785156 0-24.839844-20.207032-45.042969-45.042969-45.042969h-91.5625c-8.953125 0-17.296875 2.636719-24.316406 7.15625v-86.34375c0-41.621094-33.859375-75.480469-75.480469-75.480469-11.027344 0-20 8.972656-20 20v48.394531c0 47.511719-31.632812 88.644531-76.542969 101.414063-3.539062-16.445313-18.1875-28.808594-35.675781-28.808594h-78.09375c-20.125 0-36.5 16.375-36.5 36.5v80.5c0 5.523438 4.476562 10 10 10s10-4.476562 10-10v-80.5c0-9.097656 7.402344-16.5 16.5-16.5h78.09375c9.097656 0 16.5 7.402344 16.5 16.5v241c0 9.097656-7.402344 16.5-16.5 16.5h-78.09375c-9.097656 0-16.5-7.402344-16.5-16.5v-80.5c0-5.523438-4.476562-10-10-10s-10 4.476562-10 10v80.5c0 20.125 16.375 36.5 36.5 36.5h78.09375c20.101562 0 36.460938-16.339844 36.496094-36.433594l15.574218 11.277344c22.71875 16.457031 49.558594 25.15625 77.613282 25.15625h176.769531c24.835937 0 45.039063-20.207031 45.039063-45.042969 0-10.863281-3.867188-20.84375-10.296876-28.632812 16.105469-6.871094 27.425782-22.863281 27.425782-41.449219 0-9.585938-3.023438-18.476562-8.148438-25.789062 20.980469-3.828126 36.933594-22.226563 36.933594-44.292969zm-165.390625-95.125h91.5625c13.808594 0 25.042969 11.234375 25.042969 25.042969 0 13.804687-11.234375 25.039062-25.042969 25.039062h-91.5625c-13.804687 0-25.039063-11.234375-25.039063-25.039062 0-13.808594 11.234376-25.042969 25.039063-25.042969zm-168.214844 238.980469-27.300781-19.773438v-203.59375c55.886719-13.605469 95.71875-63.734375 95.71875-121.886719v-48.394531c30.59375 0 55.480469 24.890625 55.480469 55.480469v116.246093c-.316407 1.753907-.535157 3.542969-.640625 5.363282l-5.183594 17.515625c-6.773438 22.898437-28.183594 38.890625-52.0625 38.890625-5.519531 0-10 4.480468-10 10 0 5.523437 4.480469 10 10 10 16.148438 0 31.523438-5.105469 44.460938-14.769532 10.433593-7.792968 18.46875-17.945312 23.59375-29.699218 1.785156 2.078125 3.757812 3.996094 5.894531 5.722656-10.226563 8.265625-16.785157 20.898438-16.785157 35.042969s6.558594 26.777343 16.785157 35.042969c-10.226563 8.261718-16.785157 20.898437-16.785157 35.039062 0 14.492188 6.886719 27.398438 17.550782 35.644531-9.808594 8.269531-16.054688 20.636719-16.054688 34.441407 0 9.257812 2.8125 17.875 7.621094 25.039062h-66.410156c-23.816406 0-46.597656-7.382812-65.882813-21.351562zm242.652344 21.351562h-72.941406c-13.808594 0-25.039063-11.234375-25.039063-25.042969 0-13.808593 11.230469-25.039062 25.039063-25.039062h72.941406c13.808594 0 25.039063 11.230469 25.039063 25.039062 0 13.808594-11.230469 25.042969-25.039063 25.042969zm17.125-70.082031h-91.558594c-13.808593 0-25.042969-11.234375-25.042969-25.042969s11.234376-25.039062 25.042969-25.039062h91.558594c13.808594 0 25.042969 11.230468 25.042969 25.039062s-11.234375 25.042969-25.042969 25.042969zm28.785156-70.082031h-120.347656c-13.804687 0-25.039063-11.234376-25.039063-25.042969 0-13.808594 11.234376-25.042969 25.039063-25.042969h120.347656c13.808594 0 25.042969 11.234375 25.042969 25.042969 0 13.808593-11.234375 25.042969-25.042969 25.042969zm0 0"/><path d="m107.546875 369c0-17.644531-14.355469-32-32-32s-32 14.355469-32 32 14.355469 32 32 32 32-14.355469 32-32zm-44 0c0-6.617188 5.382813-12 12-12s12 5.382812 12 12-5.382813 12-12 12-12-5.382812-12-12zm0 0"/><path d="m10 308c2.628906 0 5.210938-1.070312 7.070312-2.929688 1.859376-1.859374 2.929688-4.441406 2.929688-7.070312s-1.070312-5.210938-2.929688-7.070312c-1.859374-1.859376-4.441406-2.929688-7.070312-2.929688s-5.210938 1.070312-7.070312 2.929688c-1.859376 1.859374-2.929688 4.441406-2.929688 7.070312s1.070312 5.210938 2.929688 7.070312c1.859374 1.859376 4.441406 2.929688 7.070312 2.929688zm0 0"/></svg>