<svg id="Layer_1" enable-background="new 0 0 512 512" height="512" viewBox="0 0 512 512" width="512" xmlns="http://www.w3.org/2000/svg"><g><g clip-rule="evenodd" fill-rule="evenodd"><path d="m256 149.042c20.246 0 37.324-14.253 41.698-33.22.71-3.077 1.085-6.278 1.085-9.562v-21.392c0-23.53-19.252-42.782-42.782-42.782s-42.782 19.252-42.782 42.782v21.392c0 3.285.375 6.485 1.084 9.562 4.372 18.967 21.45 33.22 41.697 33.22z" fill="#f5c6af"/><path d="m309.478 277.391h-106.957v21.392 171.13h106.957v-171.13z" fill="#8690af"/><path d="m405.739 149.042c20.246 0 37.324-14.253 41.698-33.22.709-3.077 1.084-6.278 1.084-9.562v-21.392c0-23.53-19.252-42.782-42.783-42.782-23.53 0-42.782 19.252-42.782 42.782v21.392c0 3.285.375 6.485 1.084 9.562 4.374 18.967 21.453 33.22 41.699 33.22z" fill="#ffdcd5"/><path d="m447.437 115.822c-4.373 18.967-21.452 33.22-41.698 33.22s-37.324-14.253-41.697-33.22c-32.213 15.609-54.564 48.671-54.564 86.7l42.782-.003v74.872h106.956v-74.872l42.783.003c0-38.029-22.35-71.09-54.562-86.7z" fill="#cbe558"/><path d="m352.26 277.391v-74.872l-42.782.003v74.87c0 11.766 9.626 21.391 21.391 21.391h21.391z" fill="#ffdcd5"/><path d="m459.217 202.519v74.872 21.392h21.391c11.765 0 21.391-9.626 21.391-21.391v-74.87z" fill="#ffdcd5"/><path d="m459.217 277.391h-106.957v10.696 85.565h106.957v-85.565z" fill="#60a4ff"/><path d="m309.478 202.522c0-22.789 8.026-43.794 21.391-60.329 8.624-10.669 19.47-19.477 31.818-25.702h-63.635c-.449-.227-.9-.45-1.354-.669-4.373 18.967-21.452 33.22-41.698 33.22-20.247 0-37.325-14.253-41.698-33.22-.453.22-.905.443-1.354.669h-63.635c12.347 6.225 23.194 15.033 31.817 25.702 13.365 16.535 21.391 37.54 21.391 60.329l.001 74.869h53.478 53.478z" fill="#b278d3"/><path d="m455.523 115.505c-8.354 8.354-6.189 24.063 4.835 35.087 9.38 9.38 22.152 12.346 30.899 7.877 1.533-.784 2.943-1.795 4.189-3.042 8.354-8.354 6.189-24.063-4.835-35.087-11.025-11.024-26.734-13.189-35.088-4.835z" fill="#f5c6af"/><path d="m459.217 373.652h-106.957v10.696 85.565h106.957v-85.565z" fill="#ffdcd5"/><path d="m106.261 149.042c-20.246 0-37.324-14.253-41.698-33.22-.709-3.077-1.084-6.278-1.084-9.562v-21.392c0-23.53 19.252-42.782 42.782-42.782s42.782 19.252 42.782 42.782v21.392c0 3.285-.375 6.485-1.084 9.562-4.373 18.967-21.452 33.22-41.698 33.22z" fill="#ffdcd5"/><path d="m64.563 115.822c4.373 18.967 21.452 33.22 41.698 33.22s37.324-14.253 41.696-33.22c32.213 15.609 54.564 48.671 54.564 86.7l-42.782-.003v74.872h-106.956v-74.872l-42.783.003c0-38.029 22.351-71.09 54.563-86.7z" fill="#ffc144"/><path d="m159.739 277.391v-74.872l42.782.003v74.87c0 11.766-9.626 21.391-21.391 21.391h-21.391z" fill="#ffdcd5"/><path d="m52.783 202.519v74.872 21.392h-21.391c-11.765 0-21.391-9.626-21.391-21.391v-74.87z" fill="#ffdcd5"/><path d="m52.783 277.391h106.956v10.696 85.565h-106.956v-85.565z" fill="#c68a65"/><path d="m56.476 115.505c8.354 8.354 6.189 24.063-4.835 35.087-9.38 9.38-22.152 12.346-30.898 7.877-1.533-.784-2.943-1.795-4.189-3.042-8.354-8.354-6.189-24.063 4.835-35.087 11.025-11.024 26.734-13.189 35.087-4.835z" fill="#f5c6af"/><path d="m52.783 373.652h106.956v10.696 85.565h-106.956v-85.565z" fill="#ffdcd5"/></g><g><path d="m503.624 161.319c5.437-6.157 7.827-14.733 6.578-23.799-1.209-8.773-5.655-17.387-12.52-24.251-11.395-11.395-26.98-15.337-39.16-11.098v-17.303c0-29.104-23.679-52.782-52.783-52.782s-52.782 23.678-52.782 52.782v21.392c0 .078.005.154.006.231h-44.187c0-.078.006-.154.006-.231v-21.392c0-29.104-23.678-52.782-52.782-52.782s-52.782 23.678-52.782 52.782v21.392c0 .078.005.154.006.231h-44.187c0-.078.006-.154.006-.231v-21.392c0-29.104-23.678-52.782-52.782-52.782s-52.782 23.678-52.782 52.782v17.302c-12.18-4.238-27.765-.296-39.161 11.098-6.864 6.864-11.311 15.478-12.52 24.251-1.25 9.065 1.142 17.642 6.578 23.8-5.49 12.992-8.376 27.078-8.376 41.204v74.869c0 17.31 14.082 31.392 31.392 31.392h11.391v151.13h-11.392c-5.523 0-10 4.478-10 10s4.477 10 10 10h449.218c5.522 0 10-4.478 10-10s-4.478-10-10-10h-11.392v-151.13h11.392c17.309 0 31.391-14.082 31.391-31.392v-74.869c0-14.126-2.886-28.212-8.376-41.204zm-41.029-38.744c1.728-1.728 4.141-2.154 6.102-2.154.757 0 1.447.063 2.004.141 4.415.608 9.095 3.105 12.839 6.85s6.241 8.424 6.85 12.839c.275 2 .38 5.711-2.015 8.106s-6.107 2.288-8.105 2.014c-4.415-.608-9.095-3.105-12.839-6.85-7.598-7.596-8.645-17.136-4.836-20.946zm-89.638-37.707c0-18.076 14.706-32.782 32.782-32.782h.001c18.076 0 32.782 14.706 32.782 32.782v21.392c0 18.076-14.706 32.782-32.783 32.782-18.076 0-32.782-14.706-32.782-32.782zm-149.739 0c0-18.076 14.706-32.782 32.782-32.782s32.782 14.706 32.782 32.782v21.392c0 18.076-14.706 32.782-32.782 32.782s-32.782-14.706-32.782-32.782zm32.782 74.174c21.94 0 40.79-13.458 48.744-32.551h26.929c-5.967 5.815-11.269 12.332-15.771 19.44-10.745 16.966-16.424 36.534-16.424 56.591v64.904c-.231-.016-.461-.035-.696-.035h-85.564c-.235 0-.465.019-.696.035v-64.904c0-20.057-5.679-39.625-16.423-56.591-4.502-7.109-9.804-13.625-15.771-19.44h26.928c7.954 19.093 26.804 32.551 48.744 32.551zm193.217 204.611h-33.479v-38.697c0-5.522-4.478-10-10-10s-10 4.478-10 10v38.697h-33.478v-76.296c.231.016.461.035.696.035h85.564c.235 0 .465-.019.696-.035v76.296zm-86.957 20h33.479v76.261h-33.479zm-20-94.87h-11.39c-6.275 0-11.38-5.1-11.391-11.372v-.019c0-.007-.001-.013-.001-.019v-64.85l22.782-.002zm-279.477-1.426c.231.016.461.035.696.035h85.564c.235 0 .465-.019.696-.035v76.296h-86.956zm86.956 96.296v76.261h-33.479v-76.261zm10.001-191.133c-2.653 0-5.196 1.054-7.072 2.929s-2.929 4.419-2.929 7.071v64.907c-.231-.016-.461-.035-.696-.035h-85.564c-.235 0-.465.019-.696.035v-64.907c0-2.652-1.054-5.196-2.929-7.071-1.875-1.876-4.419-2.929-7.072-2.929l-32.21.002c.883-7.646 2.792-15.072 5.704-22.211 1.151.126 2.32.197 3.506.197 1.538 0 3.102-.107 4.68-.325 8.774-1.209 17.387-5.655 24.251-12.52 4.381-4.381 7.653-9.384 9.791-14.573 9.592 9.831 22.971 15.952 37.758 15.952 20.459 0 38.223-11.708 46.979-28.769 21.655 14.07 35.766 36.755 38.708 62.248zm9.999 20.001 22.782.002v64.869c0 6.281-5.11 11.392-11.391 11.392h-11.391zm-96.26-127.653c0-18.076 14.706-32.782 32.782-32.782s32.782 14.706 32.782 32.782v21.392c0 18.076-14.706 32.782-32.782 32.782s-32.782-14.706-32.782-32.782zm-51.868 55.382c.608-4.415 3.105-9.095 6.85-12.839 4.798-4.798 10.37-6.984 14.785-6.984 2.575 0 4.756.744 6.16 2.147 3.81 3.811 2.761 13.35-4.836 20.946-3.744 3.744-8.423 6.241-12.838 6.85-1.999.273-5.711.381-8.106-2.015-2.396-2.393-2.291-6.105-2.015-8.105zm9.781 148.533c-6.281 0-11.392-5.11-11.392-11.392v-64.869l22.783-.002v76.263zm31.391 94.87h33.478v76.261h-33.478zm106.956 76.26v-151.13h11.391c4.018 0 7.857-.767 11.391-2.148v153.278zm96.261 0v-89.961c0-5.522-4.478-10-10-10s-10 4.478-10 10v89.961h-33.479v-172.556c.231.016.461.035.696.035h85.564c.235 0 .466-.019.697-.035l-.001 172.557h-33.477zm53.479-153.278c3.534 1.381 7.373 2.148 11.391 2.148h11.391v151.13h-22.782zm96.26 153.278v-76.261h33.479v76.261zm43.479-267.393c-.001 0-.001 0 0 0-2.653 0-5.196 1.054-7.072 2.929-1.875 1.875-2.929 4.419-2.929 7.071v64.907c-.231-.016-.461-.035-.696-.035h-85.564c-.235 0-.465.019-.696.035v-64.907c0-2.652-1.054-5.196-2.929-7.071-1.876-1.876-4.42-2.929-7.072-2.929l-32.208.002c2.943-25.494 17.053-48.178 38.708-62.249 8.756 17.061 26.521 28.769 46.98 28.769 14.788 0 28.166-6.12 37.758-15.951 2.138 5.189 5.409 10.192 9.79 14.573 6.864 6.864 15.478 11.311 24.251 12.52 1.578.218 3.142.325 4.681.325 1.185 0 2.354-.071 3.505-.197 2.911 7.139 4.821 14.565 5.704 22.211zm32.782 84.872c0 6.281-5.109 11.392-11.391 11.392h-11.392v-76.263l22.783.002z"/><path d="m256 314.952c-5.523 0-10 4.481-10 10.004s4.477 10 10 10 10-4.478 10-10v-.008c0-5.522-4.477-9.996-10-9.996z"/></g></g></svg>