<svg id="Layer_1" enable-background="new 0 0 512 512" height="512" viewBox="0 0 512 512" width="512" xmlns="http://www.w3.org/2000/svg"><g><g clip-rule="evenodd" fill-rule="evenodd"><path d="m50 256c0-113.77 92.23-206 206-206s206 92.229 206 206-92.229 206-206 206-206-92.229-206-206zm452 0c0-135.862-110.138-246-246-246s-246 110.138-246 246 110.138 246 246 246 246-110.137 246-246z" fill="#ffc144"/><ellipse cx="256" cy="256" fill="#ffda8f" rx="206" ry="206" transform="matrix(.707 -.707 .707 .707 -106.039 256)"/><path d="m256 132.25-37.407 62.807h74.814z" fill="#ffc144"/><path d="m218.593 195.057h-72.593l36.297 60.943z" fill="#ffc144"/><path d="m218.593 195.057-36.296 60.943 36.296 60.943h74.814l36.296-60.943-36.296-60.943z" fill="#ffda8f"/><g fill="#ffc144"><path d="m218.593 316.943-36.296-60.943-36.297 60.943z"/><path d="m293.407 316.943h-74.814l37.407 62.807z"/><path d="m329.703 256-36.296 60.943h72.593z"/><path d="m293.407 195.057 36.296 60.943 36.297-60.943z"/></g></g><g><path d="m256 0c-141.159 0-256 114.841-256 256s114.841 256 256 256 256-114.841 256-256-114.841-256-256-256zm0 492c-130.131 0-236-105.869-236-236s105.869-236 236-236 236 105.869 236 236-105.869 236-236 236z"/><path d="m408.735 103.265c-40.797-40.797-95.039-63.265-152.735-63.265-41.23 0-81.325 11.665-115.949 33.735-4.657 2.969-6.026 9.15-3.058 13.808 2.968 4.657 9.148 6.026 13.808 3.058 31.407-20.019 67.784-30.601 105.199-30.601 108.075 0 196 87.925 196 196s-87.925 196-196 196-196-87.925-196-196c0-37.415 10.58-73.79 30.596-105.192 2.969-4.657 1.6-10.839-3.058-13.808-4.657-2.967-10.838-1.6-13.808 3.058-22.066 34.619-33.73 74.712-33.73 115.942 0 57.695 22.468 111.938 63.265 152.735s95.039 63.265 152.735 63.265 111.938-22.468 152.735-63.265 63.265-95.04 63.265-152.735-22.468-111.938-63.265-152.735z"/><path d="m110.329 120.338c2.707 0 5.406-1.093 7.378-3.245 3.732-4.071 3.457-10.396-.614-14.128-4.072-3.732-10.397-3.456-14.129.614l-.005.006c-3.732 4.071-3.454 10.394.617 14.125 1.919 1.76 4.339 2.628 6.753 2.628z"/><path d="m137.307 321.885c1.777 3.127 5.097 5.059 8.694 5.059h66.909l34.498 57.924c1.804 3.027 5.067 4.883 8.592 4.883s6.788-1.855 8.592-4.883l34.498-57.924h66.91c3.597 0 6.917-1.932 8.694-5.059s1.738-6.968-.102-10.059l-33.249-55.826 33.249-55.826c1.84-3.091 1.879-6.932.102-10.059s-5.097-5.059-8.694-5.059h-66.909l-34.499-57.925c-1.803-3.027-5.067-4.883-8.592-4.883s-6.789 1.855-8.592 4.883l-34.499 57.925h-66.909c-3.597 0-6.917 1.932-8.694 5.059s-1.738 6.968.102 10.059l33.249 55.826-33.249 55.826c-1.84 3.091-1.879 6.932-.101 10.059zm118.693 38.322-19.811-33.264h39.623zm-31.723-53.264-30.341-50.943 30.34-50.943h63.447l30.341 50.943-30.341 50.943zm124.127 0h-37.402l18.701-31.4zm0-101.885-18.701 31.4-18.701-31.4zm-92.404-53.265 19.812 33.265h-39.623zm-92.404 53.265h37.402l-18.701 31.4zm18.701 70.485 18.701 31.4h-37.402z"/></g></g></svg>