<?xml version="1.0" encoding="iso-8859-1"?>
<!-- Generator: Adobe Illustrator 19.0.0, SVG Export Plug-In . SVG Version: 6.00 Build 0)  -->
<svg version="1.1" id="Capa_1" xmlns="http://www.w3.org/2000/svg" xmlns:xlink="http://www.w3.org/1999/xlink" x="0px" y="0px"
	 viewBox="0 0 512 512" style="enable-background:new 0 0 512 512;" xml:space="preserve">
<g>
	<polygon style="fill:#FF5D5D;" points="448.044,10.547 392.253,41.18 371.176,41.18 352.022,16.873 313.376,41.18 279.418,41.18 
		256,9.989 232.581,41.18 198.623,41.18 159.977,16.873 140.823,41.18 119.746,41.18 63.955,10.547 95.491,73.478 71.299,73.478 
		71.299,107.441 95.175,107.441 134.132,179.652 134.132,107.441 377.867,107.441 377.867,179.652 416.824,107.441 440.7,107.441 
		440.7,73.478 416.509,73.478 	"/>
	<rect x="106.164" y="357.171" style="fill:#FF5D5D;" width="55.939" height="144.842"/>
	<rect x="349.898" y="357.171" style="fill:#FF5D5D;" width="55.939" height="144.842"/>
</g>
<polyline style="fill:#FFFFFF;" points="377.867,107.441 377.867,179.652 134.132,179.652 134.132,107.441 "/>
<path d="M216.173,169.663c-2.627,0-5.204,1.069-7.062,2.927c-1.868,1.858-2.927,4.435-2.927,7.062s1.059,5.204,2.927,7.062
	c1.858,1.858,4.435,2.927,7.062,2.927s5.204-1.069,7.062-2.927c1.858-1.858,2.927-4.435,2.927-7.062s-1.069-5.204-2.927-7.062
	C221.377,170.732,218.8,169.663,216.173,169.663z"/>
<path d="M454.974,3.351c-3.149-3.034-7.905-3.666-11.737-1.561l-53.546,29.4h-13.669l-16.154-20.5
	c-3.163-4.013-8.84-4.994-13.165-2.273l-36.208,22.773H284.41L263.988,3.992C262.101,1.478,259.142,0,256,0
	c-3.143,0-6.101,1.478-7.988,3.992L227.59,31.191h-26.087L165.295,8.418c-4.324-2.72-10.003-1.739-13.165,2.273l-16.154,20.5
	h-13.669L68.763,1.79c-3.833-2.105-8.589-1.472-11.737,1.561c-3.149,3.033-3.96,7.762-2.001,11.67l24.288,48.467H71.3
	c-5.517,0-9.989,4.472-9.989,9.989v33.963c0,5.517,4.472,9.989,9.989,9.989h17.915l34.929,64.744V347.18h-17.98
	c-5.517,0-9.989,4.473-9.989,9.989v134.853H65.708c-5.517,0-9.989,4.473-9.989,9.989S60.191,512,65.708,512h380.585
	c5.517,0,9.989-4.473,9.989-9.989s-4.472-9.989-9.989-9.989h-30.467V357.169c0-5.516-4.472-9.989-9.989-9.989h-18.088V182.375
	l35.038-64.945h17.915c5.517,0,9.989-4.472,9.989-9.989V73.478c0-5.517-4.472-9.989-9.989-9.989h-8.012l24.288-48.467
	C458.933,11.113,458.122,6.385,454.974,3.351z M111.914,117.43h12.23v22.668L111.914,117.43z M152.113,492.022h-35.961V367.158
	h35.961V492.022z M339.908,357.169v134.853H172.091V357.169c0-5.516-4.472-9.989-9.989-9.989h-17.98V189.641h35.628
	c5.517,0,9.989-4.472,9.989-9.989s-4.472-9.989-9.989-9.989h-35.628V117.43H367.77v52.233H256.126c-5.517,0-9.989,4.472-9.989,9.989
	s4.472,9.989,9.989,9.989H367.77V347.18h-17.873C344.38,347.18,339.908,351.653,339.908,357.169z M395.847,367.158v124.864h-35.961
	V367.158H395.847z M387.856,140.098V117.43h12.23L387.856,140.098z M430.711,97.452h-13.887H81.288V83.467h255.623
	c5.517,0,9.989-4.472,9.989-9.989s-4.472-9.989-9.989-9.989H101.658l-14.41-28.757l27.691,15.204
	c1.473,0.809,3.127,1.233,4.808,1.233h21.077c3.06,0,5.952-1.402,7.845-3.807l13.594-17.251l31.042,19.524
	c1.593,1.002,3.436,1.533,5.318,1.533h33.958c3.143,0,6.101-1.478,7.988-3.992L256,26.625l15.43,20.552
	c1.887,2.513,4.847,3.992,7.988,3.992h33.958c1.882,0,3.725-0.531,5.318-1.533l31.042-19.524l13.594,17.251
	c1.894,2.403,4.786,3.807,7.845,3.807h21.077c1.681,0,3.334-0.425,4.808-1.233l27.691-15.204l-17.173,34.272
	c-1.551,3.097-1.388,6.776,0.432,9.722c1.82,2.948,5.036,4.742,8.5,4.742h14.203v13.984H430.711z"/>
<path d="M374.391,83.467c-2.637,0-5.204-1.069-7.062-2.927c-1.858-1.858-2.927-4.435-2.927-7.062s1.069-5.204,2.927-7.062
	c1.858-1.858,4.425-2.927,7.062-2.927c2.627,0,5.204,1.069,7.062,2.927s2.927,4.435,2.927,7.062s-1.069,5.204-2.927,7.062
	C379.595,82.398,377.018,83.467,374.391,83.467z"/>
<g>
</g>
<g>
</g>
<g>
</g>
<g>
</g>
<g>
</g>
<g>
</g>
<g>
</g>
<g>
</g>
<g>
</g>
<g>
</g>
<g>
</g>
<g>
</g>
<g>
</g>
<g>
</g>
<g>
</g>
</svg>
