<svg id="Layer_1" enable-background="new 0 0 512.002 512.002" height="512" viewBox="0 0 512.002 512.002" width="512" xmlns="http://www.w3.org/2000/svg"><g><g clip-rule="evenodd" fill-rule="evenodd"><path d="m463.267 416.872c-7.059 7.857-17.285 12.817-28.613 12.817-11.329 0-21.555-4.961-28.612-12.819-22.838 10.807-38.736 34.098-38.736 60.924v24.208h134.696v-24.208c0-26.825-15.898-50.116-38.735-60.922z" fill="#cbe558"/><path d="m115.832 371.963c0-21.167-17.318-38.485-38.484-38.485s-38.484 17.318-38.484 38.485v19.242c0 9.838 3.741 18.844 9.871 25.667 7.059 7.857 17.285 12.817 28.614 12.817s21.555-4.961 28.614-12.817c6.13-6.822 9.871-15.829 9.871-25.667v-19.242z" fill="#ffdcd5"/><path d="m105.961 416.872c-7.059 7.857-17.285 12.817-28.614 12.817s-21.555-4.961-28.612-12.819c-22.837 10.808-38.735 34.098-38.735 60.924v24.208h134.696v-24.208c0-26.825-15.898-50.116-38.735-60.922z" fill="#ff5d7d"/><path d="m234.934 371.963c0-21.167-17.318-38.485-38.484-38.485s-38.484 17.318-38.484 38.485v19.242c0 9.838 3.741 18.844 9.871 25.667 7.059 7.857 17.285 12.817 28.614 12.817s21.555-4.961 28.613-12.817c6.13-6.822 9.871-15.829 9.871-25.667v-19.242z" fill="#ffdcd5"/><path d="m225.063 416.872c-7.059 7.857-17.285 12.817-28.613 12.817-11.329 0-21.555-4.961-28.612-12.819-22.838 10.807-38.736 34.098-38.736 60.924v24.208h134.696v-24.208c0-26.825-15.898-50.116-38.735-60.922z" fill="#ffc144"/><path d="m354.036 371.963c0-21.167-17.318-38.485-38.484-38.485-21.167 0-38.484 17.318-38.484 38.485v19.242c0 9.838 3.741 18.844 9.871 25.667 7.059 7.857 17.285 12.817 28.614 12.817s21.555-4.961 28.613-12.817c6.13-6.822 9.871-15.829 9.871-25.667v-19.242z" fill="#ffdcd5"/><path d="m344.165 416.872c-7.059 7.857-17.285 12.817-28.613 12.817-11.329 0-21.555-4.961-28.612-12.819-22.838 10.807-38.736 34.098-38.736 60.924v24.208h134.696v-24.208c0-26.825-15.898-50.116-38.735-60.922z" fill="#b278d3"/><path d="m473.138 371.963c0-21.167-17.318-38.485-38.484-38.485-21.167 0-38.484 17.318-38.484 38.485v19.242c0 9.838 3.741 18.844 9.871 25.667 7.059 7.857 17.285 12.817 28.613 12.817 11.329 0 21.555-4.961 28.613-12.817 6.13-6.822 9.871-15.829 9.871-25.667z" fill="#ffdcd5"/><path d="m130.999 20v210.006c0 5.5 4.5 10 9.999 10h90.847l17.084 17.084c3.889 3.889 10.252 3.889 14.142 0l17.083-17.084h90.848c5.5 0 10-4.512 10-10v-210.006c0-5.482-4.517-10-10-10h-230.003c-5.482 0-10 4.5-10 10z" fill="#fff"/><path d="m204.504 137.648 25.902 25.902c7.809 7.809 20.472 7.809 28.281 0l48.812-48.812c7.809-7.809 7.809-20.472 0-28.281-7.81-7.809-20.472-7.809-28.281 0l-34.671 34.671-11.761-11.761c-7.81-7.81-20.472-7.81-28.281 0-7.811 7.809-7.811 20.471-.001 28.281z" fill="#cbe558"/></g><g><path d="m244.546 179.407c8.013 0 15.546-3.121 21.212-8.786l48.812-48.812c11.696-11.696 11.696-30.728 0-42.424-5.666-5.666-13.199-8.786-21.212-8.786s-15.546 3.121-21.211 8.786l-27.601 27.6-4.69-4.69c-5.666-5.666-13.199-8.787-21.212-8.787s-15.546 3.121-21.212 8.787c-11.696 11.696-11.696 30.728 0 42.423l25.902 25.902c5.666 5.666 13.199 8.787 21.212 8.787zm-32.971-62.969c1.888-1.889 4.399-2.928 7.069-2.928 2.671 0 5.181 1.04 7.069 2.928l11.761 11.761c3.905 3.905 10.237 3.905 14.143 0l34.671-34.671c1.888-1.889 4.399-2.928 7.069-2.928s5.181 1.04 7.069 2.928c3.898 3.898 3.898 10.241 0 14.139l-48.812 48.812c-1.888 1.888-4.398 2.928-7.069 2.928-2.67 0-5.181-1.04-7.069-2.928l-25.902-25.902c-3.898-3.899-3.897-10.241.001-14.139z"/><path d="m477.65 413.571c3.498-6.697 5.488-14.301 5.488-22.366v-19.243c0-26.734-21.75-48.484-48.485-48.484-26.734 0-48.484 21.75-48.484 48.484v19.243c0 8.069 1.993 15.678 5.495 22.378-6.199 4.16-11.75 9.177-16.508 14.918-4.723-5.683-10.302-10.716-16.609-14.929 3.498-6.697 5.488-14.302 5.488-22.366v-19.243c0-26.734-21.75-48.484-48.485-48.484-26.734 0-48.484 21.75-48.484 48.484v19.243c0 8.064 1.99 15.669 5.488 22.366-6.305 4.211-11.882 9.24-16.603 14.919-4.755-5.738-10.308-10.748-16.511-14.908 3.502-6.7 5.494-14.308 5.494-22.377v-19.243c0-26.734-21.75-48.484-48.484-48.484-26.735 0-48.485 21.75-48.485 48.484v19.243c0 8.064 1.99 15.669 5.488 22.366-6.303 4.21-11.879 9.238-16.599 14.914-4.754-5.738-10.309-10.743-16.515-14.904 3.501-6.7 5.493-14.307 5.493-22.376v-19.243c0-26.734-21.75-48.484-48.485-48.484s-48.485 21.75-48.485 48.484v19.243c0 8.064 1.99 15.669 5.488 22.366-21.403 14.296-34.35 38.102-34.35 64.223v24.207c0 5.523 4.477 10 10 10h492.002c5.523 0 10-4.477 10-10v-24.207c0-26.121-12.947-49.927-34.352-64.224zm-71.481-41.609c0-15.707 12.778-28.484 28.484-28.484 15.707 0 28.485 12.778 28.485 28.484v19.243c0 15.706-12.778 28.484-28.485 28.484-15.706 0-28.484-12.778-28.484-28.484zm-119.102 0c0-15.706 12.778-28.484 28.484-28.484 15.707 0 28.485 12.778 28.485 28.484v19.243c0 15.706-12.778 28.484-28.484 28.484-15.707 0-28.485-12.778-28.485-28.484zm-119.102 0c0-15.707 12.778-28.484 28.485-28.484 15.706 0 28.484 12.778 28.484 28.484v19.243c0 15.706-12.778 28.484-28.484 28.484-15.707 0-28.485-12.778-28.485-28.484zm-119.102 0c0-15.707 12.778-28.484 28.485-28.484s28.485 12.778 28.485 28.484v19.243c0 15.706-12.778 28.484-28.485 28.484s-28.485-12.778-28.485-28.484zm-28.863 105.833c0-20.022 10.284-38.219 27.163-48.689 8.289 6.615 18.78 10.584 30.185 10.584 11.403 0 21.891-3.967 30.18-10.579 7.245 4.508 13.371 10.53 18.011 17.724-4.179 9.571-6.437 20.064-6.437 30.96v14.207h-99.102zm119.102 0c0-20.022 10.284-38.219 27.163-48.689 8.289 6.615 18.78 10.584 30.185 10.584 11.403 0 21.891-3.967 30.179-10.579 7.241 4.507 13.369 10.533 18.01 17.728-4.178 9.57-6.435 20.061-6.435 30.956v14.208h-99.102zm119.102-.001c0-20.021 10.283-38.219 27.162-48.688 8.289 6.615 18.78 10.584 30.186 10.584 11.405 0 21.895-3.968 30.185-10.584 16.878 10.471 27.163 28.674 27.163 48.688v14.208h-114.696zm233.798 14.208h-99.102v-14.208c0-10.892-2.257-21.383-6.436-30.953 4.644-7.194 10.778-13.227 18.011-17.731 8.288 6.613 18.776 10.579 30.179 10.579 11.406 0 21.896-3.968 30.185-10.584 16.879 10.47 27.163 28.668 27.163 48.689z"/><path d="m140.999 250.006h86.705l14.155 14.155c3.899 3.898 9.02 5.848 14.142 5.848s10.243-1.95 14.143-5.849l14.154-14.155h86.707c11.028 0 20-8.972 20-20v-210.005c0-11.028-8.972-20-20-20h-230.006c-11.028 0-19.999 8.972-19.999 20v60c0 5.523 4.477 10 10 10s10-4.477 10-10l-.001-60h230.004v210.006h-90.849c-2.652 0-5.196 1.054-7.071 2.929l-17.083 17.083-17.084-17.084c-1.875-1.875-4.419-2.929-7.071-2.929h-90.846v-60.005c0-5.523-4.477-10-10-10s-10 4.477-10 10v60.007c.001 11.027 8.972 19.999 20 19.999z"/><path d="m131 135.003c5.523 0 10-4.477 10-10v-.007c0-5.523-4.477-9.996-10-9.996s-10 4.48-10 10.003 4.477 10 10 10z"/></g></g></svg>