<?xml version="1.0" encoding="iso-8859-1"?>
<!-- Generator: Adobe Illustrator 19.0.0, SVG Export Plug-In . SVG Version: 6.00 Build 0)  -->
<svg version="1.1" id="Capa_1" xmlns="http://www.w3.org/2000/svg" xmlns:xlink="http://www.w3.org/1999/xlink" x="0px" y="0px"
	 viewBox="0 0 512.001 512.001" style="enable-background:new 0 0 512.001 512.001;" xml:space="preserve">
<path style="fill:#C9F3FF;" d="M10.003,487.445c19.408,19.408,50.875,19.408,70.283,0c19.408,19.408,50.875,19.408,70.283,0
	c19.408,19.408,50.875,19.408,70.283,0c19.408,19.408,50.875,19.408,70.283,0c19.408,19.408,50.875,19.408,70.283,0
	c19.408,19.408,50.875,19.408,70.283,0c19.408,19.408,50.875,19.408,70.283,0v-53.998c-19.408,19.408-50.875,19.408-70.283,0
	c-19.408,19.408-50.875,19.408-70.283,0c-19.408,19.408-50.875,19.408-70.283,0c-19.408,19.408-50.875,19.408-70.283,0
	c-19.408,19.408-50.875,19.408-70.283,0c-19.408,19.408-50.875,19.408-70.283,0c-19.408,19.408-50.875,19.408-70.283,0
	L10.003,487.445L10.003,487.445z"/>
<circle style="fill:#FFC66C;" cx="469.998" cy="41.998" r="31.999"/>
<path style="fill:#898998;" d="M400.985,229.001l14.666-22.249v-88.413L380.32,83.007h-24.666V52.846
	c0-6.474-1.468-12.863-4.292-18.688c-7.161-14.769-22.131-24.147-38.543-24.147h-13.864c-23.657,0-42.835,19.178-42.835,42.835
	v47.494l2.173,12.372c-1.675-9.535-8.598-17.477-18.195-20.283c-6.927-2.025-14.399-0.871-20.626,2.777l-55.974,32.799v129.782
	l-22.745,6.543c-7.552,2.172-12.753,9.082-12.753,16.939v159.456h233.322v-93.136l58.164-28.427v-58.164L400.985,229.001z"/>
<path style="fill:#ADE5FF;" d="M39.112,203.267c-16.076,0-29.109-13.032-29.109-29.109s13.032-29.109,29.109-29.109
	c7.603,0,14.521,2.917,19.706,7.69c-0.014-0.49-0.037-0.977-0.037-1.469c0-28.718,23.28-51.998,51.998-51.998
	c22.498,0,41.656,14.29,48.9,34.288c2.815-0.72,5.764-1.104,8.803-1.104c19.554,0,35.405,15.851,35.405,35.405
	s-15.851,35.405-35.405,35.405H39.112V203.267z"/>
<path d="M494.91,426.377c-7.498,7.499-17.466,11.627-28.07,11.627s-20.573-4.129-28.071-11.627
	c-1.875-1.875-4.419-2.929-7.071-2.929s-5.196,1.054-7.071,2.929c-7.498,7.499-17.466,11.627-28.07,11.627
	c-9.319,0-18.145-3.191-25.237-9.053v-75.118l52.556-25.686c3.432-1.678,5.609-5.164,5.609-8.984V261
	c0-1.758-0.463-3.483-1.343-5.005l-15.406-26.649l11.265-17.09c1.077-1.634,1.651-3.548,1.651-5.504V118.34
	c0-2.652-1.054-5.195-2.929-7.071l-35.331-35.331c-1.875-1.875-4.419-2.929-7.071-2.929h-14.666V52.846
	c0-7.938-1.831-15.907-5.293-23.051c-8.773-18.093-27.434-29.784-47.541-29.784h-13.865c-29.133,0-52.835,23.701-52.835,52.835
	v31.114c-10.128-3.999-21.78-3.196-31.266,2.363l-52.398,30.703c-11.32-17.022-30.655-27.752-51.678-27.752
	c-29.182,0-53.72,20.268-60.277,47.466c-3.657-1.112-7.489-1.689-11.389-1.689c-21.564,0-39.108,17.544-39.108,39.108
	c0,21.565,17.544,39.109,39.108,39.109h114.385v36.991l-15.51,4.462c-11.768,3.387-19.988,14.304-19.988,26.55v24.061
	c0,5.522,4.477,10,10,10c5.523,0,10-4.478,10-10V281.27c0-3.381,2.27-6.396,5.519-7.33l22.939-6.599
	c0.007-0.002,0.014-0.004,0.021-0.006l4.819-1.386l19.84,25.23c3.414,4.341,9.701,5.094,14.041,1.679
	c4.341-3.413,5.093-9.7,1.68-14.041l-23.999-30.52c-2.245-2.855-5.836-4.236-9.361-3.7v-31.614
	c22.685-2.504,40.391-21.78,40.391-45.122c0-18.666-11.325-34.732-27.463-41.702l38.54-22.583
	c4.686-2.744,10.574-2.865,15.366-0.313c4.311,2.295,7.268,6.37,8.113,11.18l4.033,22.959c0.853,4.854,5.073,8.271,9.837,8.271
	c0.574,0,1.157-0.05,1.742-0.152c5.44-0.956,9.075-6.141,8.119-11.579l-4.033-22.958c-0.49-2.792-1.298-5.471-2.386-8.005
	c0.23-0.842,0.364-1.725,0.364-2.64V52.846c0-18.105,14.729-32.836,32.836-32.836h13.865c12.496,0,24.094,7.266,29.546,18.51
	c2.152,4.439,3.29,9.394,3.29,14.325v67.493c0,5.522,4.477,10,10,10s10-4.478,10-10V93.007h10.525l29.474,29.475v81.271
	l-13.015,19.744c-2.084,3.162-2.204,7.23-0.308,10.509l17.156,29.677v49.239l-52.556,25.686c-3.432,1.678-5.609,5.164-5.609,8.984
	v81.517c-7.059,5.763-15.811,8.897-25.047,8.897c-10.604,0-20.572-4.129-28.07-11.627c-1.875-1.875-4.419-2.929-7.071-2.929
	s-5.196,1.054-7.071,2.929c-14.288,14.288-36.843,15.375-52.403,3.283v-63.998c0-3.911-2.28-7.463-5.835-9.092l-29.105-13.333
	c-5.022-2.3-10.957-0.094-13.255,4.927c-2.3,5.021-0.095,10.956,4.926,13.256l23.27,10.66v56.254
	c-7.21,6.25-16.314,9.67-25.951,9.67c-10.604,0-20.573-4.129-28.071-11.627c-1.875-1.875-4.419-2.929-7.071-2.929
	s-5.196,1.054-7.071,2.929c-1.71,1.71-3.554,3.236-5.5,4.587v-52.637c0-5.522-4.477-10-10-10c-5.523,0-10,4.478-10,10v59.585
	c-0.853,0.054-1.709,0.092-2.572,0.092c-10.604,0-20.572-4.129-28.07-11.627c-1.875-1.875-4.419-2.929-7.071-2.929
	c-2.652,0-5.196,1.054-7.071,2.929c-7.498,7.499-17.466,11.627-28.071,11.627c-10.604,0-20.572-4.129-28.07-11.627
	c-3.905-3.903-10.237-3.903-14.141,0c-3.905,3.905-3.906,10.237,0,14.142c11.275,11.275,26.267,17.484,42.212,17.484
	c12.806,0,24.997-4.005,35.141-11.422c10.145,7.418,22.335,11.422,35.141,11.422c12.806,0,24.997-4.006,35.141-11.422
	c10.145,7.417,22.335,11.422,35.141,11.422c12.809,0,25.002-4.007,35.147-11.427c20.855,15.198,49.414,15.198,70.269,0
	c10.146,7.421,22.339,11.427,35.147,11.427c12.806,0,24.997-4.006,35.141-11.422c10.145,7.417,22.335,11.422,35.141,11.422
	c12.805,0,24.997-4.005,35.141-11.422c10.145,7.418,22.335,11.422,35.141,11.422c15.945,0,30.937-6.21,42.212-17.484
	c3.905-3.905,3.905-10.237,0-14.142C505.146,422.472,498.815,422.472,494.91,426.377z M193.887,167.861
	c0,14.009-11.396,25.406-25.406,25.406H39.112c-10.538,0-19.109-8.573-19.109-19.11c0-10.537,8.573-19.109,19.109-19.109
	c4.805,0,9.398,1.793,12.934,5.048c2.958,2.723,7.259,3.409,10.917,1.743c3.658-1.666,5.963-5.361,5.851-9.38l-0.016-0.49
	c-0.008-0.232-0.018-0.465-0.018-0.699c0-23.158,18.84-41.998,41.998-41.998c17.624,0,33.497,11.13,39.498,27.694
	c1.753,4.839,6.892,7.558,11.878,6.282c2.055-0.525,4.184-0.792,6.326-0.792C182.491,142.456,193.887,153.852,193.887,167.861z"/>
<path d="M494.91,480.374c-7.498,7.499-17.466,11.627-28.07,11.627s-20.573-4.129-28.071-11.627
	c-1.875-1.875-4.419-2.929-7.071-2.929s-5.196,1.054-7.071,2.929c-7.498,7.499-17.466,11.627-28.07,11.627
	c-10.604,0-20.573-4.129-28.071-11.627c-1.875-1.875-4.419-2.929-7.071-2.929s-5.196,1.054-7.071,2.929
	c-7.498,7.499-17.467,11.627-28.071,11.627s-20.572-4.129-28.07-11.627c-1.875-1.875-4.419-2.929-7.071-2.929
	s-5.196,1.054-7.071,2.929c-15.478,15.478-40.663,15.478-56.141,0c-1.875-1.875-4.419-2.929-7.071-2.929s-5.196,1.054-7.071,2.929
	c-7.498,7.499-17.466,11.627-28.07,11.627s-20.573-4.129-28.071-11.627c-1.875-1.875-4.419-2.929-7.071-2.929
	s-5.196,1.054-7.071,2.929c-7.498,7.499-17.466,11.627-28.071,11.627c-10.604,0-20.572-4.129-28.07-11.627
	c-1.875-1.875-4.419-2.929-7.071-2.929c-2.652,0-5.196,1.054-7.071,2.929c-7.498,7.499-17.466,11.627-28.071,11.627
	c-10.604,0-20.572-4.129-28.07-11.627c-3.905-3.903-10.237-3.904-14.141,0c-3.905,3.905-3.906,10.237,0,14.142
	c11.275,11.274,26.267,17.484,42.212,17.484c12.806,0,24.997-4.005,35.141-11.422c10.145,7.418,22.335,11.422,35.141,11.422
	s24.997-4.006,35.141-11.422c10.145,7.417,22.335,11.422,35.141,11.422c12.809,0,25.002-4.007,35.147-11.427
	c20.855,15.198,49.414,15.198,70.269,0c10.146,7.421,22.339,11.427,35.147,11.427c12.806,0,24.997-4.006,35.141-11.422
	c10.145,7.417,22.335,11.422,35.141,11.422c12.805,0,24.997-4.005,35.141-11.422c10.145,7.418,22.335,11.422,35.141,11.422
	c15.945,0,30.937-6.21,42.212-17.484c3.905-3.905,3.905-10.237,0-14.142C505.146,476.47,498.815,476.47,494.91,480.374z"/>
<path d="M127.997,350.325c2.63,0,5.21-1.061,7.07-2.931c1.86-1.859,2.93-4.439,2.93-7.069s-1.07-5.21-2.93-7.07
	c-1.86-1.86-4.44-2.93-7.07-2.93c-2.63,0-5.21,1.069-7.07,2.93c-1.86,1.86-2.93,4.44-2.93,7.07c0,2.64,1.07,5.21,2.93,7.069
	C122.787,349.264,125.367,350.325,127.997,350.325z"/>
<path d="M362.727,162.744c1.86-1.86,2.93-4.44,2.93-7.07c0-2.64-1.07-5.21-2.93-7.07c-1.86-1.87-4.44-2.93-7.07-2.93
	s-5.21,1.06-7.07,2.93c-1.87,1.86-2.93,4.431-2.93,7.07c0,2.63,1.06,5.2,2.93,7.07c1.86,1.859,4.44,2.93,7.07,2.93
	S360.867,164.603,362.727,162.744z"/>
<path d="M323.175,190.408l-27.801,10.78c-9.202,3.567-15.384,12.596-15.384,22.466v73.344c0,5.522,4.477,10,10,10
	c5.523,0,10-4.478,10-10v-73.344c0-1.679,1.051-3.213,2.615-3.82l27.8-10.779c1.99-0.771,4.263,0.133,5.18,2.058l5.145,10.805
	c2.375,4.987,8.341,7.104,13.327,4.729c4.986-2.374,7.104-8.341,4.729-13.326l-5.146-10.806
	C348.249,191.193,334.866,185.876,323.175,190.408z"/>
<path d="M282.92,341.065c1.86,1.86,4.44,2.931,7.07,2.931c2.63,0,5.21-1.07,7.07-2.931c1.86-1.859,2.93-4.439,2.93-7.069
	s-1.07-5.21-2.93-7.07c-1.86-1.86-4.44-2.93-7.07-2.93c-2.63,0-5.21,1.069-7.07,2.93c-1.86,1.86-2.93,4.44-2.93,7.07
	S281.06,339.206,282.92,341.065z"/>
<path d="M469.997,83.996c23.158,0,41.998-18.84,41.998-41.998S493.155,0,469.997,0c-23.158,0-41.998,18.84-41.998,41.998
	S446.839,83.996,469.997,83.996z M469.997,19.999c12.13,0,21.999,9.869,21.999,21.999s-9.869,21.999-21.999,21.999
	c-12.13,0-21.999-9.869-21.999-21.999S457.866,19.999,469.997,19.999z"/>
<g>
</g>
<g>
</g>
<g>
</g>
<g>
</g>
<g>
</g>
<g>
</g>
<g>
</g>
<g>
</g>
<g>
</g>
<g>
</g>
<g>
</g>
<g>
</g>
<g>
</g>
<g>
</g>
<g>
</g>
</svg>
