<svg id="Capa_1" enable-background="new 0 0 512 512" height="512" viewBox="0 0 512 512" width="512" xmlns="http://www.w3.org/2000/svg"><g><g><path d="m298.81 384.48h-85.62c-61.98 7.37-107.19 30.33-107.19 57.52 0 33.14 67.16 60 150 60s150-26.86 150-60c0-27.19-45.21-50.15-107.19-57.52z" fill="#8bf2cf"/><path d="m412 166c0 69.22-15.09 88.82-59.88 147.03-44.845 58.28-57.134 76.214-96.12 133.79-5.365-7.707-32.132-50.626-96.14-133.81-44.78-58.16-59.86-77.75-59.86-147.01 0-86.02 69.98-156 156-156s156 69.98 156 156z" fill="#ffa2c3"/><path d="m286 136c14.54 0 30 15.18 30 30 0 15.84-14.45 32.67-60 60-45.31-27.19-60-44.06-60-60 0-14.9 15.54-30 30-30 12.85 0 23.83 7.07 30 22.5 6.09-15.23 17.04-22.5 30-22.5z" fill="#eefaff"/></g><g><path d="m286 126c-11.884 0-22.257 4.756-30 13.448-7.743-8.692-18.116-13.448-30-13.448-20.187 0-40 19.813-40 40 0 21.341 18.184 40.568 64.854 68.575 1.583.95 3.364 1.425 5.146 1.425 1.781 0 3.562-.475 5.145-1.425 46.671-28.003 64.855-47.23 64.855-68.575 0-20.187-19.813-40-40-40zm-30 88.302c-34.527-21.22-50-36.208-50-48.302 0-9.159 10.841-20 20-20 9.444 0 16.413 5.455 20.715 16.213 1.518 3.797 5.196 6.287 9.285 6.287s7.767-2.49 9.285-6.287c4.302-10.758 11.271-16.213 20.715-16.213 9.159 0 20 10.841 20 20 0 12.097-15.474 27.085-50 48.302z"/><circle cx="366" cy="56" r="10"/><path d="m152.09 319.31c11.926 15.498 26.326 34.218 43.336 57.622-60.95 10.319-99.426 35.108-99.426 65.068 0 53.393 105.563 70 160 70 54.063 0 160-16.491 160-70 0-29.961-38.478-54.75-99.429-65.069 16.919-23.287 31.269-41.941 43.155-57.387l.342-.445c45.068-58.572 61.932-80.488 61.932-153.099 0-27.541-6.917-54.841-20.002-78.95-2.634-4.854-8.705-6.652-13.559-4.018s-6.653 8.705-4.019 13.559c11.501 21.189 17.58 45.19 17.58 69.409 0 65.807-13.396 83.217-57.805 140.931l-.32.416c-32.847 42.685-57.341 75.911-87.874 121.453-32.191-48.038-57.917-82.512-88.06-121.686l-.158-.205c-44.387-57.65-57.783-75.049-57.783-140.909 0-80.505 65.495-146 146-146 24.219 0 48.22 6.079 69.409 17.58 4.854 2.634 10.925.835 13.559-4.019 2.635-4.854.836-10.925-4.018-13.559-24.109-13.085-51.409-20.002-78.95-20.002-91.533 0-166 74.467-166 166 0 72.668 16.865 94.572 61.935 153.108zm95.588 133.055c1.854 2.783 4.978 4.455 8.322 4.455s6.468-1.672 8.322-4.455c3.022-4.479 18.075-27.477 39.157-57.205 60.141 8.244 92.521 29.98 92.521 46.84 0 36.301-98.908 50-140 50-55.163 0-140-17.846-140-50 0-16.861 32.373-38.596 92.514-46.84 21.206 29.877 35.666 52.021 39.164 57.205z"/></g></g></svg>