<svg height="512pt" viewBox="0 0 512 512.00001" width="512pt" xmlns="http://www.w3.org/2000/svg"><path d="m245.207031 71.410156-110.425781-60.179687c-2.980469-1.625-6.585938-1.625-9.570312 0l-109.996094 59.945312c-3.214844 1.753907-5.214844 5.121094-5.214844 8.78125v223.21875c0 7.589844 8.121094 12.414063 14.785156 8.78125l100.425782-54.730469c2.980468-1.628906 6.585937-1.628906 9.570312 0l110.425781 60.179688c2.984375 1.625 6.589844 1.625 9.570313 0l110-59.949219c3.210937-1.75 5.214844-5.117187 5.214844-8.78125v-223.214843c0-7.589844-8.121094-12.414063-14.785157-8.78125l-100.425781 54.730468c-2.984375 1.628906-6.589844 1.628906-9.574219 0zm0 0" fill="#a0e557"/><path d="m245.207031 71.410156-110.425781-60.179687c-1.488281-.8125-3.136719-1.21875-4.785156-1.21875v245.992187c1.648437 0 3.296875.40625 4.785156 1.21875l110.425781 60.183594c1.492188.8125 3.140625 1.21875 4.785157 1.21875v-245.996094c-1.644532 0-3.292969-.40625-4.785157-1.21875zm0 0" fill="#d8fb93"/><path d="m378.085938 411.90625 83.089843 83.089844c9.335938 9.339844 24.472657 9.339844 33.808594 0 9.335937-9.335938 9.335937-24.472656 0-33.808594l-83.089844-83.089844zm0 0" fill="#ff5d5d"/><path d="m429.996094 310.003906c0 66.273438-53.726563 119.996094-120 119.996094-66.273438 0-119.996094-53.722656-119.996094-119.996094 0-66.273437 53.722656-119.996094 119.996094-119.996094 66.273437 0 120 53.722657 120 119.996094zm0 0" fill="#fff"/><path d="m387.996094 310.003906c0 43.078125-34.921875 78-78 78-43.074219 0-77.996094-34.921875-77.996094-78s34.921875-77.996094 77.996094-77.996094c43.078125 0 78 34.917969 78 77.996094zm0 0" fill="#72d8ff"/><path d="m129.996094 201.425781c-2.628906 0-5.210938 1.070313-7.070313 2.929688s-2.929687 4.441406-2.929687 7.070312c0 2.640625 1.070312 5.210938 2.929687 7.070313s4.441407 2.929687 7.070313 2.929687c2.632812 0 5.210937-1.070312 7.070312-2.929687s2.929688-4.441406 2.929688-7.070313c0-2.628906-1.070313-5.210937-2.929688-7.070312s-4.4375-2.929688-7.070312-2.929688zm0 0"/><path d="m309.996094 222.007812c-48.519532 0-87.996094 39.472657-87.996094 87.996094 0 48.523438 39.476562 88 87.996094 88 48.523437 0 88-39.476562 88-88 0-48.523437-39.476563-87.996094-88-87.996094zm0 155.996094c-37.492188 0-67.996094-30.503906-67.996094-68 0-37.492187 30.503906-68 67.996094-68 37.496094 0 68 30.507813 68 68 0 37.496094-30.503906 68-68 68zm0 0"/><path d="m502.058594 454.117188-29.148438-29.148438c-3.902344-3.902344-10.234375-3.902344-14.140625 0-3.90625 3.90625-3.90625 10.238281 0 14.144531l29.144531 29.144531c2.628907 2.628907 4.074219 6.121094 4.074219 9.835938s-1.445312 7.207031-4.074219 9.832031c-5.421874 5.425781-14.246093 5.425781-19.667968 0l-76.738282-76.734375c29.546876-23.851562 48.484376-60.34375 48.484376-101.1875 0-45.929687-23.941407-86.371094-60-109.5v-175.042968c0-7.128907-3.660157-13.558594-9.789063-17.195313-6.128906-3.640625-13.523437-3.777344-19.78125-.367187l-100.429687 54.730468-110.425782-60.179687c-5.992187-3.265625-13.144531-3.265625-19.140625 0l-110 59.949219c-6.429687 3.503906-10.425781 10.234374-10.425781 17.558593v223.21875c0 7.128907 3.660156 13.554688 9.789062 17.195313 3.171876 1.886718 6.683594 2.828125 10.203126 2.828125 3.277343 0 6.558593-.816407 9.578124-2.464844l100.425782-54.730469 51.011718 27.800782c-.664062 5.308593-1.007812 10.714843-1.007812 16.199218 0 71.683594 58.316406 129.996094 129.996094 129.996094 23.558594 0 45.667968-6.296875 64.742187-17.296875l79.363281 79.363281c6.40625 6.40625 14.921876 9.933594 23.980469 9.933594 9.054688 0 17.570313-3.527344 23.976563-9.933594 13.21875-13.21875 13.21875-34.730468 0-47.949218zm-142.066406-428.65625v164.550781c-15.398438-6.441407-32.289063-10.003907-49.996094-10.003907-17.710938 0-34.601563 3.5625-50 10.007813v-107.996094c0-.671875-.070313-1.324219-.195313-1.957031zm-220.425782 222.984374c-5.992187-3.265624-13.144531-3.269531-19.140625 0l-100.425781 54.730469v-223.21875l99.996094-54.496093v145.503906c0 5.523437 4.480468 10 10 10 5.523437 0 10-4.476563 10-10v-145.503906l100.191406 54.601562c-.125.632812-.191406 1.285156-.191406 1.957031v118.488281c-26.066406 16.722657-45.792969 42.496094-54.726563 72.84375zm60.433594 61.558594c0-60.652344 49.34375-109.996094 109.996094-109.996094s110 49.34375 110 109.996094-49.347656 110-110 110-109.996094-49.347656-109.996094-110zm0 0"/><path d="m309.996094 265.007812c-5.519532 0-10 4.480469-10 10 0 5.523438 4.480468 10 10 10 13.785156 0 24.996094 11.214844 24.996094 24.996094 0 5.523438 4.480468 10 10 10 5.523437 0 10-4.476562 10-10 0-24.808594-20.183594-44.996094-44.996094-44.996094zm0 0"/><path d="m430.039062 406.230469c0 2.644531 1.070313 5.210937 2.929688 7.082031 1.859375 1.859375 4.429688 2.917969 7.070312 2.917969 2.628907 0 5.210938-1.058594 7.070313-2.917969 1.859375-1.871094 2.929687-4.4375 2.929687-7.082031 0-2.628907-1.070312-5.207031-2.929687-7.066407-1.859375-1.859374-4.441406-2.929687-7.070313-2.929687-2.640624 0-5.210937 1.066406-7.070312 2.929687-1.859375 1.859376-2.929688 4.4375-2.929688 7.066407zm0 0"/></svg>