<svg id="Capa_1" enable-background="new 0 0 512.005 512.005" height="512" viewBox="0 0 512.005 512.005" width="512" xmlns="http://www.w3.org/2000/svg"><g id="XMLID_1460_"><g id="XMLID_1456_"><path id="XMLID_993_" d="m275.664 21.412-245.538 245.538c-15.174 15.173-15.174 39.775 0 54.948l160.012 160.012c15.173 15.173 39.774 15.173 54.948 0l245.538-245.538c15.173-15.173 15.173-39.775 0-54.948l-160.012-160.012c-15.173-15.174-39.774-15.174-54.948 0z" fill="#c193dc"/><path id="XMLID_1069_" d="m105.552 255.164-29.024 29.024c-7.606 7.606-7.606 19.938 0 27.545l29.024 29.024c7.606 7.606 19.938 7.606 27.545 0l29.024-29.024c7.606-7.606 7.606-19.938 0-27.545l-29.024-29.024c-7.607-7.607-19.939-7.607-27.545 0z" fill="#ffee80"/></g><g id="XMLID_221_"><path id="XMLID_222_" d="m12.616 485.215-9.688 9.688c-3.905 3.905-3.905 10.237 0 14.143 1.953 1.952 4.512 2.929 7.071 2.929s5.119-.977 7.071-2.929l9.688-9.688c3.905-3.905 3.905-10.237 0-14.143-3.905-3.905-10.237-3.905-14.142 0z"/><path id="XMLID_873_" d="m322.643 332.979c5.034 2.276 10.957.039 13.232-4.993 2.275-5.033.039-10.957-4.993-13.231l-76.823-34.726c-.089-.04-.179-.079-.27-.117-4.441-1.853-9.51-.849-12.91 2.559-3.4 3.407-4.393 8.478-2.531 12.916.031.074.064.147.096.221l34.53 77.013c1.664 3.712 5.311 5.912 9.131 5.912 1.367 0 2.757-.282 4.086-.878 5.039-2.26 7.293-8.177 5.034-13.216l-5.78-12.892 24.367-24.367zm-45.954-.961-11.141-24.848 24.785 11.204z"/><path id="XMLID_881_" d="m399.774 147.027c-12.273-1.768-24.031 2.254-33.115 11.337l-15.548 15.547c-3.905 3.905-3.905 10.237 0 14.143l54.895 54.896c1.952 1.952 4.511 2.929 7.071 2.929 2.538 0 5.076-.96 7.023-2.882.479-.473 11.783-11.628 16.173-16.174 16.317-16.897 13.853-43.469-5.857-63.179-9.319-9.321-19.915-15.067-30.642-16.617zm22.113 65.903c-1.973 2.043-5.533 5.606-8.778 8.837l-40.784-40.784 8.477-8.476c4.711-4.71 9.982-6.568 16.113-5.685 6.329.914 13.205 4.808 19.36 10.964 9.69 9.69 15.58 24.82 5.612 35.144z"/><path id="XMLID_882_" d="m172.357 421.704c9.444 9.443 22 14.645 35.356 14.645s25.912-5.201 35.356-14.645c7.791-7.791 12.224-17.347 12.819-27.631.117-2.015.085-4.073-.094-6.117-.482-5.502-5.325-9.572-10.836-9.088-5.502.483-9.57 5.335-9.087 10.836.095 1.081.112 2.161.051 3.213-.312 5.389-2.665 10.316-6.995 14.646-5.666 5.667-13.2 8.787-21.213 8.787s-15.547-3.12-21.213-8.787c-11.697-11.696-11.697-30.73 0-42.427 4.252-4.252 9.602-7.1 15.473-8.236 5.422-1.049 8.967-6.295 7.918-11.718s-6.299-8.972-11.718-7.917c-9.805 1.897-18.731 6.645-25.816 13.729-19.495 19.494-19.495 51.215-.001 70.71z"/><path id="XMLID_885_" d="m385.64 274.999c5.232 0 9.632-4.068 9.97-9.363.352-5.512-3.832-10.265-9.343-10.616l-30.711-1.958c6.638-12.009 5.121-27.159-4.721-37.001-12.005-12.005-31.912-11.632-44.377.832l-15.032 15.032c-.004.004-.007.008-.011.012-.002.002-.005.004-.007.006-3.905 3.905-3.905 10.237 0 14.143l56.568 56.568c1.953 1.952 4.512 2.929 7.071 2.929s5.119-.977 7.071-2.929c3.905-3.905 3.905-10.237 0-14.143l-16.013-16.013 38.889 2.479c.217.015.432.022.646.022zm-65.04-43.964c4.587-4.588 11.957-4.969 16.093-.832 4.136 4.136 3.755 11.506-.832 16.093-1.845 1.846-4.962 4.987-7.87 7.924-2.863-2.835-12.336-12.267-15.331-15.245z"/><path id="XMLID_886_" d="m497.696 174.353-160.012-160.012c-9.228-9.228-21.496-14.31-34.546-14.31s-25.318 5.082-34.545 14.31l-87.916 87.916c-3.905 3.905-3.905 10.237 0 14.143 3.905 3.904 10.237 3.904 14.143 0l87.916-87.916c5.45-5.45 12.695-8.452 20.403-8.452s14.953 3.002 20.403 8.452l160.013 160.013c5.45 5.449 8.451 12.695 8.451 20.402s-3.001 14.953-8.452 20.402l-245.538 245.539c-11.251 11.25-29.557 11.248-40.806 0l-160.013-160.013c-11.25-11.25-11.25-29.556 0-40.806l94.176-94.175c3.905-3.905 3.905-10.237 0-14.143-3.906-3.903-10.237-3.903-14.142 0l-94.176 94.175c-19.047 19.049-19.047 50.042 0 69.091l37.636 37.636-57.762 57.762c-3.905 3.905-3.905 10.237 0 14.142 1.953 1.952 4.512 2.929 7.071 2.929s5.119-.977 7.071-2.929l57.762-57.762 21.125 21.125-52.342 52.342c-3.905 3.905-3.905 10.237 0 14.143 1.953 1.952 4.512 2.929 7.071 2.929s5.119-.977 7.071-2.929l52.342-52.342 21.125 21.125-25.529 25.529c-3.905 3.905-3.905 10.237 0 14.143 1.953 1.952 4.512 2.929 7.071 2.929s5.119-.977 7.071-2.929l25.529-25.529 37.699 37.699c9.524 9.523 22.034 14.285 34.544 14.285 12.511 0 25.021-4.762 34.546-14.285l245.538-245.539c9.227-9.227 14.309-21.495 14.309-34.545.002-13.049-5.08-25.318-14.307-34.545z"/><path id="XMLID_889_" d="m98.48 248.093-29.023 29.023c-5.567 5.567-8.633 12.97-8.633 20.844s3.066 15.276 8.633 20.844l29.023 29.023c5.568 5.567 12.97 8.634 20.844 8.634 7.873 0 15.276-3.066 20.843-8.634l29.025-29.023c11.492-11.493 11.492-30.194-.001-41.688l-29.023-29.023c-5.568-5.567-12.97-8.634-20.844-8.634-7.873 0-15.276 3.066-20.844 8.634zm56.569 43.166c3.695 3.695 3.695 9.707.001 13.402l-29.024 29.023c-3.694 3.695-9.708 3.695-13.402 0l-29.024-29.023c-3.695-3.695-3.695-9.707 0-13.402l29.023-29.023c1.847-1.848 4.274-2.772 6.701-2.772s4.854.924 6.702 2.772z"/><path id="XMLID_890_" d="m311.976 59.345-154.789 154.79c-3.905 3.905-3.905 10.237 0 14.143 1.953 1.952 4.512 2.929 7.071 2.929s5.119-.977 7.071-2.929l154.79-154.79c3.905-3.905 3.905-10.237 0-14.143-3.905-3.905-10.237-3.905-14.143 0z"/><path id="XMLID_891_" d="m203.149 260.098 30.626-30.627c3.905-3.905 3.905-10.237-.001-14.143-3.905-3.904-10.237-3.904-14.142 0l-30.626 30.627c-3.905 3.905-3.905 10.237.001 14.143 1.953 1.952 4.512 2.929 7.071 2.929s5.119-.977 7.071-2.929z"/><path id="XMLID_892_" d="m258.16 200.944c2.559 0 5.119-.977 7.071-2.929l30.627-30.627c3.905-3.905 3.905-10.237-.001-14.143-3.905-3.904-10.237-3.904-14.142 0l-30.627 30.627c-3.905 3.905-3.905 10.237.001 14.143 1.952 1.953 4.511 2.929 7.071 2.929z"/><path id="XMLID_893_" d="m343.796 91.165-30.626 30.627c-3.905 3.905-3.905 10.237.001 14.142 1.953 1.952 4.512 2.929 7.071 2.929s5.119-.977 7.071-2.929l30.626-30.627c3.905-3.905 3.905-10.237 0-14.143-3.906-3.903-10.237-3.903-14.143.001z"/><path id="XMLID_894_" d="m156.112 151.322c2.63 0 5.2-1.069 7.07-2.93 1.86-1.86 2.93-4.439 2.93-7.07 0-2.63-1.07-5.21-2.93-7.069-1.86-1.86-4.44-2.931-7.07-2.931s-5.21 1.07-7.08 2.931c-1.86 1.859-2.92 4.439-2.92 7.069 0 2.631 1.06 5.21 2.92 7.07 1.87 1.861 4.45 2.93 7.08 2.93z"/></g></g></svg>