<?xml version="1.0" encoding="iso-8859-1"?>
<!-- Generator: Adobe Illustrator 19.0.0, SVG Export Plug-In . SVG Version: 6.00 Build 0)  -->
<svg version="1.1" id="Capa_1" xmlns="http://www.w3.org/2000/svg" xmlns:xlink="http://www.w3.org/1999/xlink" x="0px" y="0px"
	 viewBox="0 0 512.002 512.002" style="enable-background:new 0 0 512.002 512.002;" xml:space="preserve">
<path style="fill:#FFEFD5;" d="M386.162,138.152l-3.415-5.975c-3.242-5.674-9.275-9.175-15.81-9.175h-3.813
	c-7.59,0-14.385,4.708-17.05,11.816c-3.192,8.512,0.383,18.075,8.377,22.405l10.054,5.446l-22.377,33.852l-50.689-58.493
	c-4.513-5.207-11.051-8.216-17.941-8.257l-17.146-0.101l-33.673-0.003l-37.506,25.472l-37.271,21.194v-33.667l13.174-2.452
	c8.465-1.576,15.026-8.301,16.393-16.802l0,0c1.348-8.388-2.648-16.732-10.028-20.939l-0.912-0.52
	c-6.354-3.622-14.161-3.562-20.458,0.157l0,0c-11.439,6.757-20.5,16.898-25.929,29.025l-0.342,0.763
	c-5.008,11.185-6.842,23.533-5.301,35.691l3.372,26.594c1.209,9.539,9.314,16.695,18.929,16.714l56.206,0.064v55.038h96v-61.786
	l41.702,29.071c9.651,7.027,23.169,4.914,30.215-4.723l21.84-29.869c6.98-9.547,10.743-21.066,10.743-32.893l0,0
	C393.505,156.103,390.974,146.573,386.162,138.152z"/>
<polygon style="fill:#6A80FF;" points="262.838,311.335 262.838,365.002 193.005,365.002 193.005,266.002 289.005,266.002 
	367.505,286.669 348.171,359.319 262.838,332.252 "/>
<g>
	<path style="fill:#FFEFD5;" d="M247.187,365.002v119.492c0,9.669-7.839,17.508-17.508,17.508h-60.188l0,0
		c0-18.801,15.241-34.042,34.042-34.042h6.272V365.002H247.187z"/>
	<path style="fill:#FFEFD5;" d="M366.299,290.12l21.255,6.736c26.904,8.526,41.646,37.401,32.773,64.192l-21.413,64.655l9.791,3.587
		c19.12,7.005,28.15,28.872,19.542,47.327l0,0l-60.993-22.11c-10.489-3.802-15.897-15.399-12.067-25.879l28.238-77.271
		l-27.576-20.887L366.299,290.12z"/>
	<path style="fill:#FFEFD5;" d="M233.171,135.628L233.171,135.628c-26.51,0-48-21.49-48-48V58c0-26.51,21.49-48,48-48l0,0
		c26.51,0,48,21.49,48,48v29.629C281.171,114.138,259.681,135.628,233.171,135.628z"/>
</g>
<path style="fill:#898998;" d="M185.491,52.528h95.361C278.134,28.596,257.829,10,233.171,10l0,0
	C208.513,10,188.208,28.596,185.491,52.528z"/>
<path d="M247.187,419.002c-2.63,0-5.21,1.069-7.07,2.93c-1.859,1.86-2.93,4.44-2.93,7.07s1.07,5.21,2.93,7.069
	c1.86,1.86,4.44,2.931,7.07,2.931s5.21-1.07,7.07-2.931c1.859-1.859,2.93-4.439,2.93-7.069s-1.07-5.21-2.93-7.07
	C252.397,420.071,249.817,419.002,247.187,419.002z"/>
<path d="M80.507,83.002c-2.63,0-5.21,1.069-7.07,2.93s-2.93,4.44-2.93,7.07s1.069,5.21,2.93,7.069c1.86,1.86,4.44,2.931,7.07,2.931
	s5.21-1.07,7.069-2.931c1.86-1.859,2.931-4.439,2.931-7.069s-1.07-5.21-2.931-7.07C85.717,84.071,83.147,83.002,80.507,83.002z"/>
<path d="M438.116,444.842c-4.77-11.552-14.236-20.643-25.972-24.941l-0.69-0.253l18.366-55.456
	c5.139-15.516,3.876-32.078-3.557-46.636c-7.432-14.558-20.106-25.295-35.688-30.233l-13.801-4.373
	c-0.179-0.446-0.38-0.885-0.625-1.306c-1.335-2.297-3.529-3.968-6.099-4.645l-71.046-18.705v-35.719l25.816,18.796
	c5.605,4.082,12.119,6.047,18.58,6.047c9.766-0.001,19.407-4.491,25.594-12.951l21.84-29.87c8.289-11.337,12.67-24.752,12.67-38.794
	c0-11.418-2.995-22.695-8.66-32.61l-3.414-5.976c-5.01-8.768-14.396-14.214-24.493-14.214h-3.813
	c-11.693,0-22.308,7.356-26.413,18.304c-4.919,13.116,0.66,28.038,12.977,34.71l0.455,0.246l-9.089,13.75l-42.059-48.532
	c-4.777-5.513-11.158-9.286-18.152-10.869c6.504-9.371,10.329-20.735,10.329-32.981V58c0-31.981-26.019-58-58-58
	c-28.157,0-51.683,20.172-56.908,46.822l-9.138,7.222c-4.68,3.698-11.35,3.874-16.219,0.428c-12.18-8.627-28.265-8.25-40.024,0.935
	l-12.199,9.526c-4.354,3.399-5.126,9.684-1.728,14.036c1.973,2.525,4.915,3.846,7.889,3.846c2.152,0,4.32-0.691,6.147-2.118
	l12.199-9.526c4.748-3.708,11.241-3.859,16.157-0.377c10.619,7.521,24.694,8.074,35.823,1.845V87.63
	c0,2.866,0.217,5.682,0.621,8.438c-1.076-0.827-2.205-1.599-3.404-2.282l-0.909-0.518c-9.445-5.385-21.132-5.295-30.496,0.234
	c-13.297,7.854-23.66,19.455-29.971,33.55l-0.341,0.762c-5.759,12.863-7.866,27.053-6.095,41.035l3.274,25.826
	c1.893,14.932,14.669,26.191,29.72,26.191h45.434v45.136v99c0,5.522,4.478,10,10,10h6.8v83.114
	c-22.547,1.898-40.313,20.856-40.313,43.886c0,5.522,4.478,10,10,10h60.188c15.168,0,27.508-12.34,27.508-27.508v-23.992
	c0-5.522-4.478-10-10-10s-10,4.478-10,10v23.992c0,4.14-3.368,7.508-7.508,7.508H181.67c3.802-8.279,12.171-14.042,21.862-14.042
	h6.271c5.522,0,10-4.478,10-10v-92.958h17.383v18.5c0,5.522,4.478,10,10,10s10-4.478,10-10v-18.5h5.65c5.522,0,10-4.478,10-10
	v-53.667c0-5.522-4.478-10-10-10s-10,4.478-10,10v43.667h-49.833v-79h84.706l67.552,17.785l-14.036,52.745l-49.118-16.036
	c-5.248-1.718-10.896,1.151-12.609,6.402c-1.715,5.25,1.152,10.896,6.402,12.609l59.167,19.317c2.61,0.855,5.461,0.594,7.876-0.719
	c2.416-1.312,4.185-3.56,4.892-6.216l15.697-58.988l11,3.486c10.442,3.309,18.937,10.505,23.918,20.261
	c4.98,9.756,5.827,20.855,2.383,31.255l-21.413,64.655c-1.697,5.127,0.982,10.676,6.054,12.533l9.79,3.587
	c6.587,2.413,11.688,7.313,14.366,13.796c1.478,3.577,2.091,7.334,1.847,11.051l-50.816-18.421c-2.557-0.927-4.598-2.795-5.747-5.26
	s-1.269-5.23-0.335-7.785l28.237-77.271c1.896-5.188-0.772-10.93-5.96-12.825c-5.188-1.897-10.931,0.772-12.825,5.96l-28.237,77.271
	c-2.771,7.582-2.417,15.787,0.994,23.104c3.412,7.314,9.47,12.858,17.058,15.608l60.994,22.11c1.122,0.406,2.273,0.601,3.406,0.601
	c3.786,0,7.38-2.163,9.064-5.775C442.593,469.517,442.886,456.395,438.116,444.842z M233.172,20
	c15.444,0,28.756,9.267,34.694,22.527h-69.389C204.415,29.267,217.727,20,233.172,20z M195.172,62.527h76v25.102
	c0,20.953-17.047,38-38,38s-38-17.047-38-38V62.527z M289.005,179.904c-5.522,0-10,4.478-10,10v66.098h-76v-70
	c0-5.522-4.478-10-10-10s-10,4.478-10,10v14.864h-45.434c-5.003,0-9.249-3.742-9.878-8.706l-3.274-25.827
	c-1.311-10.34,0.248-20.834,4.508-30.348l0.341-0.763c4.608-10.292,12.177-18.765,21.887-24.499c3.2-1.891,7.193-1.92,10.424-0.079
	l0.908,0.518c3.738,2.131,5.791,6.418,5.108,10.666c-0.694,4.318-4.05,7.757-8.35,8.558l-13.174,2.452
	c-4.735,0.882-8.17,5.014-8.17,9.831v33.666c0,3.561,1.894,6.854,4.972,8.644c3.077,1.791,6.875,1.809,9.972,0.049l37.271-21.194
	c4.801-2.729,6.479-8.835,3.749-13.636s-8.837-6.48-13.636-3.749l-22.327,12.696v-8.165l5.004-0.932
	c12.585-2.344,22.405-12.408,24.436-25.047c0.088-0.546,0.141-1.092,0.198-1.637c10.627,13.541,27.125,22.265,45.633,22.265
	c9.163,0,17.832-2.144,25.543-5.944l14.722,0.086c4.011,0.023,7.817,1.775,10.443,4.806l50.689,58.493
	c2.05,2.364,5.093,3.645,8.207,3.43c3.121-0.203,5.968-1.854,7.692-4.464l22.377-33.853c1.547-2.34,2.04-5.221,1.359-7.941
	s-2.473-5.03-4.938-6.366l-10.055-5.446c-3.584-1.941-5.208-6.284-3.776-10.102c1.194-3.186,4.283-5.326,7.687-5.326h3.813
	c2.938,0,5.67,1.585,7.128,4.136l3.414,5.976c3.941,6.899,6.025,14.744,6.025,22.688c0,9.77-3.048,19.103-8.814,26.99l-21.84,29.869
	c-3.782,5.173-11.075,6.313-16.258,2.541l-37.588-27.366v-7.931C299.005,184.382,294.527,179.904,289.005,179.904z"/>
<g>
</g>
<g>
</g>
<g>
</g>
<g>
</g>
<g>
</g>
<g>
</g>
<g>
</g>
<g>
</g>
<g>
</g>
<g>
</g>
<g>
</g>
<g>
</g>
<g>
</g>
<g>
</g>
<g>
</g>
</svg>
