<?xml version="1.0" encoding="iso-8859-1"?>
<!-- Generator: Adobe Illustrator 19.0.0, SVG Export Plug-In . SVG Version: 6.00 Build 0)  -->
<svg version="1.1" id="Capa_1" xmlns="http://www.w3.org/2000/svg" xmlns:xlink="http://www.w3.org/1999/xlink" x="0px" y="0px"
	 viewBox="0 0 512 512" style="enable-background:new 0 0 512 512;" xml:space="preserve">
<rect x="45.848" y="77.37" style="fill:#ECECF0;" width="281.6" height="333.25"/>
<path style="fill:#2C96B2;" d="M327.451,77.373H45.848V26.901c0-9.334,7.566-16.901,16.9-16.901H310.55
	c9.334,0,16.901,7.567,16.901,16.901V77.373z"/>
<path style="fill:#516787;" d="M45.848,410.624h281.603v74.475c0,9.334-7.567,16.901-16.901,16.901H62.748
	c-9.334,0-16.901-7.567-16.901-16.901L45.848,410.624L45.848,410.624z"/>
<path style="fill:#ECECF0;" d="M186.649,475.528L186.649,475.528c-10.677,0-19.333-8.656-19.333-19.333l0,0
	c0-10.678,8.656-19.333,19.333-19.333l0,0c10.678,0,19.333,8.656,19.333,19.333l0,0
	C205.983,466.872,197.327,475.528,186.649,475.528z"/>
<path d="M186.649,485.527c-16.174,0-29.333-13.159-29.333-29.333s13.159-29.333,29.333-29.333s29.333,13.159,29.333,29.333
	C215.983,472.368,202.824,485.527,186.649,485.527z M186.649,446.861c-5.146,0-9.333,4.187-9.333,9.333s4.187,9.333,9.333,9.333
	s9.333-4.187,9.333-9.333C195.983,451.048,191.796,446.861,186.649,446.861z"/>
<path d="M278.09,381c-0.65,0-1.31-0.07-1.95-0.2c-0.64-0.12-1.27-0.32-1.87-0.57c-0.609-0.25-1.189-0.56-1.729-0.92
	c-0.55-0.359-1.061-0.78-1.521-1.24s-0.88-0.97-1.239-1.52c-0.36-0.54-0.671-1.12-0.921-1.73c-0.25-0.6-0.439-1.229-0.569-1.869
	c-0.13-0.641-0.2-1.301-0.2-1.95c0-0.65,0.07-1.31,0.2-1.95s0.319-1.271,0.569-1.88c0.25-0.601,0.561-1.18,0.921-1.72
	c0.359-0.551,0.779-1.061,1.239-1.521c0.46-0.46,0.971-0.88,1.521-1.24c0.54-0.37,1.12-0.67,1.729-0.92
	c0.601-0.25,1.231-0.45,1.87-0.58c1.28-0.25,2.61-0.26,3.91,0c0.63,0.13,1.26,0.33,1.87,0.58c0.6,0.25,1.18,0.55,1.72,0.92
	c0.55,0.36,1.061,0.78,1.521,1.24s0.88,0.97,1.25,1.521c0.359,0.54,0.67,1.119,0.92,1.72c0.25,0.609,0.439,1.24,0.569,1.88
	c0.131,0.64,0.19,1.3,0.19,1.95c0,0.649-0.06,1.31-0.19,1.95s-0.319,1.27-0.569,1.869c-0.25,0.61-0.561,1.19-0.92,1.73
	c-0.37,0.55-0.79,1.06-1.25,1.52s-0.971,0.881-1.521,1.24c-0.54,0.36-1.12,0.67-1.72,0.92c-0.61,0.25-1.24,0.45-1.87,0.57
	C279.399,380.93,278.74,381,278.09,381z"/>
<path d="M236.573,381H95.207c-5.523,0-10-4.478-10-10s4.477-10,10-10h141.365c5.523,0,10,4.478,10,10S242.096,381,236.573,381z"/>
<path d="M206.649,53.687h-40c-5.523,0-10-4.478-10-10s4.477-10,10-10h40c5.523,0,10,4.478,10,10S212.172,53.687,206.649,53.687z"/>
<rect x="188.75" y="140.42" style="fill:#E95542;" width="277.4" height="39.12"/>
<polygon style="fill:#F6B244;" points="199.435,179.544 205.284,217.564 211.658,259.026 224.238,340.841 430.664,340.841 
	443.244,259.026 449.618,217.564 455.467,179.544 "/>
<polygon style="fill:#26CFAD;" points="449.618,217.564 443.244,259.026 211.658,259.026 205.284,217.564 "/>
<path d="M466.152,130.418h-68.89l-23.624-34.472c-3.122-4.554-9.344-5.717-13.902-2.596c-4.556,3.122-5.718,9.347-2.596,13.902
	l15.876,23.165h-35.565V26.901c0-14.833-12.067-26.901-26.9-26.901H62.748c-14.833,0-26.9,12.068-26.9,26.901V485.1
	c0,14.833,12.068,26.9,26.901,26.9h247.802c14.833,0,26.9-12.067,26.9-26.9V350.841h93.213c4.935,0,9.134-3.602,9.884-8.48
	l23.499-152.817h2.105c5.522,0,10-4.478,10-10v-39.125C476.152,134.895,471.675,130.418,466.152,130.418z M198.75,169.543v-19.125
	h45.183l-13.107,19.125H198.75z M456.152,150.418v19.125h-32.077l-13.107-19.125H456.152z M399.829,169.543H255.073l13.106-19.125
	h118.543L399.829,169.543z M55.848,26.901c0-3.806,3.096-6.901,6.901-6.901h247.802c3.805,0,6.9,3.096,6.9,6.901v40.472H55.848
	V26.901z M317.451,485.1c0,3.805-3.096,6.9-6.9,6.9H62.748c-3.805,0-6.901-3.096-6.901-6.9v-64.476h261.604V485.1z M422.084,330.841
	H232.818l-9.505-61.814h208.276L422.084,330.841z M211.091,189.544H443.81l-2.771,18.021H213.862L211.091,189.544z M216.939,227.564
	h221.024l-3.299,21.462H220.238L216.939,227.564z M214.354,342.36c0.75,4.879,4.948,8.48,9.884,8.48h93.213v49.783H55.848V87.373
	h261.604v43.045h-35.566l15.875-23.165c3.122-4.556,1.96-10.78-2.596-13.902c-4.556-3.121-10.78-1.96-13.902,2.596l-23.624,34.472
	H188.75c-5.523,0-10,4.477-10,10v39.125c0,5.522,4.477,10,10,10h2.105L214.354,342.36z"/>
<polygon style="fill:#EC7349;" points="99.219,151.612 99.219,245.149 74.701,245.149 118.191,306.781 161.681,245.149 
	137.163,245.149 137.163,151.612 "/>
<path d="M118.191,316.781c-3.25,0-6.297-1.579-8.17-4.234l-43.49-61.632c-2.154-3.053-2.427-7.051-0.708-10.367
	c1.719-3.316,5.143-5.398,8.878-5.398h14.518v-83.538c0-5.522,4.477-10,10-10h37.944c5.523,0,10,4.478,10,10v83.538h14.518
	c3.735,0,7.16,2.082,8.878,5.398c1.719,3.316,1.446,7.314-0.708,10.367l-43.49,61.632
	C124.488,315.202,121.441,316.781,118.191,316.781z M93.997,255.149l24.194,34.287l24.194-34.287h-5.222c-5.523,0-10-4.477-10-10
	v-83.538h-17.944v83.538c0,5.523-4.477,10-10,10L93.997,255.149L93.997,255.149z"/>
<g>
</g>
<g>
</g>
<g>
</g>
<g>
</g>
<g>
</g>
<g>
</g>
<g>
</g>
<g>
</g>
<g>
</g>
<g>
</g>
<g>
</g>
<g>
</g>
<g>
</g>
<g>
</g>
<g>
</g>
</svg>
