<?xml version="1.0" encoding="iso-8859-1"?>
<!-- Generator: Adobe Illustrator 19.0.0, SVG Export Plug-In . SVG Version: 6.00 Build 0)  -->
<svg version="1.1" id="Capa_1" xmlns="http://www.w3.org/2000/svg" xmlns:xlink="http://www.w3.org/1999/xlink" x="0px" y="0px"
	 viewBox="0 0 512 512" style="enable-background:new 0 0 512 512;" xml:space="preserve">
<path style="fill:#36D28F;" d="M313.885,323.526c-11.956-2.174-20.646-12.586-20.646-24.738v-14.016h-74.477v14.016
	c0,12.151-8.69,22.564-20.646,24.738L91,343l0,0c25.229,18.883,40.082,48.553,40.082,80.066V448v54h246.585v-54h3.251v-24.934
	c0-31.513,14.853-61.183,40.082-80.066l0,0L313.885,323.526z"/>
<g>
	<path style="fill:#FFEFD5;" d="M107,456l107.667-28.667l3.612-13.229c5.144-18.837,19.263-33.915,37.721-40.284l0,0v54.28
		c0,23.155-15.998,43.238-38.566,48.415l-106.36,24.398c-3.149,0.722-6.37,1.087-9.601,1.087l0,0
		c-28.692,0-49.313-27.598-41.18-55.114L91,343l8.996,11.332c20.079,25.293,31.032,56.623,31.086,88.918l0,0"/>
	<path style="fill:#FFEFD5;" d="M405,456l-107.667-28.667l-3.612-13.229c-5.144-18.837-19.263-33.915-37.721-40.284l0,0v54.28
		c0,23.155,15.998,43.238,38.566,48.415l106.36,24.398c3.149,0.722,6.37,1.087,9.601,1.087l0,0c28.692,0,49.313-27.598,41.18-55.114
		L421,343l-0.734,0.822c-24.43,27.357-37.933,62.751-37.933,99.428l0,0"/>
</g>
<path style="fill:#FF8E4B;" d="M340.667,125.438l-25.48-53.051C310.169,62.345,299.908,56,288.682,56H256h-32.15
	c-11.501,0-21.964,6.656-26.837,17.075l-24.68,52.364L340.667,125.438L340.667,125.438z"/>
<g>
	<polygon style="fill:#FFC66C;" points="223.479,56 255.971,10 288.596,56 	"/>
	<polygon style="fill:#FFC66C;" points="322.601,216.356 357.718,216.001 352.197,187.029 368.527,159.389 338.477,150.732 
		334.604,119.74 292.408,125.157 255.396,97.53 218.95,125.9 176.653,121.337 173.408,152.4 143.539,161.664 160.424,188.968 
		155.49,218.046 190.607,217.691 	"/>
</g>
<g>
	<path style="fill:#FFEFD5;" d="M256,289.792L256,289.792c-36.451,0-66-29.549-66-66V171.5l7.008-1.713
		c41.133-10.056,84.15-9.466,124.992,1.713l0,0v52.292C322,260.242,292.451,289.792,256,289.792z"/>
	<path style="fill:#FFEFD5;" d="M219.269,312.186c20.356,20.356,53.36,20.356,73.716,0V283h-74.224L219.269,312.186z"/>
</g>
<path style="fill:#FF5D5D;" d="M219.269,312.186c20.356,20.356,53.36,20.356,73.716,0l64.139,19.588
	c-6.694,18.611-24.503,31.92-45.42,31.92c-4.746,0-9.328-0.697-13.661-1.974c-8.278,14.669-23.999,24.58-42.043,24.58
	s-33.765-9.911-42.043-24.58c-4.333,1.277-8.914,1.974-13.661,1.974c-20.913,0-38.719-13.304-45.416-31.91L219.269,312.186z"/>
<path d="M430.462,410.288l0.015,0.05c1.31,4.311,5.263,7.071,9.543,7.071c0.967,0,1.952-0.141,2.925-0.437
	c5.284-1.606,8.258-7.217,6.652-12.501c-1.605-5.284-7.191-8.263-12.476-6.66C431.838,399.418,428.856,405.004,430.462,410.288z"/>
<path d="M461.297,444.051l-1.542-5.217c-1.566-5.296-7.13-8.321-12.424-6.755c-5.296,1.565-8.321,7.128-6.755,12.425l1.542,5.217
	c2.974,10.061,1.078,20.65-5.202,29.055C430.637,487.18,421.019,492,410.527,492c-2.476,0-4.954-0.28-7.365-0.834l-106.36-24.398
	C278.667,462.607,266,446.707,266,428.1v-37.831c8.706,6.466,15.14,15.727,18.074,26.471l3.613,13.229
	c0.938,3.436,3.632,6.112,7.074,7.028l107.667,28.667c5.334,1.422,10.815-1.753,12.236-7.09s-1.753-10.815-7.09-12.236
	l-16.655-4.435v-18.837c0-23.211,9.133-45.553,24.946-62.162l3.955,13.381c1.286,4.351,5.269,7.168,9.585,7.168
	c0.939,0,1.893-0.134,2.839-0.413c5.296-1.565,8.321-7.128,6.755-12.425l-8.409-28.449c-0.082-0.277-0.168-0.515-0.257-0.73
	c-1.235-3.236-4.073-5.643-7.545-6.274l-107.116-19.475c-7.205-1.31-12.434-7.575-12.434-14.898v-15.53
	c16.717-13.307,27.721-33.485,28.679-56.232h25.201c2.962,0,5.772-1.313,7.672-3.586s2.694-5.271,2.169-8.187l-4.559-25.312
	l14.655-24.243c1.601-2.647,1.886-5.887,0.772-8.773c-1.113-2.886-3.5-5.095-6.464-5.981l-23.643-7.071l-2.808-24.478
	c-0.303-2.641-1.645-5.052-3.729-6.702c-1.455-1.151-3.192-1.853-5.004-2.073c3.856-2.828,5.239-8.096,3.029-12.519l-15.079-30.186
	c-5.948-11.905-17.193-19.831-30.113-21.557L264.128,4.215C262.253,1.571,259.212,0,255.971,0c-0.003,0-0.006,0-0.01,0
	c-3.245,0.003-6.286,1.581-8.158,4.23l-29.82,42.217c-12.966,1.96-24.378,10.311-30.028,22.39l-13.798,29.498
	c-2.035,4.351-0.665,9.418,3.018,12.204c-2.293-0.034-4.545,0.718-6.361,2.156c-2.084,1.649-3.426,4.061-3.729,6.702l-2.808,24.478
	l-23.643,7.071c-2.964,0.886-5.351,3.095-6.464,5.981c-1.114,2.886-0.829,6.125,0.772,8.773l14.655,24.243l-4.559,25.312
	c-0.525,2.916,0.27,5.914,2.169,8.187c1.9,2.272,4.71,3.586,7.672,3.586h25.201c0.958,22.746,11.963,42.925,28.679,56.232v15.53
	c0,7.323-5.229,13.589-12.434,14.898L89.211,333.161c-3.537,0.643-6.407,3.133-7.604,6.462c-0.07,0.163-0.138,0.339-0.198,0.542
	L50.703,444.051c-4.779,16.169-1.732,33.189,8.359,46.696C69.154,504.254,84.612,512,101.473,512h309.055
	c16.86,0,32.318-7.746,42.411-21.253C463.03,477.24,466.077,460.22,461.297,444.051z M363.208,342.657l36.195,6.581
	c-18.098,20.057-28.486,46.449-28.486,73.828v13.512l-65.453-17.428l-2.097-7.68c-2.646-9.69-7.318-18.522-13.556-26.013
	c4.859-3.479,9.189-7.692,12.789-12.478c3.009,0.476,6.052,0.716,9.104,0.716C333.443,373.694,353.229,361.5,363.208,342.657z
	 M255.988,27.31L269.244,46h-26.458L255.988,27.31z M192.273,106.809l13.798-29.498C209.285,70.44,216.264,66,223.85,66h64.832
	c7.485,0,14.214,4.16,17.559,10.856l15.079,30.185c1.02,2.041,2.648,3.571,4.55,4.502l-30.294,3.578l-33.513-25.547
	c-3.581-2.729-8.544-2.729-12.125,0l-33.513,25.547l-29.098-3.437C189.43,110.736,191.219,109.063,192.273,106.809z
	 M187.625,161.786c-4.476,1.094-7.625,5.106-7.625,9.714v35.527h-13.157l3.107-17.254c0.431-2.395-0.025-4.864-1.284-6.946
	l-9.926-16.42l17.586-5.26c3.833-1.146,6.614-4.467,7.07-8.441l2.416-21.061l32.285,3.813c2.575,0.303,5.171-0.405,7.235-1.979
	L256,110.101l30.668,23.378c2.064,1.574,4.659,2.284,7.235,1.979l32.285-3.813l2.416,21.061c0.456,3.974,3.237,7.294,7.07,8.441
	l17.586,5.26l-9.926,16.42c-1.259,2.082-1.715,4.551-1.284,6.946l3.107,17.254H332V171.5c0-4.506-3.014-8.456-7.36-9.645
	c-42.375-11.6-87.331-12.216-130.007-1.782L187.625,161.786z M200,223.792v-44.441c36.738-8.876,75.284-8.892,112-0.094v44.535
	c0,30.879-25.122,56-56,56S200,254.67,200,223.792z M303.151,283.33c-0.008,0.066-0.016,0.08-0.025,0.02
	C303.134,283.344,303.142,283.337,303.151,283.33z M284.156,306.769c-15.993,14.274-40.346,14.216-56.266-0.181
	c0.571-2.516,0.872-5.127,0.872-7.8v-4.063c8.462,3.261,17.641,5.067,27.239,5.067s18.776-1.806,27.239-5.067v4.063
	C283.239,301.525,283.558,304.197,284.156,306.769z M208.874,283.35c-0.01,0.069-0.019,0.048-0.028-0.023
	C208.855,283.335,208.864,283.343,208.874,283.35z M199.904,333.364c6.959-1.265,13.118-4.526,17.945-9.123
	c11.2,8.777,24.735,13.183,38.279,13.183c13.487,0,26.965-4.37,38.137-13.073c4.809,4.54,10.928,7.759,17.831,9.014l29.901,5.436
	c-7.124,9.203-18.253,14.894-30.292,14.894c-3.662,0-7.308-0.527-10.835-1.566c-4.465-1.314-9.248,0.624-11.535,4.678
	c-3.531,6.257-8.814,11.434-15.086,14.858c-4.63-2.994-9.651-5.456-14.986-7.297c-0.106-0.037-0.216-0.057-0.323-0.09
	c-0.201-0.062-0.402-0.12-0.606-0.169c-0.186-0.045-0.372-0.081-0.559-0.115c-0.199-0.036-0.398-0.068-0.599-0.092
	c-0.194-0.023-0.387-0.038-0.582-0.049c-0.197-0.012-0.394-0.02-0.592-0.02s-0.395,0.008-0.592,0.02
	c-0.194,0.011-0.388,0.026-0.582,0.049c-0.201,0.024-0.4,0.056-0.599,0.092c-0.188,0.034-0.375,0.07-0.561,0.115
	c-0.203,0.049-0.403,0.107-0.604,0.168c-0.108,0.033-0.218,0.054-0.325,0.091c-5.331,1.84-10.349,4.3-14.977,7.292
	c-6.327-3.445-11.544-8.561-15.095-14.853c-2.289-4.054-7.069-5.991-11.535-4.678c-3.528,1.039-7.173,1.566-10.835,1.566
	c-12.039,0-23.169-5.691-30.292-14.894L199.904,333.364z M148.792,342.657c9.98,18.844,29.766,31.038,51.504,31.038
	c3.048,0,6.087-0.239,9.093-0.715c3.598,4.803,7.919,8.995,12.799,12.477c-6.238,7.49-10.909,16.323-13.555,26.013l-2.098,7.68
	l-65.453,17.428v-13.512c0-27.379-10.388-53.771-28.486-73.828L148.792,342.657z M101.473,492c-10.491,0-20.109-4.82-26.389-13.225
	c-6.28-8.404-8.176-18.994-5.202-29.055l26.253-88.817c15.813,16.609,24.946,38.951,24.946,62.162v18.837l-16.655,4.435
	c-5.337,1.421-8.512,6.899-7.09,12.236c1.421,5.337,6.899,8.512,12.236,7.09l107.667-28.667c3.441-0.916,6.136-3.593,7.074-7.028
	l3.613-13.229c2.934-10.743,9.368-20.004,18.074-26.47V428.1c0,18.607-12.667,34.508-30.802,38.668l-106.36,24.398
	C106.427,491.72,103.949,492,101.473,492z M194.655,492l25.015-5.738c15.366-3.525,28.12-12.654,36.331-24.956
	c8.21,12.302,20.965,21.431,36.331,24.956L317.345,492H194.655z"/>
<path d="M228.75,224.67c2.63,0,5.21-1.07,7.07-2.93s2.93-4.44,2.93-7.07c0-2.64-1.07-5.21-2.93-7.07c-1.86-1.87-4.44-2.93-7.07-2.93
	c-2.64,0-5.21,1.06-7.07,2.93c-1.87,1.86-2.93,4.43-2.93,7.07c0,2.63,1.06,5.21,2.93,7.07C223.54,223.6,226.11,224.67,228.75,224.67
	z"/>
<path d="M283,224.67c2.63,0,5.21-1.07,7.07-2.93s2.93-4.44,2.93-7.07s-1.07-5.21-2.93-7.07c-1.86-1.87-4.44-2.93-7.07-2.93
	s-5.21,1.06-7.07,2.93c-1.86,1.86-2.93,4.43-2.93,7.07c0,2.63,1.07,5.21,2.93,7.07C277.79,223.6,280.37,224.67,283,224.67z"/>
<g>
</g>
<g>
</g>
<g>
</g>
<g>
</g>
<g>
</g>
<g>
</g>
<g>
</g>
<g>
</g>
<g>
</g>
<g>
</g>
<g>
</g>
<g>
</g>
<g>
</g>
<g>
</g>
<g>
</g>
</svg>
