<?xml version="1.0" encoding="iso-8859-1"?>
<!-- Generator: Adobe Illustrator 19.0.0, SVG Export Plug-In . SVG Version: 6.00 Build 0)  -->
<svg version="1.1" id="Capa_1" xmlns="http://www.w3.org/2000/svg" xmlns:xlink="http://www.w3.org/1999/xlink" x="0px" y="0px"
	 viewBox="0 0 512 512" style="enable-background:new 0 0 512 512;" xml:space="preserve">
<polygon style="fill:#FF5D5D;" points="437.514,188.085 502,188.085 502,298.582 428.939,298.582 83.061,298.582 10,298.582 
	10,188.085 74.486,188.085 "/>
<polygon style="fill:#FE8F8D;" points="402.52,274 428.939,274 428.939,133.003 364.454,133.003 147.546,133.003 83.061,133.003 
	83.061,274 109.48,274 "/>
<polyline style="fill:#FF5D5D;" points="353.004,198.502 353.004,88.005 288.518,88.005 223.482,88.005 158.996,88.005 
	158.996,198.502 "/>
<rect x="29.999" y="300.082" style="fill:#898998;" width="451.998" height="160.416"/>
<rect x="10" y="461.997" style="fill:#FEDA9B;" width="491.987" height="39.999"/>
<rect x="83.058" y="274.003" style="fill:#B3B6C3;" width="345.881" height="187.995"/>
<rect x="144.016" y="274.003" style="fill:#898998;" width="223.964" height="187.995"/>
<path style="fill:#FF6E37;" d="M405.116,274l-2.484-3.114C340.036,192.403,290.558,104.303,256.12,10.007l0,0h-0.127l0,0
	c-34.438,94.296-83.916,182.396-146.512,260.879L106.997,274H405.116z"/>
<path style="fill:#FFC66C;" d="M186.197,234.001h139.718c-26.209-38.777-49.541-79.35-69.858-121.479
	C235.739,154.652,212.407,195.223,186.197,234.001z"/>
<g>
	<rect x="144.016" y="274.003" style="fill:#FFB954;" width="39.999" height="187.995"/>
	<rect x="327.971" y="274.003" style="fill:#FFB954;" width="39.999" height="187.995"/>
	<path style="fill:#FFB954;" d="M256.12,362.868h39.999v-10.875c0-14.392-7.606-27.711-19.999-35.025l0,0
		c-12.394-7.315-19.999-20.634-19.999-35.025v-7.596v7.596c0,14.392-7.606,27.711-19.999,35.025l0,0
		c-12.394,7.315-19.999,20.634-19.999,35.025v10.875H256.12z"/>
	<rect x="224.124" y="362.87" style="fill:#FFB954;" width="63.998" height="99.067"/>
</g>
<path d="M177.912,228.401c-2.071,3.064-2.282,7.023-0.546,10.29c1.735,3.267,5.132,5.31,8.832,5.31h29.924c5.523,0,10-4.477,10-10
	s-4.477-10-10-10h-11.314c18.596-28.69,35.761-58.482,51.249-88.95c15.489,30.468,32.653,60.26,51.249,88.95H296.12
	c-5.523,0-10,4.477-10,10s4.477,10,10,10h29.796c3.699,0,7.097-2.042,8.832-5.31c1.735-3.267,1.525-7.225-0.546-10.29
	c-25.841-38.233-49.103-78.683-69.136-120.224c-1.668-3.458-5.168-5.656-9.007-5.656c-3.839,0-7.339,2.198-9.007,5.656
	C227.016,149.717,203.755,190.166,177.912,228.401z"/>
<path d="M256.13,224.001h-0.01c-5.523,0-9.995,4.477-9.995,10s4.482,10,10.005,10s10-4.477,10-10S261.653,224.001,256.13,224.001z"
	/>
<path d="M502,308.582c5.523,0,10-4.477,10-10V188.085c0-5.523-4.477-10-10-10h-63.061v-35.649
	c12.252-2.553,21.485-13.434,21.485-26.431c0-5.523-4.477-10-10-10s-10,4.477-10,10c0,3.86-3.14,7-7,7h-4.486h-64.486
	c-0.494,0-0.975,0.048-1.449,0.117V97.436c12.252-2.553,21.485-13.434,21.485-26.431c0-5.523-4.477-10-10-10s-10,4.477-10,10
	c0,3.86-3.14,7-7,7h-4.486h-57.952c-10.815-23.335-20.675-47.157-29.54-71.429c-1.441-3.945-5.193-6.569-9.393-6.569h-0.126
	c-4.2,0-7.952,2.625-9.393,6.569c-8.865,24.272-18.725,48.093-29.54,71.429H159.3h-0.304h-4.182c-3.86,0-7-3.14-7-7
	c0-5.523-4.477-10-10-10c-5.523,0-10,4.477-10,10c0,12.89,9.082,23.692,21.181,26.361v25.754c-0.475-0.069-0.956-0.117-1.45-0.117
	H83.365H83.06h-4.182c-3.86,0-7-3.14-7-7c0-5.523-4.477-10-10-10s-10,4.477-10,10c0,12.89,9.082,23.692,21.181,26.361v35.72H10
	c-5.523,0-10,4.477-10,10v110.497c0,5.523,4.477,10,10,10h10v143.413H10c-5.523,0-10,4.477-10,10v39.999c0,5.523,4.477,10,10,10
	h491.987c5.523,0,10-4.477,10-10v-39.999c0-5.523-4.477-10-10-10h-9.986V308.582H502z M492.001,198.085v90.498h-53.062V274v-75.915
	H492.001z M364.453,143.003h54.487V264h-9.004c-16.627-20.884-32.291-42.423-46.98-64.562c0.029-0.309,0.047-0.62,0.047-0.936
	v-55.615C363.479,142.955,363.96,143.003,364.453,143.003z M343.005,98.004v69.995c-13.806-22.762-26.611-46.109-38.389-69.995
	C304.616,98.004,343.005,98.004,343.005,98.004z M256.056,37.925c7.085,17.848,14.702,35.444,22.839,52.775
	c0.31,1.109,0.803,2.14,1.451,3.058c28.546,60.229,63.403,117.214,104.191,170.243H127.576
	c40.941-53.23,75.907-110.443,104.513-170.923c0.302-0.511,0.557-1.049,0.765-1.613C241.127,73.886,248.867,56.034,256.056,37.925z
	 M357.974,451.995h-19.999V283.999h19.999V451.995z M298.119,451.995v-79.328c4.564-0.927,8-4.961,8-9.799v-10.875
	c0-17.846-9.548-34.567-24.916-43.638c-8.71-5.14-14.33-14.34-15.011-24.356h51.785v167.995H298.119z M93.06,451.995V283.999h40.952
	v167.995H93.06z M154.012,283.999h19.999v167.995h-19.999V283.999z M194.011,283.999h52.039
	c-0.681,10.017-6.301,19.216-15.011,24.356c-15.37,9.071-24.916,25.791-24.916,43.638v10.875c0,4.838,3.436,8.872,8,9.799v79.328
	h-20.11L194.011,283.999L194.011,283.999z M234.121,372.868h43.999v79.064h-43.999L234.121,372.868L234.121,372.868z
	 M286.119,352.868h-59.998v-0.875c0-10.802,5.779-20.923,15.083-26.414c5.9-3.482,10.944-8.093,14.917-13.462
	c3.974,5.369,9.017,9.979,14.917,13.461c9.303,5.491,15.083,15.613,15.083,26.414V352.868z M168.995,168.184v-70.18h38.502
	C195.687,121.956,182.844,145.364,168.995,168.184z M148.996,142.886v55.615c0,0.367,0.023,0.728,0.061,1.085
	c-14.66,22.086-30.291,43.576-46.881,64.413h-9.117V143.003h54.487C148.04,143.003,148.521,142.955,148.996,142.886z
	 M19.999,198.085h53.062V274v14.583H19.999V198.085z M39.999,308.582h33.062v143.413H39.999V308.582z M491.987,491.994H19.999
	v-19.999h471.987V491.994z M472.001,451.995h-94.027V283.999h40.966v93.664c0,5.523,4.477,10,10,10s10-4.477,10-10v-69.082h33.062
	V451.995z"/>
<path d="M428.938,409.666c-2.63,0-5.21,1.06-7.07,2.93c-1.86,1.86-2.93,4.43-2.93,7.07c0,2.63,1.07,5.21,2.93,7.07
	c1.86,1.86,4.44,2.93,7.07,2.93c2.64,0,5.21-1.07,7.07-2.93c1.86-1.86,2.93-4.44,2.93-7.07c0-2.64-1.07-5.21-2.93-7.07
	C434.148,410.726,431.578,409.666,428.938,409.666z"/>
<g>
</g>
<g>
</g>
<g>
</g>
<g>
</g>
<g>
</g>
<g>
</g>
<g>
</g>
<g>
</g>
<g>
</g>
<g>
</g>
<g>
</g>
<g>
</g>
<g>
</g>
<g>
</g>
<g>
</g>
</svg>
