<?xml version="1.0" encoding="iso-8859-1"?>
<!-- Generator: Adobe Illustrator 19.0.0, SVG Export Plug-In . SVG Version: 6.00 Build 0)  -->
<svg version="1.1" id="Capa_1" xmlns="http://www.w3.org/2000/svg" xmlns:xlink="http://www.w3.org/1999/xlink" x="0px" y="0px"
	 viewBox="0 0 512 512" style="enable-background:new 0 0 512 512;" xml:space="preserve">
<circle style="fill:#FFCDAC;" cx="255.997" cy="256.066" r="245.939"/>
<path style="fill:#FF8E4B;" d="M351.101,82.385c61.312,33.644,102.873,98.807,102.873,173.679
	c0,109.338-88.636,197.975-197.975,197.975S58.026,365.401,58.026,256.063S146.662,58.089,256,58.089
	c27.334,0,53.376,5.54,77.061,15.558"/>
<circle style="fill:#A0E557;" cx="253.788" cy="376.707" r="60.525"/>
<g>
	<path style="fill:#EF3C3C;" d="M152.827,178.782c0,0,37.579,57.701,96.036,48.75c-41.556-30.518-46.397-49.001-72.721-74.591
		l-3.728-3.516c-6.279-5.923-16.047-6.055-22.483-0.303l0,0c-6.29,5.622-7.373,15.063-2.518,21.963L152.827,178.782z"/>
	<path style="fill:#EF3C3C;" d="M149.335,148.17l-3.551-3.595c-4.072-4.123-5.815-10.009-4.643-15.683l0,0"/>
</g>
<g>
	<path style="fill:#62CD4D;" d="M179.639,331.394c-12.237,12.237-29.063,17.07-44.937,14.525
		c-2.544-15.874,2.289-32.701,14.525-44.937c12.237-12.237,29.064-17.07,44.937-14.525
		C196.709,302.33,191.876,319.157,179.639,331.394z"/>
	<path style="fill:#62CD4D;" d="M112.827,249.799c-12.237-12.237-17.07-29.063-14.525-44.937
		c15.874-2.544,32.701,2.289,44.937,14.525c12.237,12.237,17.07,29.064,14.525,44.937
		C141.89,266.869,125.063,262.036,112.827,249.799z"/>
</g>
<path style="fill:#FF5D5D;" d="M300.926,304.108c0,0,120.729,71.543,153.736-19.87C497.693,165.061,297.13,95.42,245.419,72.839
	c-14.207-6.204-28.492-13.721-41.739-21.359l-0.02,0.764c-1.493,56.549,31.159,108.277,82.618,131.772
	c39.474,18.024,77.887,41.52,78.404,64.863c0.802,36.172-53.999,22.478-53.999,22.478"/>
<path style="fill:#FE8F8D;" d="M310.682,271.358c0,0,5.912-42.09-33.753-53.849c-17.031,23.62,4.664,53.469,4.664,53.469
	s-27.861,5.02-32.997,44.02c36.631,5.317,52.329-10.89,52.329-10.89"/>
<circle style="fill:#FFB954;" cx="294.178" cy="93.317" r="16.815"/>
<path d="M436.975,75.089C388.634,26.748,324.363,0.127,256,0.127c-30.264,0-59.738,5.196-87.799,15.458
	c-0.135-1.89-0.22-3.787-0.241-5.693C167.903,4.406,163.439,0,157.966,0c-0.036,0-0.072,0-0.108,0
	c-5.521,0.059-9.949,4.582-9.891,10.102c0.417,39.229,21.244,76.049,54.503,96.691c13.508,37.544,41.739,69.005,79.653,86.317
	c65.029,29.692,72.408,49.047,72.562,55.989c0.142,6.402-2.151,8.994-3.889,10.385c-6.232,4.995-19.434,5.066-29.838,3.642
	c-0.16-4.683-0.821-10.666-2.68-17.072c-3.87-13.335-13.692-30.775-38.509-38.133c-4.077-1.209-8.467,0.292-10.951,3.738
	c-14.127,19.592-7.629,41.636-1.525,54.43c-9.894,5.671-22.781,17.493-27.596,41.515c-32.157,6.546-56.431,35.042-56.431,69.103
	c0,29.156,17.787,54.236,43.078,64.96c-89.597-14.261-158.3-92.057-158.3-185.606c0-58.617,26.625-112.835,73.048-148.751
	c4.367-3.378,5.169-9.658,1.79-14.025c-3.379-4.368-9.658-5.168-14.025-1.79c-24.586,19.021-44.929,43.719-58.831,71.424
	c-14.583,29.063-21.977,60.4-21.977,93.141c0,114.663,93.286,207.948,207.948,207.948c54.927,0,106.734-21.219,145.875-59.748
	c3.935-3.874,3.984-10.203,0.111-14.138c-3.874-3.934-10.201-3.984-14.139-0.111c-29.923,29.456-68.037,47.714-109.12,52.645
	c26.609-10.096,45.58-35.843,45.58-65.95c0-23.496-11.561-44.331-29.283-57.153c2.638-1.205,4.86-2.442,6.686-3.59
	c14.035,7.426,50.659,24.762,86.725,24.762c10.314,0,20.591-1.42,30.27-4.895c21.312-7.651,36.572-23.868,45.358-48.2
	c15.269-42.289,4.218-82.875-32.847-120.635c-24.928-25.393-61.022-49.102-110.259-72.424c0.019-0.417,0.032-0.835,0.032-1.257
	c0-14.784-12.027-26.812-26.811-26.812c-7.418,0-14.141,3.029-19,7.914c-3.247-1.35-6.361-2.635-9.283-3.84
	c-6.472-2.669-12.061-4.975-16.477-6.903c-12.507-5.461-26.215-12.478-40.746-20.858c-3.051-1.76-6.804-1.783-9.879-0.062
	c-3.073,1.721-5.015,4.933-5.109,8.455l-0.021,0.769c-0.207,7.818,0.206,15.548,1.181,23.143
	c-10.719-11.114-18.636-24.725-23.006-39.533c26.823-10.256,55.09-15.467,84.162-15.467c130.099,0,235.941,105.843,235.941,235.941
	S386.099,492.005,256,492.005S20.059,386.162,20.059,256.063c0-86.179,46.981-165.493,122.61-206.993
	c4.841-2.656,6.611-8.733,3.955-13.574c-2.656-4.842-8.733-6.611-13.574-3.955C51.021,76.553,0.063,162.585,0.063,256.063
	c0,68.363,26.622,132.634,74.961,180.974C123.366,485.379,187.637,512,256,512s132.634-26.621,180.975-74.962
	c48.34-48.34,74.961-112.611,74.961-180.974S485.315,123.429,436.975,75.089z M328.669,194.776
	c19.011-11.878,33.595-29.831,41.37-50.773c11.988,7.645,22.613,15.365,31.943,23.207c8.655,27.077-5.012,56.163-30.914,67.004
	C364.924,221.261,350.871,208.186,328.669,194.776z M283.428,280.807c3.413-0.536,6.16-2.789,7.507-5.975
	c1.355-3.206,0.792-6.876-1.235-9.706c-0.151-0.212-13.22-18.756-8.054-35.032c8.558,4.403,14.347,11.423,17.258,20.951
	c2.066,6.762,2.183,13.132,2.049,16.494c-0.156,0.236-0.309,0.475-0.447,0.727c-4.863,8.898-7.05,18.756-6.489,28.626
	c-0.091,0.087-0.179,0.176-0.267,0.266l-0.006-0.006l0.123-0.125c-0.467,0.448-10.37,9.65-33.185,9.019
	C267.084,284.989,282.038,281.123,283.428,280.807z M304.312,376.71c0,6.306-1.172,12.342-3.292,17.915l-27.237-15.725l28.47-16.437
	C303.584,366.983,304.312,371.762,304.312,376.71z M203.263,376.71c0-4.948,0.728-9.726,2.059-14.248l28.47,16.437l-27.237,15.725
	C204.435,389.051,203.263,383.016,203.263,376.71z M263.786,361.582v-34.399c11.649,2.348,21.859,8.715,29.118,17.589
	L263.786,361.582z M243.791,327.183v34.399l-29.118-16.811C221.931,335.898,232.141,329.53,243.791,327.183z M217.243,411.542
	l26.548-15.327v30.022C233.453,424.153,224.257,418.897,217.243,411.542z M263.786,426.236v-30.022l26.547,15.327
	C283.319,418.897,274.122,424.153,263.786,426.236z M411.987,317.001c-33.38,12.012-78.869-7.622-97.497-16.977
	c-1.093-5.87-0.596-11.855,1.433-17.446c4.323,0.69,10.021,1.341,16.196,1.34c5.43,0,11.214-0.51,16.728-1.931
	c15.538,19.303,38.576,29.551,61.929,29.551c4.645,0,9.301-0.419,13.914-1.239C420.861,313.09,416.639,315.327,411.987,317.001z
	 M445.427,280.353c-0.047,0.032-0.096,0.058-0.142,0.091c-12.909,9.255-28.635,12.932-44.283,10.351
	c-13.425-2.213-25.417-8.817-34.4-18.797c3.565-3.872,6.869-9.557,7.809-17.666c28.982-10.053,47.902-36.336,49.981-65.247
	C449.858,218.572,456.74,248.523,445.427,280.353z M294.18,86.501c3.759,0,6.816,3.058,6.816,6.817c0,3.759-3.058,6.817-6.816,6.817
	c-3.758,0-6.817-3.058-6.817-6.817C287.362,89.559,290.42,86.501,294.18,86.501z M241.419,82.002
	c4.603,2.01,10.28,4.352,16.853,7.063c2.868,1.183,5.924,2.444,9.108,3.767c-0.003,0.163-0.012,0.323-0.012,0.487
	c0,14.784,12.028,26.812,26.812,26.812c7.141,0,13.635-2.812,18.444-7.38c14.504,6.876,27.786,13.761,39.902,20.69
	c-6.298,19.782-20.044,36.609-38.326,46.656l-5.428,2.982c-0.213,0.117-0.413,0.249-0.614,0.379
	c-5.562-2.827-11.456-5.672-17.728-8.535c-23.971-10.944-43.477-28.404-56.84-49.663l15.106,8.942
	c1.599,0.946,3.352,1.396,5.083,1.396c3.417,0,6.746-1.753,8.613-4.907c2.812-4.751,1.241-10.883-3.511-13.696l-39.756-23.533
	c-2.403-7.987-4.058-16.249-4.89-24.694C223.728,73.82,232.827,78.251,241.419,82.002z"/>
<path d="M420.019,376.91c3.222,0,6.385-1.555,8.313-4.433l0.199-0.296c3.062-4.594,1.822-10.801-2.772-13.864
	c-4.594-3.062-10.801-1.824-13.864,2.772l-0.172,0.255c-3.074,4.587-1.849,10.796,2.738,13.872
	C416.171,376.363,418.106,376.91,420.019,376.91z"/>
<path d="M143.162,119.1c-5.395-1.115-10.694,2.361-11.812,7.77c-1.691,8.193,0.457,16.61,5.746,22.973
	c-4.14,8.49-3.594,18.845,2.139,26.995l5.325,7.566c2.641,3.994,36.876,54.092,91.804,54.086c4.528,0,9.209-0.342,14.013-1.078
	c3.997-0.612,7.231-3.572,8.196-7.498c0.964-3.927-0.533-8.048-3.792-10.441c-25.187-18.497-36.066-32.071-47.583-46.442
	c-6.856-8.555-13.946-17.4-24.087-27.259c-0.036-0.035-0.073-0.07-0.109-0.105l-3.728-3.515c-7.56-7.13-18.09-9.052-27.265-5.72
	c-1.067-1.612-1.475-3.586-1.075-5.52C152.049,125.505,148.57,120.217,143.162,119.1z M165.553,156.698l3.673,3.463
	c9.224,8.973,15.609,16.94,22.368,25.374c7.715,9.626,15.6,19.466,27.742,30.716c-35.337-8.983-57.744-42.339-58.14-42.938
	c-0.063-0.097-0.128-0.192-0.194-0.287l-5.416-7.695c-1.936-2.75-1.504-6.515,1.004-8.755
	C159.176,154.265,163.028,154.317,165.553,156.698z"/>
<path d="M133.119,355.791c3.252,0.521,6.514,0.777,9.763,0.777c16.295,0,32.164-6.442,43.827-18.104l0,0
	c13.987-13.987,20.464-34.02,17.328-53.589c-0.684-4.264-4.026-7.606-8.29-8.29c-19.564-3.133-39.602,3.342-53.589,17.328
	c-13.987,13.987-20.465,34.02-17.328,53.589C125.514,351.765,128.858,355.107,133.119,355.791z M156.298,308.051
	c7.613-7.614,17.882-11.939,28.507-12.234c-0.295,10.624-4.62,20.892-12.234,28.507c-7.614,7.615-17.883,11.94-28.507,12.234
	C144.358,325.933,148.684,315.666,156.298,308.051z"/>
<path d="M159.346,274.196c4.263-0.684,7.605-4.026,8.289-8.29c3.137-19.569-3.341-39.602-17.328-53.589
	c-13.985-13.986-34.016-20.463-53.589-17.328c-4.264,0.684-7.606,4.026-8.29,8.29c-3.135,19.569,3.343,39.602,17.329,53.588
	c11.663,11.663,27.529,18.105,43.826,18.105C152.83,274.973,156.095,274.717,159.346,274.196z M119.897,242.73L119.897,242.73
	c-7.614-7.614-11.94-17.882-12.235-28.507c10.625,0.294,20.892,4.62,28.507,12.234c7.614,7.614,11.94,17.882,12.234,28.507
	C137.779,254.669,127.51,250.344,119.897,242.73z"/>
<g>
</g>
<g>
</g>
<g>
</g>
<g>
</g>
<g>
</g>
<g>
</g>
<g>
</g>
<g>
</g>
<g>
</g>
<g>
</g>
<g>
</g>
<g>
</g>
<g>
</g>
<g>
</g>
<g>
</g>
</svg>
