<svg id="Layer_1" enable-background="new 0 0 512.002 512.002" height="512" viewBox="0 0 512.002 512.002" width="512" xmlns="http://www.w3.org/2000/svg"><g><g clip-rule="evenodd" fill-rule="evenodd"><g><path d="m321.083 414.455c-51.946 15.475-101.168 43.363-142.064 87.545h322.983v-97.674c-58.262-9.038-121.38-7.609-180.919 10.129z" fill="#b8ecbb"/><path d="m179.019 502c40.892-44.177 90.109-72.065 142.048-87.54-97.178-55.33-209.839-64.817-311.067-48.187v135.727z" fill="#a0e5a5"/></g><path d="m103.548 159.374c-11.301-5.868-25.551-4.062-35.033 5.421-9.483 9.482-11.289 23.732-5.421 35.033-12.14 3.841-20.939 15.196-20.939 28.606 0 13.411 8.8 24.765 20.939 28.606-5.868 11.301-4.062 25.551 5.421 35.033.615.615 1.249 1.197 1.902 1.747 9.415 7.937 22.564 9.161 33.131 3.674 1.641 5.184 4.651 9.759 8.606 13.3 5.307 4.751 12.316 7.64 20 7.64s14.693-2.889 20-7.64c3.955-3.541 6.965-8.116 8.606-13.3 11.3 5.868 25.551 4.061 35.033-5.421 5.256-5.256 8.154-11.976 8.693-18.848.434-5.526-.657-11.149-3.272-16.186 12.14-3.842 20.939-15.195 20.939-28.606 0-13.41-8.799-24.764-20.939-28.606 5.868-11.3 4.061-25.551-5.421-35.033-9.482-9.483-23.732-11.289-35.033-5.421-3.841-12.14-15.195-20.939-28.606-20.939-13.41 0-24.765 8.8-28.606 20.94z" fill="#cbe558"/><path d="m132.154 318.434c-7.684 0-14.692-2.889-20-7.642v48.238 51.429c0 11 9 20 20 20s20-9 20-20v-48.87-7.233-43.563c-5.307 4.753-12.316 7.641-20 7.641z" fill="#c68a65"/><path d="m257.863 362.696c-6.756 6.756-8.043 16.91-3.863 24.961-8.65 2.738-14.919 10.827-14.919 20.382s6.27 17.645 14.919 20.382c-2.462 4.741-3.027 10.211-1.698 15.285 66.014-37.712 141.884-48.934 213.308-43.57 5.004-3.912 8.221-10.004 8.221-16.848 0-9.555-6.269-17.644-14.919-20.382 4.181-8.051 2.894-18.205-3.863-24.961-6.756-6.756-16.91-8.043-24.961-3.862-2.737-8.65-10.827-14.919-20.382-14.919s-17.644 6.27-20.382 14.919c-8.052-4.181-18.205-2.894-24.961 3.862s-8.043 16.91-3.863 24.961c-3.102.982-5.897 2.651-8.208 4.831-.969-1.812-2.216-3.514-3.743-5.042-6.756-6.756-16.91-8.043-24.961-3.862-2.737-8.65-10.827-14.919-20.382-14.919s-17.644 6.27-20.382 14.919c-8.051-4.18-18.205-2.893-24.961 3.863z" fill="#cbe558"/><path d="m10 366.273c33.141-5.444 67.507-8.09 102.154-7.243v-48.236c-3.955-3.541-6.965-8.116-8.606-13.3-10.567 5.487-23.715 4.263-33.131-3.674-20.874 2.136-41.105 3.411-60.417 3.411z" fill="#88df8e"/><path d="m152.154 310.793v43.565 7.233c33.771 3.531 67.465 10.617 100.212 21.893-1.965-7.167-.133-15.156 5.497-20.787 6.756-6.756 16.91-8.043 24.961-3.862 2.737-8.65 10.827-14.919 20.382-14.919s17.645 6.27 20.382 14.919c8.052-4.181 18.205-2.894 24.961 3.862 1.528 1.528 2.775 3.23 3.743 5.042 2.31-2.179 5.106-3.849 8.208-4.831-4.181-8.052-2.894-18.205 3.863-24.961s16.91-8.043 24.961-3.862c2.737-8.65 10.827-14.919 20.382-14.919s17.645 6.27 20.382 14.919c8.052-4.181 18.206-2.894 24.961 3.862 6.756 6.756 8.044 16.91 3.863 24.961 8.65 2.738 14.919 10.827 14.919 20.382 0 6.844-3.217 12.936-8.221 16.847 11.492.863 22.868 2.155 34.07 3.836.774.116 1.548.234 2.321.354v-148.328c-49.372-13.229-108.401-11.219-170.798-3.365-24.798 3.122-50.128 7.166-75.596 11.544-17.019 2.926-34.099 6-51.122 9.048-.54 6.871-3.438 13.592-8.693 18.848-9.482 9.482-23.733 11.289-35.033 5.421-1.64 5.184-4.65 9.759-8.605 13.298z" fill="#88df8e"/><path d="m289.389 80.607c-16.293 60.806-33.781 183.572-33.781 183.572 25.467-4.378 50.797-8.423 75.596-11.544 1.993-15.795.989-26.627 7.722-59.855 5.448-26.888 12.595-31.059 28.179-34.886 27.515-6.757 21.69-88.443 36.307-126.432-47.314 0-82.678-7.82-102.882 22.746-4.466 6.757-8.192 15.39-11.141 26.399z" fill="#99ebfa"/><path d="m367.105 157.894c-15.584 3.827-22.731 7.998-28.179 34.886-6.733 33.228-5.729 44.06-7.722 59.854 62.397-7.854 121.426-9.865 170.798 3.365v-203.164c-19.862 0-28.204-2.25-32.64-15.281-11.746-34.51-18.001-27.924-46.897-25.215-8.915.836-14.835 8.16-19.053 19.122-14.618 37.99-8.792 119.675-36.307 126.433z" fill="#8aa7bd"/><path d="m65.1 118.833c37.596-.148 39.435-32.617 81.778-31.799 7.114.137 13.279.213 18.724.199-2.38-2.998-5.396-4.992-9.131-6.174 3.802-7.322 2.631-16.556-3.513-22.7s-15.377-7.315-22.7-3.513c-2.489-7.866-9.846-13.567-18.535-13.567s-16.046 5.702-18.535 13.567c-7.322-3.802-16.556-2.632-22.7 3.513-6.144 6.144-7.315 15.377-3.513 22.7-7.866 2.489-13.567 9.846-13.567 18.535.001 8.689 3.826 16.75 11.692 19.239z" fill="#cbe558"/><path d="m146.878 87.034c-42.343-.818-44.182 31.651-81.778 31.799-.613.002-1.236-.004-1.869-.019-39.415-.938-53.231 2.857-53.231 21.231v157.187c19.312 0 39.543-1.275 60.417-3.411-.653-.55-1.287-1.133-1.902-1.747-9.483-9.482-11.289-23.732-5.421-35.033-12.14-3.841-20.939-15.195-20.939-28.606 0-13.41 8.8-24.764 20.939-28.606-5.868-11.301-4.062-25.551 5.421-35.033 9.482-9.483 23.732-11.289 35.033-5.421 3.841-12.14 15.196-20.939 28.606-20.939 13.411 0 24.765 8.8 28.606 20.939 11.301-5.868 25.551-4.062 35.033 5.421 9.482 9.482 11.289 23.733 5.421 35.033 12.14 3.842 20.939 15.196 20.939 28.606 0 13.411-8.799 24.764-20.939 28.606 2.615 5.037 3.706 10.66 3.271 16.186 17.024-3.048 34.104-6.122 51.123-9.048 0 0 17.488-122.766 33.781-183.572 2.95-11.009 6.675-19.642 11.142-26.399-8.601-17.404-73.52-14.384-75.829 11.025-.822 4.615-1.359 8.202-1.862 11.562-20.398 8.01-29.687 10.361-57.237 10.438-5.446.013-11.611-.062-18.725-.199z" fill="#6d91ac"/></g><g><path d="m502.002 42.836c-20.278 0-21.186-2.665-23.173-8.503-5.11-15.016-10.01-25.377-18.629-30.63-8.255-5.029-17.055-3.921-28.19-2.517-3.106.392-6.628.836-10.479 1.197-11.419 1.07-19.093 8.264-24.521 19.029-5.954-.081-11.729-.255-17.347-.427-31.822-.979-60.574-1.857-80.348 18.712-12.565-7.04-32.62-8.016-49.42-4.568-20.812 4.271-33.572 14.726-35.105 28.724-.367 2.073-.68 3.958-.957 5.699-14.346 5.411-23.041 7.371-44.065 7.644-.444-.383-.896-.757-1.364-1.112 1.235-8.934-1.699-18.122-8.375-24.796-6.683-6.684-15.879-9.62-24.83-8.371-5.442-7.205-14.024-11.639-23.476-11.639s-18.033 4.435-23.475 11.64c-8.946-1.246-18.148 1.687-24.829 8.37-6.685 6.683-9.618 15.886-8.371 24.83-7.205 5.442-11.639 14.024-11.639 23.476 0 3.247.397 6.326 1.126 9.199-17.56.553-29.278 3.178-36.764 10.489-5.229 5.106-7.771 11.898-7.771 20.764v361.954c0 5.522 4.478 10 10 10h492.002c5.522 0 10-4.478 10-10v-449.164c0-5.523-4.478-10-10-10zm-175.495 2.234c4.532-1.82 9.669-2.938 15.299-3.611l-5.953 28.278c-1.138 5.405 2.32 10.708 7.725 11.846.695.146 1.388.217 2.07.217 4.629 0 8.784-3.232 9.775-7.941l7.005-33.272c5.299.046 10.847.212 16.621.389 3.591.11 7.245.222 10.981.311-3.337 13.423-5.308 28.931-7.248 44.246-2.042 16.124-4.153 32.798-7.669 45.106-2.97 10.396-6.661 16.626-10.394 17.542-19.62 4.818-29.415 12.114-35.595 42.611-4.818 23.778-5.77 36.299-6.608 47.345-.146 1.908-.286 3.765-.443 5.613-5.756.763-11.539 1.583-17.333 2.429l1.387-10.149c.747-5.472-3.082-10.514-8.555-11.262-5.471-.739-10.514 3.083-11.262 8.555l-2.187 16.003c-5.532.878-11.071 1.776-16.618 2.701 4.971-33.136 18.703-120.917 31.542-168.834 7.212-26.911 18.464-34.51 27.46-38.123zm-256.514 45.523c2.815-.891 5.093-2.979 6.223-5.707 1.129-2.729.996-5.815-.364-8.436-1.903-3.666-1.217-8.094 1.709-11.021s7.357-3.61 11.02-1.708c2.623 1.361 5.708 1.491 8.436.364 2.728-1.13 4.816-3.407 5.707-6.222 1.246-3.938 4.863-6.585 9.001-6.585s7.755 2.646 9.001 6.585c.891 2.814 2.979 5.092 5.707 6.222 2.728 1.128 5.813.997 8.436-.364 3.665-1.903 8.095-1.216 11.021 1.709 2.926 2.926 3.612 7.354 1.709 11.019-.1.193-.18.394-.267.592-.088-.002-.17-.003-.258-.005-.601-.012-1.192-.018-1.778-.018-24.31 0-37.067 9.831-48.353 18.528-9.119 7.027-16.496 12.676-29.929 13.229-2.633-1.669-3.602-5.834-3.602-9.182-.003-4.137 2.644-7.754 6.581-9zm-49.993 49.453c0-4.752 1.267-5.989 1.744-6.454 5.76-5.625 31.544-5.011 41.249-4.78 22.865.535 35.228-9.001 46.155-17.423 10.244-7.894 19.1-14.704 37.536-14.356 33.184.642 46.891-.041 63.259-5.016-.781 3.312-1.716 4.088-4.568 6.456-6.267 5.203-12.16 11.215-15.416 27.415-1.089 5.415 2.419 10.687 7.833 11.774 5.424 1.086 10.687-2.419 11.774-7.833 2.133-10.612 4.98-12.976 8.585-15.969 3.858-3.204 9.144-7.593 11.418-17.955 1.635-7.448 2.379-12.418 3.167-17.68.5-3.335 1.017-6.783 1.81-11.238.051-.281.089-.564.114-.849.396-4.349 7.688-8.841 18.146-11.179 15.11-3.378 28.62-1.336 35.021 1.262-3.125 6.166-5.841 13.374-8.097 21.797-14.067 52.501-29.053 151.004-32.972 177.549-10.534 1.832-21.063 3.704-31.567 5.583 10.46-7.335 16.964-19.384 16.964-32.717 0-13.977-7.138-26.557-18.498-33.759 2.941-13.126-.907-27.068-10.792-36.951-9.883-9.886-23.822-13.733-36.951-10.792-7.202-11.36-19.781-18.498-33.76-18.498-13.978 0-26.557 7.137-33.759 18.498-13.125-2.943-27.067.907-36.951 10.791-9.884 9.885-13.732 23.826-10.791 36.951-11.361 7.202-18.498 19.782-18.498 33.76 0 13.979 7.137 26.558 18.498 33.759-1.747 7.794-1.08 15.87 1.803 23.219-11.473.912-22.234 1.483-32.456 1.708zm172.34 121.602c4.035 7.771 2.581 17.156-3.618 23.355-6.199 6.197-15.585 7.651-23.354 3.616-2.619-1.36-5.708-1.493-8.436-.364-2.728 1.13-4.816 3.407-5.707 6.223-2.642 8.348-10.306 13.956-19.072 13.956s-16.43-5.608-19.071-13.956c-.891-2.815-2.979-5.093-5.708-6.223-1.228-.508-2.527-.761-3.826-.761-1.586 0-3.168.377-4.608 1.125-7.77 4.036-17.155 2.582-23.354-3.617-6.198-6.198-7.652-15.584-3.617-23.354 1.36-2.62 1.493-5.708.364-8.436-1.131-2.728-3.408-4.816-6.223-5.707-8.348-2.642-13.956-10.306-13.956-19.071s5.608-16.431 13.957-19.072c2.814-.891 5.092-2.98 6.222-5.708s.996-5.814-.364-8.435c-4.035-7.771-2.582-17.155 3.617-23.354 6.197-6.199 15.583-7.653 23.354-3.616 2.618 1.359 5.705 1.492 8.436.364 2.728-1.13 4.816-3.407 5.707-6.222 2.642-8.349 10.306-13.957 19.071-13.957s16.431 5.608 19.072 13.957c.891 2.814 2.979 5.092 5.708 6.222 2.728 1.128 5.815.995 8.435-.364 7.771-4.035 17.155-2.582 23.354 3.617 6.198 6.198 7.652 15.583 3.617 23.354-1.36 2.62-1.494 5.707-.364 8.435s3.407 4.816 6.222 5.708c8.348 2.643 13.957 10.307 13.957 19.072s-5.608 16.43-13.957 19.071c-2.814.891-5.092 2.979-6.222 5.708-1.129 2.727-.997 5.814.364 8.434zm-53.149 87.553c-5.041 2.255-7.3 8.17-5.044 13.212 1.497 3.347 4.609 5.451 8.007 5.838v42.209c0 5.514-4.486 10-10.001 10-5.514 0-9.999-4.486-9.999-10v-83.282c3.209.82 6.561 1.257 9.999 1.257 3.439 0 6.791-.437 10.001-1.257v20.698zm-119.191-42.076c14.66-.309 30.329-1.295 47.538-2.974 9.103 6.099 20.246 8.162 30.856 5.785 1.123 1.771 2.391 3.426 3.76 4.981v33.972c-27.087-.138-54.636 1.78-82.154 5.729zm154.688 184.875h-154.688v-117.17c27.526-4.094 55.097-6.081 82.154-5.939v35.329l-19.338 9.462c-4.96 2.428-7.015 8.417-4.587 13.378 1.735 3.546 5.291 5.606 8.99 5.606 1.475 0 2.973-.327 4.388-1.02l14.158-6.927c5.082 9.366 15.004 15.741 26.389 15.741 11.46 0 21.437-6.462 26.487-15.932l10.589 4.947c1.369.64 2.809.941 4.226.941 3.764 0 7.369-2.135 9.067-5.77 2.337-5.004.176-10.955-4.828-13.293l-15.54-7.26v-31.263c25.395 3.263 50.078 8.547 73.644 15.778-4.25 5.393-6.717 12.168-6.717 19.431 0 10.29 4.93 19.612 12.903 25.39-.254 1.631-.374 3.283-.37 4.938-24.596 14.735-46.965 32.642-66.927 53.633zm317.314 0h-288.834c33.909-31.301 74.354-54.097 120.526-67.887 5.291-1.581 8.3-7.152 6.72-12.444-1.581-5.291-7.148-8.302-12.444-6.72-18.998 5.675-37.086 12.791-54.22 21.309-.125-.564-.286-1.122-.51-1.664-1.13-2.728-3.407-4.816-6.222-5.707-4.747-1.502-7.937-5.861-7.937-10.848 0-4.985 3.19-9.345 7.938-10.848 2.814-.892 5.091-2.98 6.221-5.708 1.129-2.728.996-5.814-.364-8.435-2.295-4.418-1.468-9.756 2.059-13.281 3.526-3.526 8.864-4.353 13.281-2.059 2.618 1.359 5.706 1.492 8.435.364 2.729-1.13 4.817-3.407 5.708-6.222 1.502-4.747 5.861-7.937 10.848-7.937s9.346 3.189 10.848 7.937c.891 2.814 2.979 5.092 5.707 6.222 2.729 1.129 5.815.997 8.436-.364 4.418-2.293 9.757-1.467 13.28 2.056.8.801 1.472 1.705 1.998 2.689 1.469 2.747 4.134 4.652 7.208 5.153 3.077.503 6.207-.458 8.473-2.595 1.241-1.172 2.751-2.061 4.365-2.572 2.814-.892 5.091-2.98 6.22-5.708s.996-5.814-.364-8.434c-2.295-4.418-1.468-9.756 2.059-13.281 3.525-3.526 8.863-4.353 13.281-2.059 2.619 1.359 5.707 1.492 8.435.364 2.729-1.13 4.817-3.407 5.708-6.222 1.502-4.748 5.861-7.938 10.848-7.938s9.346 3.189 10.848 7.938c.891 2.814 2.979 5.092 5.707 6.222 2.729 1.128 5.815.997 8.436-.364 4.42-2.295 9.758-1.468 13.282 2.059 3.525 3.525 4.354 8.863 2.059 13.281-1.36 2.62-1.494 5.707-.364 8.435s3.407 4.816 6.222 5.708c4.747 1.502 7.937 5.862 7.937 10.848 0 2.385-.754 4.658-2.1 6.559-17.792-1.155-35.465-1.276-52.849-.346-5.515.295-9.746 5.006-9.45 10.521.295 5.516 5.039 9.754 10.521 9.45 26.834-1.437 54.405-.26 82.05 3.502v79.026zm0-99.202c-3.105-.404-6.209-.772-9.312-1.114.747-2.701 1.141-5.52 1.141-8.395 0-10.277-4.919-19.591-12.876-25.369 1.541-9.713-1.566-19.776-8.834-27.045-7.268-7.268-17.333-10.376-27.045-8.834-5.779-7.958-15.092-12.877-25.37-12.877s-19.591 4.919-25.37 12.877c-9.715-1.543-19.776 1.567-27.044 8.834-5.324 5.324-8.415 12.149-9.082 19.237-6.017-3.227-12.909-4.39-19.634-3.321-5.779-7.957-15.092-12.876-25.37-12.876-10.277 0-19.591 4.92-25.37 12.876-9.713-1.543-19.776 1.566-27.044 8.834-4.037 4.038-6.786 8.939-8.171 14.163-21.396-6.619-43.661-11.699-66.519-15.189l13.259-5.932c5.041-2.255 7.3-8.17 5.044-13.212-2.255-5.041-8.169-7.302-13.212-5.044l-19.038 8.517v-24.011c1.369-1.555 2.636-3.209 3.759-4.98 13.123 2.942 27.067-.907 36.95-10.791 4.953-4.952 8.389-10.923 10.217-17.299 99.189-17.766 201.535-35.969 278.922-18.037v128.988zm0-149.476c-17.58-3.74-36.184-5.795-55.563-6.547.62-3.861 1.133-7.499 1.63-11.04 2.028-14.465 3.493-24.915 10.501-34.813 3.191-4.507 2.125-10.748-2.383-13.939-4.508-3.193-10.749-2.125-13.939 2.383-9.816 13.863-11.748 27.64-13.985 43.592-.603 4.306-1.236 8.76-2.048 13.502-23.792.122-48.562 1.92-73.876 4.792.041-.53.081-1.063.122-1.6.795-10.465 1.696-22.327 6.268-44.887 4.704-23.217 9.077-24.291 20.763-27.16 23.8-5.845 28.334-41.651 33.135-79.56 3.451-27.249 8.177-64.568 20.774-65.75 4.168-.391 7.857-.855 11.113-1.266 7.546-.953 12.997-1.641 15.28-.248 4.161 2.536 8.634 15.677 10.104 19.995 5.684 16.697 17.591 20.839 32.106 21.793v180.753z"/><path d="m315.076 148.715c.695.146 1.388.217 2.07.217 4.629 0 8.784-3.232 9.775-7.941l5.596-26.579c1.138-5.405-2.32-10.708-7.725-11.846-5.409-1.139-10.708 2.321-11.846 7.725l-5.596 26.579c-1.136 5.404 2.322 10.707 7.726 11.845z"/><path d="m446.604 88.454h-.007c-5.522 0-9.997 4.478-9.997 10s4.481 10 10.004 10 10-4.478 10-10-4.477-10-10-10z"/><path d="m440.605 454.205c5.522 0 10-4.478 10-10s-4.478-10-10-10h-.008c-5.522 0-9.996 4.478-9.996 10s4.482 10 10.004 10z"/><path d="m335.605 451.455h-.008c-5.522 0-9.996 4.478-9.996 10s4.481 10 10.004 10 10-4.478 10-10-4.477-10-10-10z"/><path d="m271.104 301.455h-.007c-5.522 0-9.997 4.478-9.997 10s4.481 10 10.004 10 10-4.478 10-10-4.477-10-10-10z"/><path d="m374.598 277.455h-.008c-5.522 0-9.996 4.478-9.996 10s4.481 10 10.004 10 10-4.478 10-10-4.478-10-10-10z"/><path d="m364.687 394.382h-.007c-5.522 0-9.997 4.478-9.997 10s4.481 10 10.004 10 10-4.478 10-10-4.478-10-10-10z"/></g></g></svg>